<?xml version="1.0" encoding="UTF-8" standalone="no"?>
<!DOCTYPE svg PUBLIC "-//W3C//DTD SVG 1.1//EN" "http://www.w3.org/Graphics/SVG/1.1/DTD/svg11.dtd">
<svg xmlns="http://www.w3.org/2000/svg" version="1.1" viewBox="0.00 0.00 938.00 938.00">
<path fill="none" stroke-width="1.00" stroke="#fbf9e5" vector-effect="non-scaling-stroke" d="
  M 0.00 0.00
  L 938.00 0.00
  L 938.00 938.00
  L 0.00 938.00
  L 0.00 0.00
  Z
  M 268.83 443.02
  C 268.81 464.76 255.58 481.25 236.99 491.47
  Q 236.61 491.68 236.24 491.47
  C 221.06 483.11 227.86 461.81 234.76 449.97
  Q 234.82 449.85 234.72 449.68
  Q 234.56 449.43 234.41 449.68
  Q 220.26 473.10 213.97 499.57
  C 211.43 510.23 211.19 521.10 211.56 532.05
  C 212.26 552.57 220.06 570.93 233.57 586.38
  Q 233.76 586.59 233.58 586.81
  Q 233.01 587.49 232.43 586.80
  C 223.39 576.09 211.34 567.04 196.81 568.62
  C 189.53 569.41 183.97 573.08 181.81 580.05
  C 179.33 588.09 182.64 593.71 188.48 599.12
  Q 188.94 599.55 188.37 599.81
  C 177.34 604.91 167.46 616.15 169.42 628.79
  C 171.42 641.57 184.54 648.02 196.15 642.84
  C 205.67 638.59 208.09 631.44 211.62 622.33
  Q 213.02 618.72 215.64 616.01
  A 0.23 0.22 -6.3 0 1 215.99 616.29
  Q 203.67 634.87 208.42 656.53
  Q 208.99 659.14 208.63 661.51
  Q 199.48 722.28 196.22 748.23
  Q 195.32 755.46 200.81 758.63
  Q 203.03 759.92 207.07 759.93
  Q 370.37 760.51 450.61 760.17
  Q 480.48 760.04 510.35 760.14
  Q 611.63 760.46 713.09 759.96
  C 721.44 759.92 725.54 755.62 724.31 746.72
  Q 719.40 711.22 714.14 675.74
  Q 714.06 675.24 714.38 674.86
  Q 725.44 661.63 738.29 650.11
  C 740.57 648.06 741.06 646.02 741.65 643.14
  Q 741.79 642.48 742.40 642.77
  Q 750.81 646.75 759.42 642.45
  Q 766.53 638.90 768.56 631.92
  C 769.54 628.57 769.26 621.68 768.30 618.54
  C 765.82 610.35 757.99 603.48 750.54 599.77
  Q 750.00 599.51 750.41 599.08
  Q 753.83 595.51 754.66 594.43
  C 761.27 585.82 756.37 571.86 746.01 569.23
  Q 734.88 566.42 723.35 572.33
  Q 722.90 572.57 723.13 572.11
  C 732.96 552.53 735.15 526.27 718.28 509.78
  Q 716.66 508.20 711.18 504.52
  C 693.78 492.84 690.35 468.38 692.76 448.61
  Q 692.85 447.91 692.48 448.52
  Q 687.67 456.45 684.67 465.21
  A 0.36 0.35 -35.6 0 1 683.98 465.10
  C 684.07 454.73 684.34 444.04 683.06 434.11
  C 681.80 424.28 680.23 409.54 674.89 401.31
  C 661.08 379.97 630.27 387.88 626.10 412.26
  A 0.32 0.32 0.0 0 1 625.48 412.29
  Q 621.80 399.48 624.18 387.08
  C 625.23 381.62 628.15 374.14 629.57 369.02
  C 634.06 352.78 631.19 333.41 616.51 322.52
  Q 616.03 322.17 616.16 322.75
  C 620.13 340.67 608.84 352.65 591.10 352.52
  C 576.10 352.41 569.49 335.74 568.08 323.56
  Q 567.15 315.54 567.14 315.48
  Q 560.41 275.92 531.13 248.25
  Q 530.74 247.87 531.21 247.59
  C 543.36 240.29 549.67 232.81 556.63 220.16
  C 567.71 200.04 564.95 183.96 540.41 179.35
  Q 535.64 178.45 532.89 177.31
  C 510.36 167.97 490.30 152.01 475.44 131.99
  Q 468.87 123.13 467.37 121.55
  Q 450.66 103.87 425.88 102.97
  C 417.98 102.69 409.35 104.85 401.94 107.43
  Q 386.88 112.66 376.18 125.16
  C 369.10 133.44 366.74 142.66 365.31 153.22
  Q 365.24 153.72 364.86 154.05
  Q 356.46 161.33 350.62 170.83
  C 338.23 190.96 346.83 213.56 370.32 218.54
  Q 370.91 218.67 370.69 219.22
  L 367.61 226.94
  Q 367.42 227.41 366.91 227.36
  C 361.65 226.87 343.84 225.56 341.06 231.33
  C 338.23 237.18 334.13 242.66 333.35 249.07
  Q 329.34 282.12 326.60 322.77
  C 325.98 332.05 321.48 340.09 323.13 349.17
  C 324.25 355.33 325.50 361.18 320.96 365.69
  Q 320.60 366.05 320.20 365.74
  C 293.15 344.62 314.37 299.86 323.94 278.26
  C 326.65 272.16 327.42 267.12 326.04 260.99
  Q 325.68 259.41 325.51 261.02
  C 324.07 274.36 313.50 289.45 305.19 299.50
  Q 302.44 302.82 292.14 312.87
  C 267.28 337.13 236.38 377.19 260.33 412.49
  C 266.02 420.87 268.84 433.88 268.83 443.02
  Z
  M 318.22 180.00
  C 314.89 209.65 299.08 236.23 279.87 258.24
  C 264.02 276.42 255.83 305.11 254.28 328.79
  Q 254.27 328.93 254.31 328.94
  Q 254.44 328.98 254.57 329.02
  A 0.09 0.09 0.0 0 0 254.69 328.95
  C 256.46 314.36 275.16 295.84 286.97 286.19
  C 291.66 282.35 296.78 278.89 300.36 274.25
  C 306.58 266.17 311.62 254.95 313.63 244.93
  Q 320.23 211.95 318.71 180.02
  Q 318.57 176.95 318.22 180.00
  Z
  M 628.19 315.31
  C 633.41 319.31 643.35 327.71 645.53 333.95
  A 0.49 0.48 -41.0 0 0 646.42 334.01
  C 649.28 328.40 647.08 321.17 643.28 316.97
  C 636.77 309.76 631.11 303.41 628.40 295.09
  C 623.07 278.65 631.79 266.35 643.25 255.80
  A 0.12 0.12 0.0 0 0 643.11 255.60
  C 638.12 258.27 632.81 260.93 628.58 264.24
  C 615.42 274.57 608.62 287.62 618.03 303.62
  Q 622.23 310.76 628.19 315.31
  Z
  M 421.8124 823.4016
  A 0.27 0.27 0.0 0 0 421.5429 823.1311
  L 420.2629 823.1289
  A 0.27 0.27 0.0 0 0 419.9924 823.3984
  L 419.9676 837.6384
  A 0.27 0.27 0.0 0 0 420.2371 837.9089
  L 421.5171 837.9111
  A 0.27 0.27 0.0 0 0 421.7876 837.6416
  L 421.8124 823.4016
  Z
  M 426.74 828.00
  L 426.76 823.56
  Q 426.77 822.96 426.18 823.02
  L 425.64 823.08
  Q 425.00 823.14 425.00 823.79
  L 425.00 837.31
  A 0.66 0.65 -88.6 0 0 425.62 837.97
  L 426.44 838.01
  Q 427.00 838.04 426.94 837.48
  C 426.66 835.04 425.95 829.64 428.91 828.61
  A 2.24 2.24 0.0 0 1 431.89 830.69
  L 432.00 837.27
  Q 432.01 837.77 432.50 837.87
  L 433.36 838.03
  Q 433.85 838.13 433.84 837.63
  L 433.71 830.24
  Q 433.70 829.66 433.38 829.18
  Q 431.08 825.71 427.33 828.31
  Q 426.74 828.72 426.74 828.00
  Z
  M 515.22 836.75
  L 517.41 837.91
  Q 517.81 838.12 518.26 838.01
  C 526.39 835.96 522.67 823.56 515.34 828.31
  Q 514.74 828.70 514.74 827.99
  L 514.76 823.66
  Q 514.77 823.00 514.10 823.00
  L 513.63 823.00
  Q 513.00 823.00 513.00 823.62
  L 513.00 836.81
  A 0.97 0.96 3.0 0 0 513.87 837.77
  Q 514.74 837.85 514.76 837.02
  A 0.32 0.31 -75.2 0 1 515.22 836.75
  Z
  M 492.9752 823.4970
  A 0.26 0.26 0.0 0 0 492.7143 823.2379
  L 491.4743 823.2422
  A 0.26 0.26 0.0 0 0 491.2153 823.5031
  L 491.2648 837.6830
  A 0.26 0.26 0.0 0 0 491.5257 837.9421
  L 492.7657 837.9378
  A 0.26 0.26 0.0 0 0 493.0247 837.6769
  L 492.9752 823.4970
  Z
  M 524.84 824.43
  Q 524.89 825.70 526.11 825.35
  A 1.07 1.07 0.0 0 0 525.98 823.26
  Q 524.79 823.07 524.84 824.43
  Z
  M 365.76 829.98
  L 367.74 837.14
  A 1.08 1.08 0.0 0 0 369.82 837.15
  L 372.49 827.92
  Q 372.63 827.46 372.18 827.27
  Q 371.63 827.05 371.21 827.35
  Q 370.84 827.62 370.69 828.44
  Q 370.10 831.73 369.02 835.05
  A 0.30 0.30 0.0 0 1 368.45 835.04
  L 366.51 828.00
  A 1.04 1.04 0.0 0 0 364.50 827.99
  L 362.42 835.26
  A 0.27 0.27 0.0 0 1 361.90 835.25
  L 360.41 828.78
  Q 360.29 828.24 360.01 827.77
  Q 359.26 826.52 358.64 827.23
  Q 358.32 827.60 358.45 828.07
  L 361.01 837.16
  A 1.11 1.11 0.0 0 0 363.14 837.17
  L 365.28 829.98
  Q 365.53 829.14 365.76 829.98
  Z
  M 381.71 829.98
  L 383.78 837.11
  A 1.04 1.04 0.0 0 0 385.77 837.12
  L 388.63 827.68
  Q 388.88 826.84 388.05 827.11
  L 387.50 827.29
  Q 386.96 827.46 386.82 828.02
  L 385.10 834.94
  A 0.37 0.36 44.7 0 1 384.39 834.94
  L 382.43 827.75
  A 0.93 0.93 0.0 0 0 380.64 827.73
  L 378.44 835.24
  A 0.30 0.30 0.0 0 1 377.86 835.22
  L 376.20 828.14
  Q 376.08 827.61 375.61 827.33
  L 375.23 827.11
  A 0.53 0.53 0.0 0 0 374.45 827.71
  L 377.11 837.24
  A 1.02 1.02 0.0 0 0 379.07 837.25
  L 381.18 829.98
  A 0.28 0.28 0.0 0 1 381.71 829.98
  Z
  M 397.71 830.23
  L 399.72 837.20
  A 1.10 1.10 0.0 0 0 401.83 837.21
  L 404.58 827.96
  Q 404.75 827.39 404.23 827.11
  L 403.87 826.92
  Q 403.22 826.57 403.03 827.29
  L 400.94 835.18
  A 0.23 0.23 0.0 0 1 400.49 835.18
  L 398.54 827.79
  A 1.04 1.04 0.0 0 0 396.54 827.77
  L 394.41 835.23
  A 0.27 0.27 0.0 0 1 393.89 835.22
  L 392.19 827.83
  Q 392.11 827.48 391.80 827.30
  L 391.50 827.12
  A 0.74 0.74 0.0 0 0 390.41 827.95
  L 393.01 837.20
  A 1.10 1.10 0.0 0 0 395.13 837.21
  L 397.20 830.23
  Q 397.46 829.37 397.71 830.23
  Z
  M 464.75 828.46
  Q 464.96 827.27 463.85 826.99
  A 0.54 0.54 0.0 0 0 463.17 827.52
  L 463.29 837.40
  A 0.61 0.60 0.0 0 0 463.90 838.00
  L 464.46 838.00
  Q 465.00 838.00 464.99 837.47
  Q 464.97 834.38 465.14 831.32
  C 465.28 828.71 468.61 827.66 469.65 829.78
  C 470.42 831.36 469.99 835.43 470.03 837.24
  A 0.93 0.72 53.0 0 0 471.64 837.68
  L 471.98 830.16
  Q 472.00 829.64 472.43 829.34
  C 477.11 826.01 476.31 835.49 476.22 837.25
  Q 476.20 837.74 476.65 837.93
  Q 477.38 838.23 477.81 837.77
  Q 478.17 837.39 478.12 836.52
  C 477.96 833.82 478.59 823.20 471.95 828.43
  Q 471.54 828.76 471.13 828.42
  Q 468.00 825.79 465.16 828.68
  Q 464.61 829.24 464.75 828.46
  Z
  M 497.67 828.77
  Q 498.05 827.43 497.01 827.00
  A 0.52 0.52 0.0 0 0 496.29 827.47
  L 496.17 837.54
  Q 496.16 838.20 496.78 837.97
  L 497.66 837.65
  Q 498.19 837.45 498.12 836.89
  C 497.85 834.54 497.37 828.93 500.40 829.07
  Q 501.00 829.09 501.00 828.49
  L 501.00 827.41
  A 0.54 0.54 0.0 0 0 500.08 827.03
  L 498.14 828.96
  Q 498.08 829.03 498.00 829.00
  Q 497.87 828.96 497.73 828.90
  Q 497.64 828.87 497.67 828.77
  Z
  M 526.7635 827.4754
  A 0.33 0.33 0.0 0 0 526.4318 827.1471
  L 525.2918 827.1531
  A 0.33 0.33 0.0 0 0 524.9636 827.4848
  L 525.0165 837.5846
  A 0.33 0.33 0.0 0 0 525.3482 837.9129
  L 526.4882 837.9069
  A 0.33 0.33 0.0 0 0 526.8164 837.5752
  L 526.7635 827.4754
  Z
  M 573.08 828.70
  Q 570.50 825.82 567.60 828.43
  A 0.47 0.47 0.0 0 1 566.81 828.11
  Q 566.75 827.29 565.90 827.06
  Q 565.25 826.89 565.25 827.56
  L 565.25 836.71
  Q 565.25 837.03 565.42 837.30
  Q 566.21 838.60 566.85 837.15
  Q 566.99 836.81 566.99 836.45
  C 566.99 833.83 565.92 829.33 569.59 828.64
  A 2.03 2.03 0.0 0 1 571.99 830.63
  L 572.00 836.86
  Q 572.01 837.27 572.25 837.61
  Q 572.65 838.16 573.28 837.99
  A 0.67 0.66 -9.1 0 0 573.78 837.31
  Q 573.65 834.24 573.86 831.21
  C 574.01 829.01 575.76 827.84 577.68 829.25
  A 1.06 1.06 0.0 0 1 578.12 830.09
  L 578.31 837.43
  A 0.59 0.58 86.8 0 0 578.94 838.00
  L 579.28 837.97
  Q 579.83 837.93 579.90 837.38
  Q 580.43 833.11 579.39 829.00
  Q 579.27 828.49 578.85 828.17
  Q 576.03 826.07 573.96 828.68
  Q 573.54 829.21 573.08 828.70
  Z
  M 414.73 829.37
  A 1.40 1.40 0.0 0 1 413.76 831.81
  Q 410.06 831.69 408.97 835.03
  A 1.11 1.08 -52.9 0 0 409.09 835.98
  Q 410.98 838.85 414.27 837.23
  A 0.68 0.67 -43.7 0 1 414.90 837.24
  L 416.37 838.04
  Q 417.02 838.40 416.95 837.66
  C 416.51 832.67 418.84 826.42 410.97 827.50
  Q 410.16 827.61 409.86 828.35
  A 0.65 0.64 -4.9 0 0 410.80 829.14
  Q 412.96 827.80 414.73 829.37
  Z
  M 440.66 831.79
  C 434.24 830.64 435.19 840.82 441.20 837.22
  Q 441.59 836.99 441.96 837.23
  L 443.19 838.00
  A 0.55 0.54 14.0 0 0 444.03 837.50
  Q 443.73 833.89 443.54 830.33
  C 443.34 826.54 439.02 826.54 436.81 828.27
  A 0.59 0.59 0.0 0 0 437.50 829.23
  Q 439.95 827.62 441.83 829.68
  A 1.27 1.27 0.0 0 1 440.66 831.79
  Z
  M 448.50 828.46
  L 448.50 827.88
  Q 448.50 827.25 447.88 827.25
  L 447.46 827.25
  Q 446.93 827.25 446.93 827.78
  L 447.03 837.27
  Q 447.04 837.93 447.70 837.93
  L 448.35 837.93
  Q 449.05 837.93 448.93 837.24
  Q 448.24 833.32 449.50 829.61
  Q 449.64 829.22 450.05 829.23
  Q 451.55 829.28 452.26 828.07
  A 0.57 0.57 0.0 0 0 451.78 827.22
  Q 450.05 827.19 449.05 828.63
  A 0.30 0.30 0.0 0 1 448.50 828.46
  Z
  M 458.46 831.78
  Q 454.44 831.38 452.93 834.90
  A 1.05 1.05 0.0 0 0 453.01 835.88
  Q 454.99 839.07 458.23 837.23
  Q 458.62 837.01 458.99 837.25
  L 460.19 838.00
  A 0.50 0.50 0.0 0 0 460.96 837.54
  C 460.57 832.78 462.67 826.08 454.88 827.53
  Q 454.09 827.68 453.76 828.52
  A 0.60 0.60 0.0 0 0 454.71 829.20
  C 456.63 827.52 459.20 828.80 458.95 831.38
  Q 458.91 831.82 458.46 831.78
  Z
  M 481.74 828.92
  Q 484.52 827.72 486.05 830.13
  A 1.09 1.09 0.0 0 1 485.06 831.80
  Q 481.03 831.55 480.12 835.19
  A 1.14 1.13 -57.0 0 0 480.32 836.15
  Q 482.43 838.85 485.19 837.24
  Q 485.63 836.99 486.05 837.27
  L 487.06 837.95
  Q 487.91 838.52 487.87 837.50
  L 487.60 829.49
  A 1.55 1.54 17.9 0 0 487.01 828.34
  Q 484.31 826.21 481.21 827.97
  A 0.57 0.56 -16.3 0 0 480.93 828.47
  Q 480.95 828.82 481.14 828.96
  Q 481.32 829.10 481.74 828.92
  Z
  M 507.44 831.64
  C 498.63 832.79 502.79 839.99 507.25 837.14
  A 0.59 0.59 0.0 0 1 507.90 837.15
  L 509.16 838.00
  Q 509.91 838.51 509.87 837.60
  C 509.71 834.45 510.81 823.32 503.28 828.03
  Q 502.95 828.23 503.01 828.61
  L 503.06 828.99
  Q 503.13 829.49 503.56 829.22
  C 505.57 828.00 508.09 828.39 508.01 831.01
  A 0.66 0.65 87.4 0 1 507.44 831.64
  Z
  M 531.57 833.49
  L 536.99 833.50
  Q 537.59 833.51 537.67 832.92
  C 538.86 824.31 527.23 826.25 529.48 834.46
  C 530.45 838.02 533.73 838.21 536.79 837.49
  A 0.61 0.61 0.0 0 0 536.66 836.29
  C 534.70 836.27 531.15 837.21 531.11 833.96
  Q 531.10 833.49 531.57 833.49
  Z
  M 551.29 836.30
  C 543.37 838.53 544.75 825.86 551.30 828.74
  Q 551.53 828.85 551.71 828.67
  L 551.94 828.43
  Q 552.20 828.17 551.90 827.96
  C 548.68 825.76 544.34 828.48 544.09 831.97
  C 543.78 836.26 547.07 838.65 551.24 837.43
  Q 551.90 837.23 551.87 836.71
  Q 551.84 836.14 551.29 836.30
  Z
  M 557.4831 837.7766
  A 5.28 4.84 95.4 0 0 562.7985 832.9755
  A 5.28 4.84 95.4 0 0 558.4769 827.2634
  A 5.28 4.84 95.4 0 0 553.1615 832.0645
  A 5.28 4.84 95.4 0 0 557.4831 837.7766
  Z
  M 407.62 836.54
  A 1.26 1.26 0.0 0 0 406.36 835.28
  A 1.26 1.26 0.0 0 0 405.10 836.54
  A 1.26 1.26 0.0 0 0 406.36 837.80
  A 1.26 1.26 0.0 0 0 407.62 836.54
  Z
  M 542.61 836.51
  A 1.23 1.23 0.0 0 0 541.38 835.28
  A 1.23 1.23 0.0 0 0 540.15 836.51
  A 1.23 1.23 0.0 0 0 541.38 837.74
  A 1.23 1.23 0.0 0 0 542.61 836.51
  Z"
/>
<path fill="none" stroke-width="1.00" stroke="#461212" vector-effect="non-scaling-stroke" d="
  M 236.99 491.47
  C 255.58 481.25 268.81 464.76 268.83 443.02
  C 268.84 433.88 266.02 420.87 260.33 412.49
  C 236.38 377.19 267.28 337.13 292.14 312.87
  Q 302.44 302.82 305.19 299.50
  C 313.50 289.45 324.07 274.36 325.51 261.02
  Q 325.68 259.41 326.04 260.99
  C 327.42 267.12 326.65 272.16 323.94 278.26
  C 314.37 299.86 293.15 344.62 320.20 365.74
  Q 320.60 366.05 320.96 365.69
  C 325.50 361.18 324.25 355.33 323.13 349.17
  C 321.48 340.09 325.98 332.05 326.60 322.77
  Q 329.34 282.12 333.35 249.07
  C 334.13 242.66 338.23 237.18 341.06 231.33
  C 343.84 225.56 361.65 226.87 366.91 227.36
  Q 367.42 227.41 367.61 226.94
  L 370.69 219.22
  Q 370.91 218.67 370.32 218.54
  C 346.83 213.56 338.23 190.96 350.62 170.83
  Q 356.46 161.33 364.86 154.05
  Q 365.24 153.72 365.31 153.22
  C 366.74 142.66 369.10 133.44 376.18 125.16
  Q 386.88 112.66 401.94 107.43
  C 409.35 104.85 417.98 102.69 425.88 102.97
  Q 450.66 103.87 467.37 121.55
  Q 468.87 123.13 475.44 131.99
  C 490.30 152.01 510.36 167.97 532.89 177.31
  Q 535.64 178.45 540.41 179.35
  C 564.95 183.96 567.71 200.04 556.63 220.16
  C 549.67 232.81 543.36 240.29 531.21 247.59
  Q 530.74 247.87 531.13 248.25
  Q 560.41 275.92 567.14 315.48
  Q 567.15 315.54 568.08 323.56
  C 569.49 335.74 576.10 352.41 591.10 352.52
  C 608.84 352.65 620.13 340.67 616.16 322.75
  Q 616.03 322.17 616.51 322.52
  C 631.19 333.41 634.06 352.78 629.57 369.02
  C 628.15 374.14 625.23 381.62 624.18 387.08
  Q 621.80 399.48 625.48 412.29
  A 0.32 0.32 0.0 0 0 626.10 412.26
  C 630.27 387.88 661.08 379.97 674.89 401.31
  C 680.23 409.54 681.80 424.28 683.06 434.11
  C 684.34 444.04 684.07 454.73 683.98 465.10
  A 0.36 0.35 -35.6 0 0 684.67 465.21
  Q 687.67 456.45 692.48 448.52
  Q 692.85 447.91 692.76 448.61
  C 690.35 468.38 693.78 492.84 711.18 504.52
  Q 716.66 508.20 718.28 509.78
  C 735.15 526.27 732.96 552.53 723.13 572.11
  Q 722.90 572.57 723.35 572.33
  Q 734.88 566.42 746.01 569.23
  C 756.37 571.86 761.27 585.82 754.66 594.43
  Q 753.83 595.51 750.41 599.08
  Q 750.00 599.51 750.54 599.77
  C 757.99 603.48 765.82 610.35 768.30 618.54
  C 769.26 621.68 769.54 628.57 768.56 631.92
  Q 766.53 638.90 759.42 642.45
  Q 750.81 646.75 742.40 642.77
  Q 741.79 642.48 741.65 643.14
  C 741.06 646.02 740.57 648.06 738.29 650.11
  Q 725.44 661.63 714.38 674.86
  Q 714.06 675.24 714.14 675.74
  Q 719.40 711.22 724.31 746.72
  C 725.54 755.62 721.44 759.92 713.09 759.96
  Q 611.63 760.46 510.35 760.14
  Q 480.48 760.04 450.61 760.17
  Q 370.37 760.51 207.07 759.93
  Q 203.03 759.92 200.81 758.63
  Q 195.32 755.46 196.22 748.23
  Q 199.48 722.28 208.63 661.51
  Q 208.99 659.14 208.42 656.53
  Q 203.67 634.87 215.99 616.29
  A 0.23 0.22 -6.3 0 0 215.64 616.01
  Q 213.02 618.72 211.62 622.33
  C 208.09 631.44 205.67 638.59 196.15 642.84
  C 184.54 648.02 171.42 641.57 169.42 628.79
  C 167.46 616.15 177.34 604.91 188.37 599.81
  Q 188.94 599.55 188.48 599.12
  C 182.64 593.71 179.33 588.09 181.81 580.05
  C 183.97 573.08 189.53 569.41 196.81 568.62
  C 211.34 567.04 223.39 576.09 232.43 586.80
  Q 233.01 587.49 233.58 586.81
  Q 233.76 586.59 233.57 586.38
  C 220.06 570.93 212.26 552.57 211.56 532.05
  C 211.19 521.10 211.43 510.23 213.97 499.57
  Q 220.26 473.10 234.41 449.68
  Q 234.56 449.43 234.72 449.68
  Q 234.82 449.85 234.76 449.97
  C 227.86 461.81 221.06 483.11 236.24 491.47
  Q 236.61 491.68 236.99 491.47
  Z
  M 399.36 153.81
  C 399.93 168.73 401.76 181.76 410.02 194.48
  C 419.20 208.62 438.79 214.95 454.51 211.97
  Q 463.99 210.18 454.80 213.13
  C 432.11 220.40 412.89 214.14 398.81 195.30
  Q 398.46 194.84 398.06 195.26
  C 388.84 204.97 383.88 215.31 377.99 227.09
  A 0.59 0.59 0.0 0 0 378.47 227.95
  C 415.09 230.96 452.34 242.47 484.57 260.12
  Q 485.17 260.44 485.07 259.77
  C 483.09 245.90 483.34 233.35 489.12 220.53
  Q 489.36 219.99 488.84 219.71
  Q 479.29 214.59 468.61 212.71
  A 0.20 0.19 -45.6 0 1 468.61 212.33
  Q 482.46 209.38 496.47 211.90
  C 506.19 213.64 515.60 220.85 516.88 231.13
  Q 516.96 231.80 516.42 231.40
  Q 508.12 225.35 498.03 223.47
  A 1.12 1.12 0.0 0 0 496.74 224.29
  Q 494.29 233.62 495.89 243.18
  Q 495.98 243.68 496.49 243.74
  Q 524.44 246.51 540.98 226.42
  C 546.22 220.05 551.30 210.29 553.15 202.41
  C 555.84 191.01 538.81 189.97 531.77 187.60
  C 508.90 179.88 487.91 162.58 472.49 144.48
  Q 470.86 142.56 466.32 135.92
  C 455.71 120.39 436.63 110.06 417.39 113.58
  C 395.97 117.50 377.72 130.00 374.83 153.07
  Q 374.67 154.33 375.77 153.69
  Q 383.74 149.09 392.85 147.84
  A 0.09 0.08 28.1 0 1 392.90 148.00
  C 377.48 155.06 355.44 170.56 354.76 189.73
  C 354.35 201.28 364.31 206.91 374.06 209.22
  Q 374.61 209.35 374.88 208.85
  Q 382.35 195.03 393.89 184.40
  Q 394.28 184.04 394.16 183.52
  C 392.07 174.12 395.14 162.38 398.92 153.72
  Q 399.32 152.81 399.36 153.81
  Z
  M 509.55 513.93
  C 529.82 524.49 549.35 520.96 560.09 499.50
  Q 560.40 498.87 559.71 498.92
  Q 551.17 499.52 542.96 497.19
  Q 542.43 497.04 542.01 497.39
  C 534.11 503.97 527.06 497.69 522.99 490.87
  Q 522.69 490.36 522.34 490.84
  Q 516.40 498.89 507.75 502.27
  C 477.49 514.10 439.97 508.97 418.75 483.12
  C 409.15 471.42 400.86 450.61 410.35 436.62
  Q 410.85 435.89 410.97 436.76
  C 412.08 444.31 415.38 453.26 421.70 457.71
  C 430.14 463.66 442.91 460.82 450.69 455.11
  C 461.79 446.95 474.79 441.39 487.88 437.34
  C 506.77 431.49 528.20 433.75 532.32 456.56
  A 0.31 0.31 0.0 0 0 532.92 456.60
  C 539.83 435.26 558.74 425.90 578.64 439.55
  A 0.95 0.95 0.0 0 0 580.01 439.22
  Q 583.86 432.10 587.08 424.89
  C 590.36 417.52 593.13 413.46 601.08 412.74
  A 0.47 0.46 72.5 0 0 601.44 412.04
  Q 593.00 397.62 578.95 388.58
  Q 578.44 388.25 579.04 388.25
  L 584.49 388.25
  Q 585.23 388.25 584.95 387.56
  C 571.14 353.29 547.29 323.22 520.47 298.21
  Q 520.07 297.84 519.53 297.94
  Q 513.63 299.08 509.13 302.90
  A 1.98 1.98 0.0 0 1 505.88 301.55
  Q 505.35 295.31 506.56 288.01
  C 506.85 286.22 505.02 285.72 504.10 285.04
  C 459.61 252.19 404.42 235.70 349.21 237.53
  Q 348.64 237.54 348.88 238.06
  C 365.57 273.71 375.03 313.01 382.83 351.44
  Q 395.92 415.94 403.49 481.35
  Q 403.55 481.86 403.92 482.21
  C 420.42 498.27 420.64 518.50 403.99 534.63
  A 1.27 1.26 -19.8 0 0 403.61 535.43
  L 398.30 593.76
  A 0.56 0.56 0.0 0 0 398.72 594.35
  C 402.43 595.30 405.94 594.56 409.43 595.64
  C 412.30 596.54 414.55 595.10 417.28 595.00
  Q 429.13 594.58 437.69 593.88
  C 444.27 593.34 452.25 589.81 455.05 598.63
  Q 455.76 600.87 455.00 604.74
  Q 452.97 614.99 452.98 623.75
  C 452.99 638.87 452.95 652.10 456.54 666.68
  A 0.04 0.03 -49.8 0 0 456.61 666.67
  C 457.66 658.11 460.20 650.63 468.68 646.78
  Q 469.22 646.54 468.83 646.10
  Q 465.63 642.48 465.07 637.71
  C 464.15 629.85 461.93 607.19 471.02 602.22
  C 487.49 593.22 505.77 591.75 523.60 596.95
  C 536.22 600.64 535.93 609.21 535.40 621.36
  Q 535.38 621.89 535.91 621.93
  Q 547.34 622.79 556.18 629.87
  Q 556.59 630.20 556.96 629.83
  C 594.36 591.73 611.27 539.53 610.61 486.41
  A 0.15 0.14 -27.0 0 0 610.35 486.33
  Q 595.79 505.30 571.78 500.44
  Q 571.27 500.34 571.04 500.80
  C 564.62 513.75 554.33 527.22 538.37 526.92
  C 527.89 526.73 516.82 521.01 509.31 514.29
  A 0.22 0.22 0.0 0 1 509.55 513.93
  Z
  M 354.06 415.32
  Q 341.57 433.51 354.90 451.03
  Q 355.48 451.80 356.10 451.07
  Q 368.21 436.80 387.26 436.60
  Q 387.86 436.59 387.76 436.00
  C 385.63 423.25 384.33 410.01 381.67 397.41
  C 380.09 389.99 366.79 388.21 360.72 387.94
  A 0.54 0.54 0.0 0 1 360.52 386.91
  Q 369.39 382.84 378.92 385.36
  Q 379.86 385.61 379.66 384.66
  L 366.20 319.37
  A 0.74 0.74 0.0 0 0 365.70 318.82
  C 338.70 310.15 322.38 343.42 340.01 363.00
  Q 340.37 363.40 339.88 363.63
  Q 321.35 372.62 323.37 393.51
  C 323.62 396.14 326.11 397.38 327.34 399.29
  Q 329.49 402.66 331.21 406.29
  C 331.87 407.66 331.99 409.99 333.83 411.19
  Q 342.82 417.06 353.85 415.01
  Q 354.34 414.92 354.06 415.32
  Z
  M 606.09 426.04
  L 608.99 425.94
  Q 609.60 425.92 609.68 425.32
  L 610.02 422.71
  A 0.61 0.60 -85.8 0 0 609.43 422.02
  C 604.87 421.95 598.40 422.31 596.45 427.52
  C 589.84 445.23 578.19 462.73 562.08 473.11
  C 556.71 476.57 550.96 478.27 545.01 480.39
  C 542.43 481.31 541.05 482.97 539.62 485.10
  A 0.65 0.64 -66.3 0 0 540.00 486.08
  C 582.96 496.83 609.06 467.63 623.04 431.89
  Q 623.23 431.41 623.02 430.93
  Q 620.57 425.28 614.87 422.98
  Q 614.29 422.75 614.11 423.34
  L 613.28 426.01
  A 0.65 0.65 0.0 0 0 613.63 426.80
  Q 615.44 427.61 616.41 429.29
  A 1.32 1.32 0.0 0 1 615.41 431.26
  Q 609.95 431.84 605.31 429.11
  A 1.65 1.65 0.0 0 1 606.09 426.04
  Z
  M 344.82 484.37
  A 1.86 1.85 -80.3 0 0 347.43 482.52
  Q 346.52 471.75 350.32 461.66
  Q 350.51 461.15 350.13 460.75
  Q 335.80 445.95 339.15 425.14
  Q 339.23 424.64 338.75 424.50
  L 333.66 423.05
  A 0.48 0.47 11.3 0 0 333.05 423.45
  C 330.69 444.08 331.72 465.65 343.33 483.17
  Q 343.84 483.93 344.82 484.37
  Z
  M 382.42 509.62
  Q 381.74 508.65 382.82 509.15
  Q 391.74 513.33 396.75 521.83
  A 1.53 1.52 83.9 0 0 397.58 522.50
  C 399.38 523.10 400.82 522.98 402.09 521.37
  Q 410.78 510.44 404.12 498.53
  C 400.87 492.73 394.86 489.10 394.02 482.24
  Q 391.89 465.00 389.37 447.76
  Q 389.30 447.25 388.78 447.20
  C 378.63 446.30 370.16 450.07 363.77 458.08
  Q 352.33 472.41 359.86 491.44
  A 0.48 0.48 0.0 0 1 359.44 492.09
  C 346.57 492.62 337.08 499.88 332.57 511.37
  C 325.93 528.30 336.25 551.55 356.15 553.09
  A 0.45 0.45 0.0 0 1 356.37 553.92
  Q 340.67 564.46 342.28 583.94
  Q 342.84 590.75 345.94 595.83
  Q 357.89 615.44 380.70 609.34
  A 0.45 0.45 0.0 0 0 380.98 608.68
  C 376.85 601.40 378.57 592.82 388.17 591.95
  Q 388.75 591.90 388.80 591.33
  L 394.24 531.89
  Q 394.28 531.49 393.88 531.47
  Q 379.12 530.57 364.48 532.68
  A 0.30 0.30 0.0 0 1 364.26 532.14
  C 370.80 527.20 382.00 523.89 390.73 522.89
  A 0.52 0.52 0.0 0 0 391.10 522.07
  L 382.42 509.62
  Z
  M 195.34 577.32
  C 184.39 581.13 190.51 596.38 201.46 592.77
  Q 212.24 589.23 222.39 594.59
  C 223.34 595.10 224.55 595.18 225.32 594.52
  Q 226.50 593.52 225.56 592.30
  C 219.41 584.28 206.07 573.60 195.34 577.32
  Z
  M 713.34 594.45
  L 714.80 595.00
  A 0.99 0.97 -48.5 0 0 715.64 594.94
  Q 725.90 589.31 736.85 592.70
  Q 740.00 593.68 741.78 593.34
  C 748.92 591.98 752.41 582.49 745.41 578.30
  C 734.72 571.89 718.80 584.30 712.82 592.77
  A 1.11 1.11 0.0 0 0 713.34 594.45
  Z
  M 706.48 622.99
  Q 718.77 626.85 730.43 632.33
  A 0.35 0.35 0.0 0 0 730.88 631.84
  C 728.39 627.48 727.83 623.46 724.56 617.95
  C 723.40 615.99 722.99 615.33 720.49 615.31
  Q 708.87 615.22 709.84 603.15
  Q 709.88 602.63 709.47 602.32
  L 706.77 600.26
  Q 706.41 599.99 706.09 600.32
  L 700.90 605.81
  Q 700.54 606.19 700.70 606.68
  L 705.91 622.43
  A 0.90 0.88 0.2 0 0 706.48 622.99
  Z
  M 388.46 670.69
  C 388.29 656.90 382.39 642.93 366.67 642.17
  Q 366.22 642.15 365.98 642.52
  Q 358.83 653.30 354.33 665.45
  A 0.41 0.41 0.0 0 0 354.76 666.00
  C 362.38 665.14 375.11 664.92 379.70 672.62
  Q 379.95 673.04 379.77 673.49
  C 374.55 686.71 363.36 704.35 346.58 702.62
  A 0.95 0.95 0.0 0 1 345.81 702.05
  C 343.72 696.97 348.23 688.13 351.01 683.84
  A 0.53 0.53 0.0 0 0 350.51 683.03
  Q 334.74 684.64 326.81 698.11
  C 325.78 699.87 325.84 701.12 326.24 703.02
  Q 329.52 718.52 341.32 729.04
  Q 341.69 729.37 342.17 729.45
  C 373.56 734.65 388.23 711.44 388.78 683.83
  A 0.52 0.52 0.0 0 1 389.77 683.62
  C 393.46 691.35 401.33 700.34 410.21 701.20
  C 417.19 701.87 424.07 697.42 426.67 690.91
  C 430.45 681.41 427.92 671.62 424.75 661.29
  Q 416.03 632.82 407.46 604.46
  Q 407.30 603.92 406.74 603.88
  Q 397.40 603.24 388.48 600.42
  A 1.06 1.05 88.0 0 0 387.18 601.82
  Q 396.76 626.20 405.59 651.40
  C 407.34 656.41 414.00 671.14 404.77 672.73
  Q 396.87 674.08 393.79 667.10
  A 0.76 0.76 0.0 0 0 392.54 666.89
  L 388.81 670.83
  Q 388.46 671.20 388.46 670.69
  Z
  M 437.07 679.36
  C 441.06 692.32 447.82 704.07 462.49 706.58
  Q 464.57 706.94 465.45 705.86
  A 1.16 1.15 -44.1 0 0 465.48 704.45
  C 443.54 675.26 440.64 636.56 446.94 601.53
  Q 447.05 600.94 446.46 601.04
  C 436.07 602.86 426.24 602.88 415.82 603.80
  A 0.78 0.77 88.3 0 0 415.12 604.55
  Q 415.05 607.04 416.26 611.04
  Q 426.57 645.23 437.07 679.36
  Z
  M 488.72 635.18
  Q 497.47 629.85 507.75 630.24
  Q 508.31 630.26 508.34 630.82
  C 509.64 651.23 493.04 657.24 475.92 654.73
  C 468.00 653.57 464.91 661.78 465.90 668.19
  C 469.38 690.74 474.15 715.85 489.54 733.74
  A 0.25 0.25 0.0 0 0 489.96 733.47
  C 481.68 716.06 480.24 695.71 482.16 676.91
  A 2.20 2.20 0.0 0 1 484.18 674.94
  C 493.86 674.22 502.36 672.46 510.03 666.24
  C 525.52 653.67 528.01 628.90 526.59 610.34
  C 526.42 608.08 525.86 606.79 523.73 606.05
  Q 499.39 597.56 476.63 609.15
  Q 473.97 610.50 473.55 613.50
  C 472.60 620.17 471.32 634.99 475.27 640.68
  C 480.57 648.32 489.67 657.89 499.26 649.50
  A 0.72 0.72 0.0 0 0 499.20 648.36
  Q 492.27 643.53 488.49 635.98
  Q 488.23 635.47 488.72 635.18
  Z
  M 181.85 634.18
  C 187.68 638.56 195.60 635.03 199.15 629.72
  C 204.08 622.34 206.18 604.26 219.25 606.78
  A 1.19 1.19 0.0 0 0 220.06 604.58
  C 219.10 604.04 217.71 603.47 216.56 603.30
  Q 199.78 600.91 186.30 611.06
  C 179.33 616.30 173.01 627.53 181.85 634.18
  Z
  M 719.27 606.75
  C 722.63 606.59 724.16 606.49 727.14 608.32
  C 731.64 611.08 735.29 618.96 736.97 623.76
  Q 738.65 628.53 739.98 630.22
  C 751.94 645.38 769.88 628.48 756.46 614.80
  Q 741.96 600.02 720.74 603.54
  Q 720.27 603.62 719.78 603.95
  Q 719.29 604.29 718.84 604.43
  A 1.19 1.19 0.0 0 0 719.27 606.75
  Z
  M 314.19 689.56
  C 332.20 703.58 341.89 665.88 343.75 656.75
  C 347.16 639.98 345.03 620.52 334.98 606.21
  Q 334.67 605.77 334.13 605.72
  Q 322.61 604.61 311.80 608.62
  Q 311.19 608.84 311.56 609.37
  C 324.99 628.24 333.65 655.76 325.30 678.43
  C 322.60 685.75 317.73 686.45 310.81 684.72
  Q 309.98 684.52 310.39 685.27
  Q 311.62 687.56 314.19 689.56
  Z
  M 266.30 667.23
  C 274.18 660.07 281.41 648.49 278.82 637.49
  A 0.88 0.88 0.0 0 0 277.15 637.36
  Q 271.36 651.82 257.28 655.38
  C 242.27 659.18 231.57 644.74 233.35 630.84
  C 234.53 621.57 245.17 613.77 253.71 619.04
  Q 257.79 621.55 256.80 626.35
  A 1.60 1.59 4.3 0 1 255.33 627.61
  C 241.21 628.42 243.51 649.06 259.10 646.17
  C 271.42 643.89 279.51 625.33 270.93 615.54
  C 264.95 608.72 249.28 607.94 241.51 609.57
  C 210.88 616.00 203.49 666.36 239.20 673.23
  Q 240.21 673.42 239.37 674.01
  C 226.76 682.73 218.90 697.67 221.46 712.97
  C 225.69 738.16 258.64 751.63 280.23 739.68
  C 292.28 733.00 294.11 713.28 286.11 702.94
  C 278.20 692.72 260.43 687.39 251.59 699.58
  C 245.77 707.61 252.42 714.62 260.28 716.41
  A 1.57 1.57 0.0 0 0 261.80 713.83
  C 252.31 703.18 286.42 699.78 279.86 713.49
  C 274.21 725.31 261.00 727.71 250.59 720.91
  C 240.36 714.23 238.31 701.58 240.64 690.09
  C 242.46 681.13 248.71 673.64 258.52 673.72
  A 0.81 0.80 -10.5 0 1 259.25 674.21
  C 267.42 694.20 297.60 687.35 308.62 674.78
  C 319.98 661.84 320.08 642.55 309.55 628.78
  A 2.05 2.05 0.0 0 0 306.94 628.23
  Q 296.95 633.65 288.70 641.52
  Q 288.29 641.90 288.76 642.21
  Q 297.44 648.00 299.79 656.72
  C 302.03 665.04 296.31 671.69 288.05 671.87
  C 281.42 672.01 277.02 667.97 273.72 662.20
  Q 273.55 661.89 273.27 662.12
  L 266.66 667.64
  A 0.27 0.27 0.0 0 1 266.30 667.23
  Z
  M 577.12 637.19
  C 591.36 626.49 609.50 625.86 626.18 629.95
  Q 626.64 630.07 627.07 629.87
  Q 634.74 626.36 635.83 618.04
  A 1.04 1.04 0.0 0 0 634.94 616.87
  C 616.21 614.43 585.91 616.22 576.19 636.43
  A 0.62 0.62 0.0 0 0 577.12 637.19
  Z
  M 559.52 680.45
  C 560.74 666.48 555.25 655.80 540.85 653.00
  A 0.62 0.62 0.0 0 0 540.32 653.14
  Q 529.62 662.57 524.38 675.82
  Q 524.13 676.44 524.80 676.41
  C 532.06 676.13 545.79 676.90 548.69 685.14
  Q 548.86 685.61 548.64 686.05
  C 542.27 699.13 529.89 708.64 514.85 708.73
  Q 514.34 708.73 514.09 708.29
  C 511.53 703.80 516.14 697.60 519.46 694.73
  Q 519.89 694.36 519.36 694.15
  C 510.94 690.82 500.46 697.94 494.31 703.85
  Q 492.24 705.83 491.66 708.24
  C 489.10 718.74 495.05 729.52 501.57 737.16
  Q 503.03 738.87 505.15 739.53
  C 534.10 748.55 550.38 723.79 556.19 699.92
  Q 556.67 697.94 557.21 699.91
  C 564.08 724.78 596.39 726.99 615.96 717.78
  C 618.60 716.53 620.82 714.43 623.02 712.44
  Q 623.45 712.05 623.68 712.58
  C 629.84 726.31 641.99 725.68 651.23 715.97
  Q 657.41 709.48 660.30 699.45
  Q 670.49 664.10 689.94 632.88
  Q 690.20 632.45 689.73 632.30
  Q 675.67 627.67 660.98 625.96
  A 1.60 1.59 -74.1 0 0 659.34 626.88
  Q 647.17 653.59 641.47 682.79
  C 640.15 689.55 638.35 696.74 634.25 699.90
  A 0.93 0.92 -3.9 0 1 632.88 698.71
  C 636.64 692.17 634.52 688.27 631.34 682.36
  Q 631.09 681.88 631.39 681.43
  C 644.15 662.28 639.79 641.63 615.62 636.70
  Q 595.83 632.67 580.64 647.09
  C 575.72 651.76 574.06 660.33 579.36 665.45
  C 585.63 671.48 595.34 669.86 601.36 664.10
  C 604.26 661.32 610.12 651.22 615.88 653.28
  Q 618.52 654.22 617.86 658.00
  C 616.69 664.64 607.73 667.47 602.07 667.93
  Q 592.52 668.70 585.06 672.77
  C 577.11 677.11 578.41 688.40 581.60 695.12
  C 586.78 706.02 603.03 706.26 610.99 698.79
  C 613.89 696.06 617.16 691.43 616.73 687.15
  Q 616.66 686.42 616.07 686.85
  C 613.87 688.43 607.26 692.41 604.59 690.95
  Q 602.92 690.03 603.46 687.67
  Q 605.37 679.37 614.57 680.86
  C 620.38 681.80 617.26 692.65 615.45 695.45
  C 609.51 704.62 597.02 706.88 586.76 705.24
  C 568.22 702.29 566.69 686.59 572.09 671.67
  Q 572.33 671.03 571.65 671.11
  C 565.64 671.86 562.61 675.58 559.92 680.56
  Q 559.44 681.46 559.52 680.45
  Z
  M 658.50 726.98
  C 659.50 737.17 669.07 744.49 678.94 741.63
  C 685.47 739.74 690.55 733.15 693.07 726.87
  A 0.51 0.51 0.0 0 0 692.47 726.18
  C 688.96 727.04 684.42 727.82 681.85 724.76
  C 673.34 714.63 698.42 680.74 705.10 672.59
  Q 717.84 657.02 732.70 643.51
  A 0.38 0.37 37.2 0 0 732.61 642.89
  C 723.39 638.40 710.76 632.07 700.75 630.59
  Q 700.25 630.52 699.94 630.91
  C 680.71 654.79 666.86 686.03 659.26 715.51
  C 658.24 719.47 658.12 723.09 658.50 726.98
  Z
  M 539.96 642.07
  C 547.60 641.74 550.04 644.70 555.66 648.58
  A 0.87 0.86 -77.6 0 0 557.00 647.72
  C 555.37 638.05 547.34 632.50 538.30 630.73
  A 1.16 1.16 0.0 0 0 536.92 631.96
  Q 537.34 637.06 539.44 641.75
  A 0.54 0.54 0.0 0 0 539.96 642.07
  Z
  M 395.93 658.75
  C 397.20 658.70 398.00 659.52 399.03 660.10
  Q 399.70 660.49 399.44 659.76
  L 394.42 645.36
  A 0.32 0.32 0.0 0 0 393.80 645.51
  L 395.55 658.43
  A 0.36 0.36 0.0 0 0 395.93 658.75
  Z
  M 532.20 646.89
  L 531.19 648.70
  A 0.45 0.45 0.0 0 0 531.92 649.21
  Q 532.73 648.29 532.78 647.06
  Q 532.82 645.78 532.20 646.89
  Z
  M 313.90 697.69
  A 12.45 12.45 0.0 0 0 301.45 685.24
  A 12.45 12.45 0.0 0 0 289.00 697.69
  A 12.45 12.45 0.0 0 0 301.45 710.14
  A 12.45 12.45 0.0 0 0 313.90 697.69
  Z
  M 209.44 746.52
  Q 211.00 732.81 213.16 718.77
  C 213.58 716.07 212.84 713.83 212.72 711.63
  Q 212.41 705.91 211.65 711.58
  L 206.57 749.37
  A 0.56 0.55 4.0 0 0 207.12 750.00
  L 244.69 750.00
  A 0.32 0.32 0.0 0 0 244.76 749.37
  C 241.79 748.64 239.52 747.39 236.40 747.35
  Q 223.43 747.17 210.11 747.27
  Q 209.35 747.28 209.44 746.52
  Z
  M 498.19 747.33
  Q 497.98 747.24 497.75 747.24
  Q 392.37 747.23 286.99 747.27
  C 283.90 747.27 281.65 748.78 278.68 749.55
  A 0.23 0.23 0.0 0 0 278.74 750.00
  L 511.30 749.99
  A 0.41 0.40 6.1 0 0 511.70 749.68
  Q 511.73 749.55 511.78 749.43
  Q 511.81 749.34 511.71 749.33
  Q 505.89 748.82 500.26 747.21
  Q 499.70 747.05 498.90 747.33
  Q 498.54 747.46 498.19 747.33
  Z
  M 526.25 750.00
  L 666.74 750.00
  Q 668.75 750.00 666.87 749.27
  C 663.64 748.01 660.69 747.25 656.97 747.25
  Q 595.19 747.22 533.40 747.29
  C 530.81 747.29 527.88 748.73 526.26 748.88
  Q 514.25 750.00 526.25 750.00
  Z
  M 682.39 750.24
  L 714.11 749.80
  A 0.11 0.11 0.0 0 0 714.22 749.69
  L 714.22 749.68
  A 9.79 2.70 -0.8 0 0 704.39 747.11
  L 692.03 747.29
  A 9.79 2.70 -0.8 0 0 682.28 750.12
  L 682.28 750.13
  A 0.11 0.11 0.0 0 0 682.39 750.24
  Z"
/>
<path fill="none" stroke-width="1.00" stroke="#fbf9e5" vector-effect="non-scaling-stroke" d="
  M 398.92 153.72
  C 395.14 162.38 392.07 174.12 394.16 183.52
  Q 394.28 184.04 393.89 184.40
  Q 382.35 195.03 374.88 208.85
  Q 374.61 209.35 374.06 209.22
  C 364.31 206.91 354.35 201.28 354.76 189.73
  C 355.44 170.56 377.48 155.06 392.90 148.00
  A 0.09 0.08 28.1 0 0 392.85 147.84
  Q 383.74 149.09 375.77 153.69
  Q 374.67 154.33 374.83 153.07
  C 377.72 130.00 395.97 117.50 417.39 113.58
  C 436.63 110.06 455.71 120.39 466.32 135.92
  Q 470.86 142.56 472.49 144.48
  C 487.91 162.58 508.90 179.88 531.77 187.60
  C 538.81 189.97 555.84 191.01 553.15 202.41
  C 551.30 210.29 546.22 220.05 540.98 226.42
  Q 524.44 246.51 496.49 243.74
  Q 495.98 243.68 495.89 243.18
  Q 494.29 233.62 496.74 224.29
  A 1.12 1.12 0.0 0 1 498.03 223.47
  Q 508.12 225.35 516.42 231.40
  Q 516.96 231.80 516.88 231.13
  C 515.60 220.85 506.19 213.64 496.47 211.90
  Q 482.46 209.38 468.61 212.33
  A 0.20 0.19 -45.6 0 0 468.61 212.71
  Q 479.29 214.59 488.84 219.71
  Q 489.36 219.99 489.12 220.53
  C 483.34 233.35 483.09 245.90 485.07 259.77
  Q 485.17 260.44 484.57 260.12
  C 452.34 242.47 415.09 230.96 378.47 227.95
  A 0.59 0.59 0.0 0 1 377.99 227.09
  C 383.88 215.31 388.84 204.97 398.06 195.26
  Q 398.46 194.84 398.81 195.30
  C 412.89 214.14 432.11 220.40 454.80 213.13
  Q 463.99 210.18 454.51 211.97
  C 438.79 214.95 419.20 208.62 410.02 194.48
  C 401.76 181.76 399.93 168.73 399.36 153.81
  Q 399.32 152.81 398.92 153.72
  Z"
/>
<path fill="none" stroke-width="1.00" stroke="#461212" vector-effect="non-scaling-stroke" d="
  M 318.22 180.00
  Q 318.57 176.95 318.71 180.02
  Q 320.23 211.95 313.63 244.93
  C 311.62 254.95 306.58 266.17 300.36 274.25
  C 296.78 278.89 291.66 282.35 286.97 286.19
  C 275.16 295.84 256.46 314.36 254.69 328.95
  A 0.09 0.09 0.0 0 1 254.57 329.02
  Q 254.44 328.98 254.31 328.94
  Q 254.27 328.93 254.28 328.79
  C 255.83 305.11 264.02 276.42 279.87 258.24
  C 299.08 236.23 314.89 209.65 318.22 180.00
  Z"
/>
<path fill="none" stroke-width="1.00" stroke="#fbf9e5" vector-effect="non-scaling-stroke" d="
  M 509.31 514.29
  C 516.82 521.01 527.89 526.73 538.37 526.92
  C 554.33 527.22 564.62 513.75 571.04 500.80
  Q 571.27 500.34 571.78 500.44
  Q 595.79 505.30 610.35 486.33
  A 0.15 0.14 -27.0 0 1 610.61 486.41
  C 611.27 539.53 594.36 591.73 556.96 629.83
  Q 556.59 630.20 556.18 629.87
  Q 547.34 622.79 535.91 621.93
  Q 535.38 621.89 535.40 621.36
  C 535.93 609.21 536.22 600.64 523.60 596.95
  C 505.77 591.75 487.49 593.22 471.02 602.22
  C 461.93 607.19 464.15 629.85 465.07 637.71
  Q 465.63 642.48 468.83 646.10
  Q 469.22 646.54 468.68 646.78
  C 460.20 650.63 457.66 658.11 456.61 666.67
  A 0.04 0.03 -49.8 0 1 456.54 666.68
  C 452.95 652.10 452.99 638.87 452.98 623.75
  Q 452.97 614.99 455.00 604.74
  Q 455.76 600.87 455.05 598.63
  C 452.25 589.81 444.27 593.34 437.69 593.88
  Q 429.13 594.58 417.28 595.00
  C 414.55 595.10 412.30 596.54 409.43 595.64
  C 405.94 594.56 402.43 595.30 398.72 594.35
  A 0.56 0.56 0.0 0 1 398.30 593.76
  L 403.61 535.43
  A 1.27 1.26 -19.8 0 1 403.99 534.63
  C 420.64 518.50 420.42 498.27 403.92 482.21
  Q 403.55 481.86 403.49 481.35
  Q 395.92 415.94 382.83 351.44
  C 375.03 313.01 365.57 273.71 348.88 238.06
  Q 348.64 237.54 349.21 237.53
  C 404.42 235.70 459.61 252.19 504.10 285.04
  C 505.02 285.72 506.85 286.22 506.56 288.01
  Q 505.35 295.31 505.88 301.55
  A 1.98 1.98 0.0 0 0 509.13 302.90
  Q 513.63 299.08 519.53 297.94
  Q 520.07 297.84 520.47 298.21
  C 547.29 323.22 571.14 353.29 584.95 387.56
  Q 585.23 388.25 584.49 388.25
  L 579.04 388.25
  Q 578.44 388.25 578.95 388.58
  Q 593.00 397.62 601.44 412.04
  A 0.47 0.46 72.5 0 1 601.08 412.74
  C 593.13 413.46 590.36 417.52 587.08 424.89
  Q 583.86 432.10 580.01 439.22
  A 0.95 0.95 0.0 0 1 578.64 439.55
  C 558.74 425.90 539.83 435.26 532.92 456.60
  A 0.31 0.31 0.0 0 1 532.32 456.56
  C 528.20 433.75 506.77 431.49 487.88 437.34
  C 474.79 441.39 461.79 446.95 450.69 455.11
  C 442.91 460.82 430.14 463.66 421.70 457.71
  C 415.38 453.26 412.08 444.31 410.97 436.76
  Q 410.85 435.89 410.35 436.62
  C 400.86 450.61 409.15 471.42 418.75 483.12
  C 439.97 508.97 477.49 514.10 507.75 502.27
  Q 516.40 498.89 522.34 490.84
  Q 522.69 490.36 522.99 490.87
  C 527.06 497.69 534.11 503.97 542.01 497.39
  Q 542.43 497.04 542.96 497.19
  Q 551.17 499.52 559.71 498.92
  Q 560.40 498.87 560.09 499.50
  C 549.35 520.96 529.82 524.49 509.55 513.93
  A 0.22 0.22 0.0 0 0 509.31 514.29
  Z
  M 407.1998 267.5044
  A 12.30 11.08 0.3 0 0 394.9580 256.3602
  A 12.30 11.08 0.3 0 0 382.6002 267.3756
  A 12.30 11.08 0.3 0 0 394.8420 278.5198
  A 12.30 11.08 0.3 0 0 407.1998 267.5044
  Z
  M 413.44 314.43
  C 426.99 301.16 444.65 291.57 463.63 302.30
  C 465.03 303.09 466.62 303.23 468.05 302.97
  Q 469.36 302.73 469.44 301.40
  Q 470.00 291.49 466.55 282.18
  A 2.32 2.29 -87.9 0 0 465.36 280.88
  C 444.09 270.81 421.52 299.47 411.76 313.91
  A 0.69 0.69 0.0 0 0 412.36 314.99
  Q 412.89 314.97 413.44 314.43
  Z
  M 498.2795 303.1063
  A 5.28 4.74 -0.8 0 0 492.9338 298.4405
  A 5.28 4.74 -0.8 0 0 487.7205 303.2537
  A 5.28 4.74 -0.8 0 0 493.0662 307.9195
  A 5.28 4.74 -0.8 0 0 498.2795 303.1063
  Z
  M 474.40 400.59
  C 472.18 383.21 469.66 367.35 463.65 350.76
  Q 463.42 350.12 464.02 350.44
  C 469.36 353.29 473.04 358.90 476.13 363.79
  A 0.37 0.37 0.0 0 0 476.81 363.50
  Q 475.03 356.42 471.75 350.13
  C 467.65 342.30 476.17 333.63 481.96 328.33
  Q 482.55 327.79 481.75 327.84
  C 435.79 331.14 411.81 361.41 418.54 406.90
  Q 418.61 407.37 418.22 407.64
  Q 409.75 413.51 414.31 423.01
  A 0.74 0.73 60.1 0 0 415.38 423.30
  Q 445.29 403.34 480.68 413.62
  Q 484.44 414.71 492.71 417.91
  Q 493.42 418.18 493.06 417.51
  C 489.45 410.79 481.13 405.01 474.90 401.35
  Q 474.47 401.09 474.40 400.59
  Z
  M 531.48 364.97
  Q 525.81 376.86 529.55 389.52
  Q 529.74 390.17 530.22 389.69
  Q 531.26 388.66 531.01 387.00
  Q 529.19 375.02 532.11 365.21
  Q 533.37 361.00 531.48 364.97
  Z
  M 539.85 404.23
  C 548.38 391.38 559.51 385.84 574.88 390.84
  Q 575.35 390.99 575.27 390.51
  C 574.15 383.69 566.87 370.58 558.00 373.47
  Q 539.07 379.64 534.36 398.67
  C 532.87 404.72 533.58 409.49 537.89 413.83
  Q 538.35 414.29 538.15 413.67
  C 536.44 408.37 537.03 408.47 539.85 404.23
  Z
  M 584.9095 413.7368
  A 9.24 8.24 0.6 0 0 575.7563 405.4005
  A 9.24 8.24 0.6 0 0 566.4305 413.5432
  A 9.24 8.24 0.6 0 0 575.5837 421.8795
  A 9.24 8.24 0.6 0 0 584.9095 413.7368
  Z
  M 459.1700 431.9620
  A 5.15 4.81 -0.2 0 0 454.0032 427.1700
  A 5.15 4.81 -0.2 0 0 448.8700 431.9980
  A 5.15 4.81 -0.2 0 0 454.0368 436.7900
  A 5.15 4.81 -0.2 0 0 459.1700 431.9620
  Z
  M 444.2193 438.7525
  A 9.21 8.24 0.7 0 0 435.1107 430.4006
  A 9.21 8.24 0.7 0 0 425.8007 438.5275
  A 9.21 8.24 0.7 0 0 434.9093 446.8794
  A 9.21 8.24 0.7 0 0 444.2193 438.7525
  Z
  M 580.92 545.34
  A 12.26 10.98 0.0 0 0 568.66 534.36
  A 12.26 10.98 0.0 0 0 556.40 545.34
  A 12.26 10.98 0.0 0 0 568.66 556.32
  A 12.26 10.98 0.0 0 0 580.92 545.34
  Z
  M 467.0197 551.4543
  A 12.28 11.07 -0.4 0 0 454.6627 540.4703
  A 12.28 11.07 -0.4 0 0 442.4603 551.6257
  A 12.28 11.07 -0.4 0 0 454.8173 562.6097
  A 12.28 11.07 -0.4 0 0 467.0197 551.4543
  Z"
/>
<path fill="none" stroke-width="1.00" stroke="#461212" vector-effect="non-scaling-stroke" d="
  M 628.19 315.31
  Q 622.23 310.76 618.03 303.62
  C 608.62 287.62 615.42 274.57 628.58 264.24
  C 632.81 260.93 638.12 258.27 643.11 255.60
  A 0.12 0.12 0.0 0 1 643.25 255.80
  C 631.79 266.35 623.07 278.65 628.40 295.09
  C 631.11 303.41 636.77 309.76 643.28 316.97
  C 647.08 321.17 649.28 328.40 646.42 334.01
  A 0.49 0.48 -41.0 0 1 645.53 333.95
  C 643.35 327.71 633.41 319.31 628.19 315.31
  Z"
/>
<ellipse fill="none" stroke-width="1.00" stroke="#461212" vector-effect="non-scaling-stroke" cx="0.00" cy="0.00" transform="translate(394.90,267.44) rotate(0.3)" rx="12.30" ry="11.08"/>
<path fill="none" stroke-width="1.00" stroke="#461212" vector-effect="non-scaling-stroke" d="
  M 463.63 302.30
  C 444.65 291.57 426.99 301.16 413.44 314.43
  Q 412.89 314.97 412.36 314.99
  A 0.69 0.69 0.0 0 1 411.76 313.91
  C 421.52 299.47 444.09 270.81 465.36 280.88
  A 2.32 2.29 -87.9 0 1 466.55 282.18
  Q 470.00 291.49 469.44 301.40
  Q 469.36 302.73 468.05 302.97
  C 466.62 303.23 465.03 303.09 463.63 302.30
  Z"
/>
<ellipse fill="none" stroke-width="1.00" stroke="#461212" vector-effect="non-scaling-stroke" cx="0.00" cy="0.00" transform="translate(493.00,303.18) rotate(-0.8)" rx="5.28" ry="4.74"/>
<path fill="none" stroke-width="1.00" stroke="#fbf9e5" vector-effect="non-scaling-stroke" d="
  M 353.85 415.01
  Q 342.82 417.06 333.83 411.19
  C 331.99 409.99 331.87 407.66 331.21 406.29
  Q 329.49 402.66 327.34 399.29
  C 326.11 397.38 323.62 396.14 323.37 393.51
  Q 321.35 372.62 339.88 363.63
  Q 340.37 363.40 340.01 363.00
  C 322.38 343.42 338.70 310.15 365.70 318.82
  A 0.74 0.74 0.0 0 1 366.20 319.37
  L 379.66 384.66
  Q 379.86 385.61 378.92 385.36
  Q 369.39 382.84 360.52 386.91
  A 0.54 0.54 0.0 0 0 360.72 387.94
  C 366.79 388.21 380.09 389.99 381.67 397.41
  C 384.33 410.01 385.63 423.25 387.76 436.00
  Q 387.86 436.59 387.26 436.60
  Q 368.21 436.80 356.10 451.07
  Q 355.48 451.80 354.90 451.03
  Q 341.57 433.51 354.06 415.32
  Q 354.34 414.92 353.85 415.01
  Z"
/>
<path fill="none" stroke-width="1.00" stroke="#461212" vector-effect="non-scaling-stroke" d="
  M 474.90 401.35
  C 481.13 405.01 489.45 410.79 493.06 417.51
  Q 493.42 418.18 492.71 417.91
  Q 484.44 414.71 480.68 413.62
  Q 445.29 403.34 415.38 423.30
  A 0.74 0.73 60.1 0 1 414.31 423.01
  Q 409.75 413.51 418.22 407.64
  Q 418.61 407.37 418.54 406.90
  C 411.81 361.41 435.79 331.14 481.75 327.84
  Q 482.55 327.79 481.96 328.33
  C 476.17 333.63 467.65 342.30 471.75 350.13
  Q 475.03 356.42 476.81 363.50
  A 0.37 0.37 0.0 0 1 476.13 363.79
  C 473.04 358.90 469.36 353.29 464.02 350.44
  Q 463.42 350.12 463.65 350.76
  C 469.66 367.35 472.18 383.21 474.40 400.59
  Q 474.47 401.09 474.90 401.35
  Z
  M 451.13 372.71
  L 447.02 382.41
  A 0.63 0.63 0.0 0 0 447.46 383.27
  L 455.86 385.24
  Q 456.29 385.34 456.45 385.75
  Q 458.84 391.91 458.33 398.47
  Q 458.30 398.92 458.74 398.97
  C 465.24 399.79 464.53 392.73 464.19 388.75
  C 463.06 375.64 459.31 359.77 450.90 349.27
  Q 450.57 348.86 450.04 348.93
  C 438.23 350.64 430.53 361.01 425.47 371.18
  A 0.15 0.14 78.0 0 0 425.71 371.34
  C 432.46 362.69 444.59 362.28 451.03 371.75
  Q 451.34 372.20 451.13 372.71
  Z"
/>
<path fill="none" stroke-width="1.00" stroke="#fbf9e5" vector-effect="non-scaling-stroke" d="
  M 451.03 371.75
  C 444.59 362.28 432.46 362.69 425.71 371.34
  A 0.15 0.14 78.0 0 1 425.47 371.18
  C 430.53 361.01 438.23 350.64 450.04 348.93
  Q 450.57 348.86 450.90 349.27
  C 459.31 359.77 463.06 375.64 464.19 388.75
  C 464.53 392.73 465.24 399.79 458.74 398.97
  Q 458.30 398.92 458.33 398.47
  Q 458.84 391.91 456.45 385.75
  Q 456.29 385.34 455.86 385.24
  L 447.46 383.27
  A 0.63 0.63 0.0 0 1 447.02 382.41
  L 451.13 372.71
  Q 451.34 372.20 451.03 371.75
  Z"
/>
<path fill="none" stroke-width="1.00" stroke="#461212" vector-effect="non-scaling-stroke" d="
  M 531.48 364.97
  Q 533.37 361.00 532.11 365.21
  Q 529.19 375.02 531.01 387.00
  Q 531.26 388.66 530.22 389.69
  Q 529.74 390.17 529.55 389.52
  Q 525.81 376.86 531.48 364.97
  Z"
/>
<path fill="none" stroke-width="1.00" stroke="#461212" vector-effect="non-scaling-stroke" d="
  M 574.88 390.84
  C 559.51 385.84 548.38 391.38 539.85 404.23
  C 537.03 408.47 536.44 408.37 538.15 413.67
  Q 538.35 414.29 537.89 413.83
  C 533.58 409.49 532.87 404.72 534.36 398.67
  Q 539.07 379.64 558.00 373.47
  C 566.87 370.58 574.15 383.69 575.27 390.51
  Q 575.35 390.99 574.88 390.84
  Z"
/>
<ellipse fill="none" stroke-width="1.00" stroke="#461212" vector-effect="non-scaling-stroke" cx="0.00" cy="0.00" transform="translate(575.67,413.64) rotate(0.6)" rx="9.24" ry="8.24"/>
<path fill="none" stroke-width="1.00" stroke="#fbf9e5" vector-effect="non-scaling-stroke" d="
  M 606.09 426.04
  A 1.65 1.65 0.0 0 0 605.31 429.11
  Q 609.95 431.84 615.41 431.26
  A 1.32 1.32 0.0 0 0 616.41 429.29
  Q 615.44 427.61 613.63 426.80
  A 0.65 0.65 0.0 0 1 613.28 426.01
  L 614.11 423.34
  Q 614.29 422.75 614.87 422.98
  Q 620.57 425.28 623.02 430.93
  Q 623.23 431.41 623.04 431.89
  C 609.06 467.63 582.96 496.83 540.00 486.08
  A 0.65 0.64 -66.3 0 1 539.62 485.10
  C 541.05 482.97 542.43 481.31 545.01 480.39
  C 550.96 478.27 556.71 476.57 562.08 473.11
  C 578.19 462.73 589.84 445.23 596.45 427.52
  C 598.40 422.31 604.87 421.95 609.43 422.02
  A 0.61 0.60 -85.8 0 1 610.02 422.71
  L 609.68 425.32
  Q 609.60 425.92 608.99 425.94
  L 606.09 426.04
  Z"
/>
<path fill="none" stroke-width="1.00" stroke="#fbf9e5" vector-effect="non-scaling-stroke" d="
  M 344.82 484.37
  Q 343.84 483.93 343.33 483.17
  C 331.72 465.65 330.69 444.08 333.05 423.45
  A 0.48 0.47 11.3 0 1 333.66 423.05
  L 338.75 424.50
  Q 339.23 424.64 339.15 425.14
  Q 335.80 445.95 350.13 460.75
  Q 350.51 461.15 350.32 461.66
  Q 346.52 471.75 347.43 482.52
  A 1.86 1.85 -80.3 0 1 344.82 484.37
  Z"
/>
<ellipse fill="none" stroke-width="1.00" stroke="#461212" vector-effect="non-scaling-stroke" cx="0.00" cy="0.00" transform="translate(454.02,431.98) rotate(-0.2)" rx="5.15" ry="4.81"/>
<ellipse fill="none" stroke-width="1.00" stroke="#461212" vector-effect="non-scaling-stroke" cx="0.00" cy="0.00" transform="translate(435.01,438.64) rotate(0.7)" rx="9.21" ry="8.24"/>
<path fill="none" stroke-width="1.00" stroke="#fbf9e5" vector-effect="non-scaling-stroke" d="
  M 382.42 509.62
  L 391.10 522.07
  A 0.52 0.52 0.0 0 1 390.73 522.89
  C 382.00 523.89 370.80 527.20 364.26 532.14
  A 0.30 0.30 0.0 0 0 364.48 532.68
  Q 379.12 530.57 393.88 531.47
  Q 394.28 531.49 394.24 531.89
  L 388.80 591.33
  Q 388.75 591.90 388.17 591.95
  C 378.57 592.82 376.85 601.40 380.98 608.68
  A 0.45 0.45 0.0 0 1 380.70 609.34
  Q 357.89 615.44 345.94 595.83
  Q 342.84 590.75 342.28 583.94
  Q 340.67 564.46 356.37 553.92
  A 0.45 0.45 0.0 0 0 356.15 553.09
  C 336.25 551.55 325.93 528.30 332.57 511.37
  C 337.08 499.88 346.57 492.62 359.44 492.09
  A 0.48 0.48 0.0 0 0 359.86 491.44
  Q 352.33 472.41 363.77 458.08
  C 370.16 450.07 378.63 446.30 388.78 447.20
  Q 389.30 447.25 389.37 447.76
  Q 391.89 465.00 394.02 482.24
  C 394.86 489.10 400.87 492.73 404.12 498.53
  Q 410.78 510.44 402.09 521.37
  C 400.82 522.98 399.38 523.10 397.58 522.50
  A 1.53 1.52 83.9 0 1 396.75 521.83
  Q 391.74 513.33 382.82 509.15
  Q 381.74 508.65 382.42 509.62
  Z"
/>
<ellipse fill="none" stroke-width="1.00" stroke="#461212" vector-effect="non-scaling-stroke" cx="568.66" cy="545.34" rx="12.26" ry="10.98"/>
<ellipse fill="none" stroke-width="1.00" stroke="#461212" vector-effect="non-scaling-stroke" cx="0.00" cy="0.00" transform="translate(454.74,551.54) rotate(-0.4)" rx="12.28" ry="11.07"/>
<path fill="none" stroke-width="1.00" stroke="#fbf9e5" vector-effect="non-scaling-stroke" d="
  M 201.46 592.77
  C 190.51 596.38 184.39 581.13 195.34 577.32
  C 206.07 573.60 219.41 584.28 225.56 592.30
  Q 226.50 593.52 225.32 594.52
  C 224.55 595.18 223.34 595.10 222.39 594.59
  Q 212.24 589.23 201.46 592.77
  Z"
/>
<path fill="none" stroke-width="1.00" stroke="#fbf9e5" vector-effect="non-scaling-stroke" d="
  M 713.34 594.45
  A 1.11 1.11 0.0 0 1 712.82 592.77
  C 718.80 584.30 734.72 571.89 745.41 578.30
  C 752.41 582.49 748.92 591.98 741.78 593.34
  Q 740.00 593.68 736.85 592.70
  Q 725.90 589.31 715.64 594.94
  A 0.99 0.97 -48.5 0 1 714.80 595.00
  L 713.34 594.45
  Z"
/>
<path fill="none" stroke-width="1.00" stroke="#fbf9e5" vector-effect="non-scaling-stroke" d="
  M 706.48 622.99
  A 0.90 0.88 0.2 0 1 705.91 622.43
  L 700.70 606.68
  Q 700.54 606.19 700.90 605.81
  L 706.09 600.32
  Q 706.41 599.99 706.77 600.26
  L 709.47 602.32
  Q 709.88 602.63 709.84 603.15
  Q 708.87 615.22 720.49 615.31
  C 722.99 615.33 723.40 615.99 724.56 617.95
  C 727.83 623.46 728.39 627.48 730.88 631.84
  A 0.35 0.35 0.0 0 1 730.43 632.33
  Q 718.77 626.85 706.48 622.99
  Z"
/>
<path fill="none" stroke-width="1.00" stroke="#fbf9e5" vector-effect="non-scaling-stroke" d="
  M 388.81 670.83
  L 392.54 666.89
  A 0.76 0.76 0.0 0 1 393.79 667.10
  Q 396.87 674.08 404.77 672.73
  C 414.00 671.14 407.34 656.41 405.59 651.40
  Q 396.76 626.20 387.18 601.82
  A 1.06 1.05 88.0 0 1 388.48 600.42
  Q 397.40 603.24 406.74 603.88
  Q 407.30 603.92 407.46 604.46
  Q 416.03 632.82 424.75 661.29
  C 427.92 671.62 430.45 681.41 426.67 690.91
  C 424.07 697.42 417.19 701.87 410.21 701.20
  C 401.33 700.34 393.46 691.35 389.77 683.62
  A 0.52 0.52 0.0 0 0 388.78 683.83
  C 388.23 711.44 373.56 734.65 342.17 729.45
  Q 341.69 729.37 341.32 729.04
  Q 329.52 718.52 326.24 703.02
  C 325.84 701.12 325.78 699.87 326.81 698.11
  Q 334.74 684.64 350.51 683.03
  A 0.53 0.53 0.0 0 1 351.01 683.84
  C 348.23 688.13 343.72 696.97 345.81 702.05
  A 0.95 0.95 0.0 0 0 346.58 702.62
  C 363.36 704.35 374.55 686.71 379.77 673.49
  Q 379.95 673.04 379.70 672.62
  C 375.11 664.92 362.38 665.14 354.76 666.00
  A 0.41 0.41 0.0 0 1 354.33 665.45
  Q 358.83 653.30 365.98 642.52
  Q 366.22 642.15 366.67 642.17
  C 382.39 642.93 388.29 656.90 388.46 670.69
  Q 388.46 671.20 388.81 670.83
  Z"
/>
<path fill="none" stroke-width="1.00" stroke="#fbf9e5" vector-effect="non-scaling-stroke" d="
  M 462.49 706.58
  C 447.82 704.07 441.06 692.32 437.07 679.36
  Q 426.57 645.23 416.26 611.04
  Q 415.05 607.04 415.12 604.55
  A 0.78 0.77 88.3 0 1 415.82 603.80
  C 426.24 602.88 436.07 602.86 446.46 601.04
  Q 447.05 600.94 446.94 601.53
  C 440.64 636.56 443.54 675.26 465.48 704.45
  A 1.16 1.15 -44.1 0 1 465.45 705.86
  Q 464.57 706.94 462.49 706.58
  Z"
/>
<path fill="none" stroke-width="1.00" stroke="#fbf9e5" vector-effect="non-scaling-stroke" d="
  M 488.49 635.98
  Q 492.27 643.53 499.20 648.36
  A 0.72 0.72 0.0 0 1 499.26 649.50
  C 489.67 657.89 480.57 648.32 475.27 640.68
  C 471.32 634.99 472.60 620.17 473.55 613.50
  Q 473.97 610.50 476.63 609.15
  Q 499.39 597.56 523.73 606.05
  C 525.86 606.79 526.42 608.08 526.59 610.34
  C 528.01 628.90 525.52 653.67 510.03 666.24
  C 502.36 672.46 493.86 674.22 484.18 674.94
  A 2.20 2.20 0.0 0 0 482.16 676.91
  C 480.24 695.71 481.68 716.06 489.96 733.47
  A 0.25 0.25 0.0 0 1 489.54 733.74
  C 474.15 715.85 469.38 690.74 465.90 668.19
  C 464.91 661.78 468.00 653.57 475.92 654.73
  C 493.04 657.24 509.64 651.23 508.34 630.82
  Q 508.31 630.26 507.75 630.24
  Q 497.47 629.85 488.72 635.18
  Q 488.23 635.47 488.49 635.98
  Z"
/>
<path fill="none" stroke-width="1.00" stroke="#fbf9e5" vector-effect="non-scaling-stroke" d="
  M 181.85 634.18
  C 173.01 627.53 179.33 616.30 186.30 611.06
  Q 199.78 600.91 216.56 603.30
  C 217.71 603.47 219.10 604.04 220.06 604.58
  A 1.19 1.19 0.0 0 1 219.25 606.78
  C 206.18 604.26 204.08 622.34 199.15 629.72
  C 195.60 635.03 187.68 638.56 181.85 634.18
  Z"
/>
<path fill="none" stroke-width="1.00" stroke="#fbf9e5" vector-effect="non-scaling-stroke" d="
  M 727.14 608.32
  C 724.16 606.49 722.63 606.59 719.27 606.75
  A 1.19 1.19 0.0 0 1 718.84 604.43
  Q 719.29 604.29 719.78 603.95
  Q 720.27 603.62 720.74 603.54
  Q 741.96 600.02 756.46 614.80
  C 769.88 628.48 751.94 645.38 739.98 630.22
  Q 738.65 628.53 736.97 623.76
  C 735.29 618.96 731.64 611.08 727.14 608.32
  Z"
/>
<path fill="none" stroke-width="1.00" stroke="#fbf9e5" vector-effect="non-scaling-stroke" d="
  M 314.19 689.56
  Q 311.62 687.56 310.39 685.27
  Q 309.98 684.52 310.81 684.72
  C 317.73 686.45 322.60 685.75 325.30 678.43
  C 333.65 655.76 324.99 628.24 311.56 609.37
  Q 311.19 608.84 311.80 608.62
  Q 322.61 604.61 334.13 605.72
  Q 334.67 605.77 334.98 606.21
  C 345.03 620.52 347.16 639.98 343.75 656.75
  C 341.89 665.88 332.20 703.58 314.19 689.56
  Z"
/>
<path fill="none" stroke-width="1.00" stroke="#fbf9e5" vector-effect="non-scaling-stroke" d="
  M 266.66 667.64
  L 273.27 662.12
  Q 273.55 661.89 273.72 662.20
  C 277.02 667.97 281.42 672.01 288.05 671.87
  C 296.31 671.69 302.03 665.04 299.79 656.72
  Q 297.44 648.00 288.76 642.21
  Q 288.29 641.90 288.70 641.52
  Q 296.95 633.65 306.94 628.23
  A 2.05 2.05 0.0 0 1 309.55 628.78
  C 320.08 642.55 319.98 661.84 308.62 674.78
  C 297.60 687.35 267.42 694.20 259.25 674.21
  A 0.81 0.80 -10.5 0 0 258.52 673.72
  C 248.71 673.64 242.46 681.13 240.64 690.09
  C 238.31 701.58 240.36 714.23 250.59 720.91
  C 261.00 727.71 274.21 725.31 279.86 713.49
  C 286.42 699.78 252.31 703.18 261.80 713.83
  A 1.57 1.57 0.0 0 1 260.28 716.41
  C 252.42 714.62 245.77 707.61 251.59 699.58
  C 260.43 687.39 278.20 692.72 286.11 702.94
  C 294.11 713.28 292.28 733.00 280.23 739.68
  C 258.64 751.63 225.69 738.16 221.46 712.97
  C 218.90 697.67 226.76 682.73 239.37 674.01
  Q 240.21 673.42 239.20 673.23
  C 203.49 666.36 210.88 616.00 241.51 609.57
  C 249.28 607.94 264.95 608.72 270.93 615.54
  C 279.51 625.33 271.42 643.89 259.10 646.17
  C 243.51 649.06 241.21 628.42 255.33 627.61
  A 1.60 1.59 4.3 0 0 256.80 626.35
  Q 257.79 621.55 253.71 619.04
  C 245.17 613.77 234.53 621.57 233.35 630.84
  C 231.57 644.74 242.27 659.18 257.28 655.38
  Q 271.36 651.82 277.15 637.36
  A 0.88 0.88 0.0 0 1 278.82 637.49
  C 281.41 648.49 274.18 660.07 266.30 667.23
  A 0.27 0.27 0.0 0 0 266.66 667.64
  Z"
/>
<path fill="none" stroke-width="1.00" stroke="#fbf9e5" vector-effect="non-scaling-stroke" d="
  M 626.18 629.95
  C 609.50 625.86 591.36 626.49 577.12 637.19
  A 0.62 0.62 0.0 0 1 576.19 636.43
  C 585.91 616.22 616.21 614.43 634.94 616.87
  A 1.04 1.04 0.0 0 1 635.83 618.04
  Q 634.74 626.36 627.07 629.87
  Q 626.64 630.07 626.18 629.95
  Z"
/>
<path fill="none" stroke-width="1.00" stroke="#fbf9e5" vector-effect="non-scaling-stroke" d="
  M 559.92 680.56
  C 562.61 675.58 565.64 671.86 571.65 671.11
  Q 572.33 671.03 572.09 671.67
  C 566.69 686.59 568.22 702.29 586.76 705.24
  C 597.02 706.88 609.51 704.62 615.45 695.45
  C 617.26 692.65 620.38 681.80 614.57 680.86
  Q 605.37 679.37 603.46 687.67
  Q 602.92 690.03 604.59 690.95
  C 607.26 692.41 613.87 688.43 616.07 686.85
  Q 616.66 686.42 616.73 687.15
  C 617.16 691.43 613.89 696.06 610.99 698.79
  C 603.03 706.26 586.78 706.02 581.60 695.12
  C 578.41 688.40 577.11 677.11 585.06 672.77
  Q 592.52 668.70 602.07 667.93
  C 607.73 667.47 616.69 664.64 617.86 658.00
  Q 618.52 654.22 615.88 653.28
  C 610.12 651.22 604.26 661.32 601.36 664.10
  C 595.34 669.86 585.63 671.48 579.36 665.45
  C 574.06 660.33 575.72 651.76 580.64 647.09
  Q 595.83 632.67 615.62 636.70
  C 639.79 641.63 644.15 662.28 631.39 681.43
  Q 631.09 681.88 631.34 682.36
  C 634.52 688.27 636.64 692.17 632.88 698.71
  A 0.93 0.92 -3.9 0 0 634.25 699.90
  C 638.35 696.74 640.15 689.55 641.47 682.79
  Q 647.17 653.59 659.34 626.88
  A 1.60 1.59 -74.1 0 1 660.98 625.96
  Q 675.67 627.67 689.73 632.30
  Q 690.20 632.45 689.94 632.88
  Q 670.49 664.10 660.30 699.45
  Q 657.41 709.48 651.23 715.97
  C 641.99 725.68 629.84 726.31 623.68 712.58
  Q 623.45 712.05 623.02 712.44
  C 620.82 714.43 618.60 716.53 615.96 717.78
  C 596.39 726.99 564.08 724.78 557.21 699.91
  Q 556.67 697.94 556.19 699.92
  C 550.38 723.79 534.10 748.55 505.15 739.53
  Q 503.03 738.87 501.57 737.16
  C 495.05 729.52 489.10 718.74 491.66 708.24
  Q 492.24 705.83 494.31 703.85
  C 500.46 697.94 510.94 690.82 519.36 694.15
  Q 519.89 694.36 519.46 694.73
  C 516.14 697.60 511.53 703.80 514.09 708.29
  Q 514.34 708.73 514.85 708.73
  C 529.89 708.64 542.27 699.13 548.64 686.05
  Q 548.86 685.61 548.69 685.14
  C 545.79 676.90 532.06 676.13 524.80 676.41
  Q 524.13 676.44 524.38 675.82
  Q 529.62 662.57 540.32 653.14
  A 0.62 0.62 0.0 0 1 540.85 653.00
  C 555.25 655.80 560.74 666.48 559.52 680.45
  Q 559.44 681.46 559.92 680.56
  Z"
/>
<path fill="none" stroke-width="1.00" stroke="#fbf9e5" vector-effect="non-scaling-stroke" d="
  M 678.94 741.63
  C 669.07 744.49 659.50 737.17 658.50 726.98
  C 658.12 723.09 658.24 719.47 659.26 715.51
  C 666.86 686.03 680.71 654.79 699.94 630.91
  Q 700.25 630.52 700.75 630.59
  C 710.76 632.07 723.39 638.40 732.61 642.89
  A 0.38 0.37 37.2 0 1 732.70 643.51
  Q 717.84 657.02 705.10 672.59
  C 698.42 680.74 673.34 714.63 681.85 724.76
  C 684.42 727.82 688.96 727.04 692.47 726.18
  A 0.51 0.51 0.0 0 1 693.07 726.87
  C 690.55 733.15 685.47 739.74 678.94 741.63
  Z"
/>
<path fill="none" stroke-width="1.00" stroke="#fbf9e5" vector-effect="non-scaling-stroke" d="
  M 539.96 642.07
  A 0.54 0.54 0.0 0 1 539.44 641.75
  Q 537.34 637.06 536.92 631.96
  A 1.16 1.16 0.0 0 1 538.30 630.73
  C 547.34 632.50 555.37 638.05 557.00 647.72
  A 0.87 0.86 -77.6 0 1 555.66 648.58
  C 550.04 644.70 547.60 641.74 539.96 642.07
  Z"
/>
<path fill="none" stroke-width="1.00" stroke="#fbf9e5" vector-effect="non-scaling-stroke" d="
  M 399.03 660.10
  C 398.00 659.52 397.20 658.70 395.93 658.75
  A 0.36 0.36 0.0 0 1 395.55 658.43
  L 393.80 645.51
  A 0.32 0.32 0.0 0 1 394.42 645.36
  L 399.44 659.76
  Q 399.70 660.49 399.03 660.10
  Z"
/>
<path fill="none" stroke-width="1.00" stroke="#fbf9e5" vector-effect="non-scaling-stroke" d="
  M 532.20 646.89
  Q 532.82 645.78 532.78 647.06
  Q 532.73 648.29 531.92 649.21
  A 0.45 0.45 0.0 0 1 531.19 648.70
  L 532.20 646.89
  Z"
/>
<circle fill="none" stroke-width="1.00" stroke="#fbf9e5" vector-effect="non-scaling-stroke" cx="301.45" cy="697.69" r="12.45"/>
<path fill="none" stroke-width="1.00" stroke="#fbf9e5" vector-effect="non-scaling-stroke" d="
  M 209.44 746.52
  Q 209.35 747.28 210.11 747.27
  Q 223.43 747.17 236.40 747.35
  C 239.52 747.39 241.79 748.64 244.76 749.37
  A 0.32 0.32 0.0 0 1 244.69 750.00
  L 207.12 750.00
  A 0.56 0.55 4.0 0 1 206.57 749.37
  L 211.65 711.58
  Q 212.41 705.91 212.72 711.63
  C 212.84 713.83 213.58 716.07 213.16 718.77
  Q 211.00 732.81 209.44 746.52
  Z"
/>
<path fill="none" stroke-width="1.00" stroke="#fbf9e5" vector-effect="non-scaling-stroke" d="
  M 498.90 747.33
  Q 499.70 747.05 500.26 747.21
  Q 505.89 748.82 511.71 749.33
  Q 511.81 749.34 511.78 749.43
  Q 511.73 749.55 511.70 749.68
  A 0.41 0.40 6.1 0 1 511.30 749.99
  L 278.74 750.00
  A 0.23 0.23 0.0 0 1 278.68 749.55
  C 281.65 748.78 283.90 747.27 286.99 747.27
  Q 392.37 747.23 497.75 747.24
  Q 497.98 747.24 498.19 747.33
  Q 498.54 747.46 498.90 747.33
  Z"
/>
<path fill="none" stroke-width="1.00" stroke="#fbf9e5" vector-effect="non-scaling-stroke" d="
  M 526.25 750.00
  Q 514.25 750.00 526.26 748.88
  C 527.88 748.73 530.81 747.29 533.40 747.29
  Q 595.19 747.22 656.97 747.25
  C 660.69 747.25 663.64 748.01 666.87 749.27
  Q 668.75 750.00 666.74 750.00
  L 526.25 750.00
  Z"
/>
<path fill="none" stroke-width="1.00" stroke="#fbf9e5" vector-effect="non-scaling-stroke" d="
  M 682.39 750.24
  A 0.11 0.11 0.0 0 1 682.28 750.13
  L 682.28 750.12
  A 9.79 2.70 -0.8 0 1 692.03 747.29
  L 704.39 747.11
  A 9.79 2.70 -0.8 0 1 714.22 749.68
  L 714.22 749.69
  A 0.11 0.11 0.0 0 1 714.11 749.80
  L 682.39 750.24
  Z"
/>
<rect fill="none" stroke-width="1.00" stroke="#461212" vector-effect="non-scaling-stroke" x="-0.91" y="-7.39" transform="translate(420.89,830.52) rotate(0.1)" width="1.82" height="14.78" rx="0.27"/>
<path fill="none" stroke-width="1.00" stroke="#461212" vector-effect="non-scaling-stroke" d="
  M 427.33 828.31
  Q 431.08 825.71 433.38 829.18
  Q 433.70 829.66 433.71 830.24
  L 433.84 837.63
  Q 433.85 838.13 433.36 838.03
  L 432.50 837.87
  Q 432.01 837.77 432.00 837.27
  L 431.89 830.69
  A 2.24 2.24 0.0 0 0 428.91 828.61
  C 425.95 829.64 426.66 835.04 426.94 837.48
  Q 427.00 838.04 426.44 838.01
  L 425.62 837.97
  A 0.66 0.65 -88.6 0 1 425.00 837.31
  L 425.00 823.79
  Q 425.00 823.14 425.64 823.08
  L 426.18 823.02
  Q 426.77 822.96 426.76 823.56
  L 426.74 828.00
  Q 426.74 828.72 427.33 828.31
  Z"
/>
<path fill="none" stroke-width="1.00" stroke="#461212" vector-effect="non-scaling-stroke" d="
  M 514.76 837.02
  Q 514.74 837.85 513.87 837.77
  A 0.97 0.96 3.0 0 1 513.00 836.81
  L 513.00 823.62
  Q 513.00 823.00 513.63 823.00
  L 514.10 823.00
  Q 514.77 823.00 514.76 823.66
  L 514.74 827.99
  Q 514.74 828.70 515.34 828.31
  C 522.67 823.56 526.39 835.96 518.26 838.01
  Q 517.81 838.12 517.41 837.91
  L 515.22 836.75
  A 0.32 0.31 -75.2 0 0 514.76 837.02
  Z
  M 517.8319 836.5499
  A 4.02 3.14 90.4 0 0 520.9999 832.5519
  A 4.02 3.14 90.4 0 0 517.8881 828.5101
  A 4.02 3.14 90.4 0 0 514.7201 832.5081
  A 4.02 3.14 90.4 0 0 517.8319 836.5499
  Z"
/>
<rect fill="none" stroke-width="1.00" stroke="#461212" vector-effect="non-scaling-stroke" x="-0.88" y="-7.35" transform="translate(492.12,830.59) rotate(-0.2)" width="1.76" height="14.70" rx="0.26"/>
<path fill="none" stroke-width="1.00" stroke="#461212" vector-effect="non-scaling-stroke" d="
  M 524.84 824.43
  Q 524.79 823.07 525.98 823.26
  A 1.07 1.07 0.0 0 1 526.11 825.35
  Q 524.89 825.70 524.84 824.43
  Z"
/>
<path fill="none" stroke-width="1.00" stroke="#461212" vector-effect="non-scaling-stroke" d="
  M 365.28 829.98
  L 363.14 837.17
  A 1.11 1.11 0.0 0 1 361.01 837.16
  L 358.45 828.07
  Q 358.32 827.60 358.64 827.23
  Q 359.26 826.52 360.01 827.77
  Q 360.29 828.24 360.41 828.78
  L 361.90 835.25
  A 0.27 0.27 0.0 0 0 362.42 835.26
  L 364.50 827.99
  A 1.04 1.04 0.0 0 1 366.51 828.00
  L 368.45 835.04
  A 0.30 0.30 0.0 0 0 369.02 835.05
  Q 370.10 831.73 370.69 828.44
  Q 370.84 827.62 371.21 827.35
  Q 371.63 827.05 372.18 827.27
  Q 372.63 827.46 372.49 827.92
  L 369.82 837.15
  A 1.08 1.08 0.0 0 1 367.74 837.14
  L 365.76 829.98
  Q 365.53 829.14 365.28 829.98
  Z"
/>
<path fill="none" stroke-width="1.00" stroke="#461212" vector-effect="non-scaling-stroke" d="
  M 381.71 829.98
  A 0.28 0.28 0.0 0 0 381.18 829.98
  L 379.07 837.25
  A 1.02 1.02 0.0 0 1 377.11 837.24
  L 374.45 827.71
  A 0.53 0.53 0.0 0 1 375.23 827.11
  L 375.61 827.33
  Q 376.08 827.61 376.20 828.14
  L 377.86 835.22
  A 0.30 0.30 0.0 0 0 378.44 835.24
  L 380.64 827.73
  A 0.93 0.93 0.0 0 1 382.43 827.75
  L 384.39 834.94
  A 0.37 0.36 44.7 0 0 385.10 834.94
  L 386.82 828.02
  Q 386.96 827.46 387.50 827.29
  L 388.05 827.11
  Q 388.88 826.84 388.63 827.68
  L 385.77 837.12
  A 1.04 1.04 0.0 0 1 383.78 837.11
  L 381.71 829.98
  Z"
/>
<path fill="none" stroke-width="1.00" stroke="#461212" vector-effect="non-scaling-stroke" d="
  M 397.20 830.23
  L 395.13 837.21
  A 1.10 1.10 0.0 0 1 393.01 837.20
  L 390.41 827.95
  A 0.74 0.74 0.0 0 1 391.50 827.12
  L 391.80 827.30
  Q 392.11 827.48 392.19 827.83
  L 393.89 835.22
  A 0.27 0.27 0.0 0 0 394.41 835.23
  L 396.54 827.77
  A 1.04 1.04 0.0 0 1 398.54 827.79
  L 400.49 835.18
  A 0.23 0.23 0.0 0 0 400.94 835.18
  L 403.03 827.29
  Q 403.22 826.57 403.87 826.92
  L 404.23 827.11
  Q 404.75 827.39 404.58 827.96
  L 401.83 837.21
  A 1.10 1.10 0.0 0 1 399.72 837.20
  L 397.71 830.23
  Q 397.46 829.37 397.20 830.23
  Z"
/>
<path fill="none" stroke-width="1.00" stroke="#461212" vector-effect="non-scaling-stroke" d="
  M 465.16 828.68
  Q 468.00 825.79 471.13 828.42
  Q 471.54 828.76 471.95 828.43
  C 478.59 823.20 477.96 833.82 478.12 836.52
  Q 478.17 837.39 477.81 837.77
  Q 477.38 838.23 476.65 837.93
  Q 476.20 837.74 476.22 837.25
  C 476.31 835.49 477.11 826.01 472.43 829.34
  Q 472.00 829.64 471.98 830.16
  L 471.64 837.68
  A 0.93 0.72 53.0 0 1 470.03 837.24
  C 469.99 835.43 470.42 831.36 469.65 829.78
  C 468.61 827.66 465.28 828.71 465.14 831.32
  Q 464.97 834.38 464.99 837.47
  Q 465.00 838.00 464.46 838.00
  L 463.90 838.00
  A 0.61 0.60 0.0 0 1 463.29 837.40
  L 463.17 827.52
  A 0.54 0.54 0.0 0 1 463.85 826.99
  Q 464.96 827.27 464.75 828.46
  Q 464.61 829.24 465.16 828.68
  Z"
/>
<path fill="none" stroke-width="1.00" stroke="#461212" vector-effect="non-scaling-stroke" d="
  M 497.73 828.90
  Q 497.87 828.96 498.00 829.00
  Q 498.08 829.03 498.14 828.96
  L 500.08 827.03
  A 0.54 0.54 0.0 0 1 501.00 827.41
  L 501.00 828.49
  Q 501.00 829.09 500.40 829.07
  C 497.37 828.93 497.85 834.54 498.12 836.89
  Q 498.19 837.45 497.66 837.65
  L 496.78 837.97
  Q 496.16 838.20 496.17 837.54
  L 496.29 827.47
  A 0.52 0.52 0.0 0 1 497.01 827.00
  Q 498.05 827.43 497.67 828.77
  Q 497.64 828.87 497.73 828.90
  Z"
/>
<rect fill="none" stroke-width="1.00" stroke="#461212" vector-effect="non-scaling-stroke" x="-0.90" y="-5.38" transform="translate(525.89,832.53) rotate(-0.3)" width="1.80" height="10.76" rx="0.33"/>
<path fill="none" stroke-width="1.00" stroke="#461212" vector-effect="non-scaling-stroke" d="
  M 573.96 828.68
  Q 576.03 826.07 578.85 828.17
  Q 579.27 828.49 579.39 829.00
  Q 580.43 833.11 579.90 837.38
  Q 579.83 837.93 579.28 837.97
  L 578.94 838.00
  A 0.59 0.58 86.8 0 1 578.31 837.43
  L 578.12 830.09
  A 1.06 1.06 0.0 0 0 577.68 829.25
  C 575.76 827.84 574.01 829.01 573.86 831.21
  Q 573.65 834.24 573.78 837.31
  A 0.67 0.66 -9.1 0 1 573.28 837.99
  Q 572.65 838.16 572.25 837.61
  Q 572.01 837.27 572.00 836.86
  L 571.99 830.63
  A 2.03 2.03 0.0 0 0 569.59 828.64
  C 565.92 829.33 566.99 833.83 566.99 836.45
  Q 566.99 836.81 566.85 837.15
  Q 566.21 838.60 565.42 837.30
  Q 565.25 837.03 565.25 836.71
  L 565.25 827.56
  Q 565.25 826.89 565.90 827.06
  Q 566.75 827.29 566.81 828.11
  A 0.47 0.47 0.0 0 0 567.60 828.43
  Q 570.50 825.82 573.08 828.70
  Q 573.54 829.21 573.96 828.68
  Z"
/>
<path fill="none" stroke-width="1.00" stroke="#461212" vector-effect="non-scaling-stroke" d="
  M 414.73 829.37
  Q 412.96 827.80 410.80 829.14
  A 0.65 0.64 -4.9 0 1 409.86 828.35
  Q 410.16 827.61 410.97 827.50
  C 418.84 826.42 416.51 832.67 416.95 837.66
  Q 417.02 838.40 416.37 838.04
  L 414.90 837.24
  A 0.68 0.67 -43.7 0 0 414.27 837.23
  Q 410.98 838.85 409.09 835.98
  A 1.11 1.08 -52.9 0 1 408.97 835.03
  Q 410.06 831.69 413.76 831.81
  A 1.40 1.40 0.0 0 0 414.73 829.37
  Z
  M 414.36 832.79
  L 411.05 833.80
  A 0.51 0.51 0.0 0 0 410.71 834.44
  L 410.80 834.74
  A 2.29 2.15 73.1 0 0 413.53 836.31
  L 413.70 836.26
  A 2.29 2.15 73.1 0 0 415.09 833.44
  L 415.00 833.13
  A 0.51 0.51 0.0 0 0 414.36 832.79
  Z"
/>
<path fill="none" stroke-width="1.00" stroke="#461212" vector-effect="non-scaling-stroke" d="
  M 440.66 831.79
  A 1.27 1.27 0.0 0 0 441.83 829.68
  Q 439.95 827.62 437.50 829.23
  A 0.59 0.59 0.0 0 1 436.81 828.27
  C 439.02 826.54 443.34 826.54 443.54 830.33
  Q 443.73 833.89 444.03 837.50
  A 0.55 0.54 14.0 0 1 443.19 838.00
  L 441.96 837.23
  Q 441.59 836.99 441.20 837.22
  C 435.19 840.82 434.24 830.64 440.66 831.79
  Z
  M 441.26 832.76
  L 438.21 833.60
  A 0.71 0.71 0.0 0 0 437.71 834.47
  L 437.74 834.57
  A 2.50 2.15 74.7 0 0 440.47 836.42
  L 440.74 836.34
  A 2.50 2.15 74.7 0 0 442.16 833.37
  L 442.13 833.26
  A 0.71 0.71 0.0 0 0 441.26 832.76
  Z"
/>
<path fill="none" stroke-width="1.00" stroke="#461212" vector-effect="non-scaling-stroke" d="
  M 449.05 828.63
  Q 450.05 827.19 451.78 827.22
  A 0.57 0.57 0.0 0 1 452.26 828.07
  Q 451.55 829.28 450.05 829.23
  Q 449.64 829.22 449.50 829.61
  Q 448.24 833.32 448.93 837.24
  Q 449.05 837.93 448.35 837.93
  L 447.70 837.93
  Q 447.04 837.93 447.03 837.27
  L 446.93 827.78
  Q 446.93 827.25 447.46 827.25
  L 447.88 827.25
  Q 448.50 827.25 448.50 827.88
  L 448.50 828.46
  A 0.30 0.30 0.0 0 0 449.05 828.63
  Z"
/>
<path fill="none" stroke-width="1.00" stroke="#461212" vector-effect="non-scaling-stroke" d="
  M 458.95 831.38
  C 459.20 828.80 456.63 827.52 454.71 829.20
  A 0.60 0.60 0.0 0 1 453.76 828.52
  Q 454.09 827.68 454.88 827.53
  C 462.67 826.08 460.57 832.78 460.96 837.54
  A 0.50 0.50 0.0 0 1 460.19 838.00
  L 458.99 837.25
  Q 458.62 837.01 458.23 837.23
  Q 454.99 839.07 453.01 835.88
  A 1.05 1.05 0.0 0 1 452.93 834.90
  Q 454.44 831.38 458.46 831.78
  Q 458.91 831.82 458.95 831.38
  Z
  M 454.79 834.88
  L 455.65 836.48
  A 0.69 0.69 0.0 0 0 456.58 836.77
  L 457.48 836.28
  A 2.83 1.41 -28.2 0 0 459.31 833.70
  L 459.13 833.37
  A 2.83 1.41 -28.2 0 0 455.97 833.46
  L 455.07 833.95
  A 0.69 0.69 0.0 0 0 454.79 834.88
  Z"
/>
<path fill="none" stroke-width="1.00" stroke="#461212" vector-effect="non-scaling-stroke" d="
  M 481.14 828.96
  Q 480.95 828.82 480.93 828.47
  A 0.57 0.56 -16.3 0 1 481.21 827.97
  Q 484.31 826.21 487.01 828.34
  A 1.55 1.54 17.9 0 1 487.60 829.49
  L 487.87 837.50
  Q 487.91 838.52 487.06 837.95
  L 486.05 837.27
  Q 485.63 836.99 485.19 837.24
  Q 482.43 838.85 480.32 836.15
  A 1.14 1.13 -57.0 0 1 480.12 835.19
  Q 481.03 831.55 485.06 831.80
  A 1.09 1.09 0.0 0 0 486.05 830.13
  Q 484.52 827.72 481.74 828.92
  Q 481.32 829.10 481.14 828.96
  Z
  M 481.97 835.10
  L 483.00 836.60
  A 0.68 0.68 0.0 0 0 483.94 836.77
  L 484.51 836.38
  A 3.07 1.42 -34.5 0 0 486.24 833.47
  L 486.04 833.19
  A 3.07 1.42 -34.5 0 0 482.71 833.76
  L 482.14 834.15
  A 0.68 0.68 0.0 0 0 481.97 835.10
  Z"
/>
<path fill="none" stroke-width="1.00" stroke="#461212" vector-effect="non-scaling-stroke" d="
  M 508.01 831.01
  C 508.09 828.39 505.57 828.00 503.56 829.22
  Q 503.13 829.49 503.06 828.99
  L 503.01 828.61
  Q 502.95 828.23 503.28 828.03
  C 510.81 823.32 509.71 834.45 509.87 837.60
  Q 509.91 838.51 509.16 838.00
  L 507.90 837.15
  A 0.59 0.59 0.0 0 0 507.25 837.14
  C 502.79 839.99 498.63 832.79 507.44 831.64
  A 0.66 0.65 87.4 0 0 508.01 831.01
  Z
  M 508.1643 833.5371
  A 2.31 1.60 -28.8 0 0 505.3692 833.2479
  A 2.31 1.60 -28.8 0 0 504.1157 835.7629
  A 2.31 1.60 -28.8 0 0 506.9108 836.0521
  A 2.31 1.60 -28.8 0 0 508.1643 833.5371
  Z"
/>
<path fill="none" stroke-width="1.00" stroke="#461212" vector-effect="non-scaling-stroke" d="
  M 531.11 833.96
  C 531.15 837.21 534.70 836.27 536.66 836.29
  A 0.61 0.61 0.0 0 1 536.79 837.49
  C 533.73 838.21 530.45 838.02 529.48 834.46
  C 527.23 826.25 538.86 824.31 537.67 832.92
  Q 537.59 833.51 536.99 833.50
  L 531.57 833.49
  Q 531.10 833.49 531.11 833.96
  Z
  M 531.62 832.27
  L 535.68 832.23
  A 0.58 0.58 0.0 0 0 536.25 831.64
  L 536.25 831.53
  A 3.05 2.44 89.4 0 0 533.78 828.51
  L 533.44 828.51
  A 3.05 2.44 89.4 0 0 531.03 831.59
  L 531.03 831.70
  A 0.58 0.58 0.0 0 0 531.62 832.27
  Z"
/>
<path fill="none" stroke-width="1.00" stroke="#461212" vector-effect="non-scaling-stroke" d="
  M 551.30 828.74
  C 544.75 825.86 543.37 838.53 551.29 836.30
  Q 551.84 836.14 551.87 836.71
  Q 551.90 837.23 551.24 837.43
  C 547.07 838.65 543.78 836.26 544.09 831.97
  C 544.34 828.48 548.68 825.76 551.90 827.96
  Q 552.20 828.17 551.94 828.43
  L 551.71 828.67
  Q 551.53 828.85 551.30 828.74
  Z"
/>
<path fill="none" stroke-width="1.00" stroke="#461212" vector-effect="non-scaling-stroke" d="
  M 557.4831 837.7766
  A 5.28 4.84 95.4 0 1 553.1615 832.0645
  A 5.28 4.84 95.4 0 1 558.4769 827.2634
  A 5.28 4.84 95.4 0 1 562.7985 832.9755
  A 5.28 4.84 95.4 0 1 557.4831 837.7766
  Z
  M 557.9929 836.5300
  A 4.04 3.21 90.1 0 0 561.2100 832.4956
  A 4.04 3.21 90.1 0 0 558.0071 828.4500
  A 4.04 3.21 90.1 0 0 554.7900 832.4844
  A 4.04 3.21 90.1 0 0 557.9929 836.5300
  Z"
/>
<ellipse fill="none" stroke-width="1.00" stroke="#fbf9e5" vector-effect="non-scaling-stroke" cx="0.00" cy="0.00" transform="translate(517.86,832.53) rotate(90.4)" rx="4.02" ry="3.14"/>
<path fill="none" stroke-width="1.00" stroke="#fbf9e5" vector-effect="non-scaling-stroke" d="
  M 531.62 832.27
  A 0.58 0.58 0.0 0 1 531.03 831.70
  L 531.03 831.59
  A 3.05 2.44 89.4 0 1 533.44 828.51
  L 533.78 828.51
  A 3.05 2.44 89.4 0 1 536.25 831.53
  L 536.25 831.64
  A 0.58 0.58 0.0 0 1 535.68 832.23
  L 531.62 832.27
  Z"
/>
<ellipse fill="none" stroke-width="1.00" stroke="#fbf9e5" vector-effect="non-scaling-stroke" cx="0.00" cy="0.00" transform="translate(558.00,832.49) rotate(90.1)" rx="4.04" ry="3.21"/>
<path fill="none" stroke-width="1.00" stroke="#fbf9e5" vector-effect="non-scaling-stroke" d="
  M 414.36 832.79
  A 0.51 0.51 0.0 0 1 415.00 833.13
  L 415.09 833.44
  A 2.29 2.15 73.1 0 1 413.70 836.26
  L 413.53 836.31
  A 2.29 2.15 73.1 0 1 410.80 834.74
  L 410.71 834.44
  A 0.51 0.51 0.0 0 1 411.05 833.80
  L 414.36 832.79
  Z"
/>
<path fill="none" stroke-width="1.00" stroke="#fbf9e5" vector-effect="non-scaling-stroke" d="
  M 441.26 832.76
  A 0.71 0.71 0.0 0 1 442.13 833.26
  L 442.16 833.37
  A 2.50 2.15 74.7 0 1 440.74 836.34
  L 440.47 836.42
  A 2.50 2.15 74.7 0 1 437.74 834.57
  L 437.71 834.47
  A 0.71 0.71 0.0 0 1 438.21 833.60
  L 441.26 832.76
  Z"
/>
<path fill="none" stroke-width="1.00" stroke="#fbf9e5" vector-effect="non-scaling-stroke" d="
  M 454.79 834.88
  A 0.69 0.69 0.0 0 1 455.07 833.95
  L 455.97 833.46
  A 2.83 1.41 -28.2 0 1 459.13 833.37
  L 459.31 833.70
  A 2.83 1.41 -28.2 0 1 457.48 836.28
  L 456.58 836.77
  A 0.69 0.69 0.0 0 1 455.65 836.48
  L 454.79 834.88
  Z"
/>
<path fill="none" stroke-width="1.00" stroke="#fbf9e5" vector-effect="non-scaling-stroke" d="
  M 481.97 835.10
  A 0.68 0.68 0.0 0 1 482.14 834.15
  L 482.71 833.76
  A 3.07 1.42 -34.5 0 1 486.04 833.19
  L 486.24 833.47
  A 3.07 1.42 -34.5 0 1 484.51 836.38
  L 483.94 836.77
  A 0.68 0.68 0.0 0 1 483.00 836.60
  L 481.97 835.10
  Z"
/>
<ellipse fill="none" stroke-width="1.00" stroke="#fbf9e5" vector-effect="non-scaling-stroke" cx="0.00" cy="0.00" transform="translate(506.14,834.65) rotate(-28.8)" rx="2.31" ry="1.60"/>
<circle fill="none" stroke-width="1.00" stroke="#461212" vector-effect="non-scaling-stroke" cx="406.36" cy="836.54" r="1.26"/>
<circle fill="none" stroke-width="1.00" stroke="#461212" vector-effect="non-scaling-stroke" cx="541.38" cy="836.51" r="1.23"/>
</svg>
