<?xml version="1.0" standalone="no"?>
<!DOCTYPE svg PUBLIC "-//W3C//DTD SVG 20010904//EN"
 "http://www.w3.org/TR/2001/REC-SVG-20010904/DTD/svg10.dtd">
<svg version="1.0" xmlns="http://www.w3.org/2000/svg"
 width="299.000000pt" height="154.000000pt" viewBox="0 0 299.000000 154.000000"
 preserveAspectRatio="xMidYMid meet">

<g transform="translate(0.000000,154.000000) scale(0.100000,-0.100000)"
fill="#000000" stroke="none">
<path d="M1045 1363 c-60 -7 -119 -25 -146 -44 -27 -19 -28 -19 -81 2 -46 19
-66 21 -159 16 -103 -5 -193 -24 -247 -53 -15 -8 -21 -14 -14 -14 7 0 26 7 41
15 42 21 154 39 246 38 96 0 158 -25 222 -89 37 -38 63 -97 55 -126 -1 -5 4
-8 11 -8 14 0 57 36 57 47 0 4 -11 -4 -24 -16 -27 -25 -37 -18 -38 29 -1 17
-5 30 -10 30 -4 0 -8 6 -8 14 0 8 -16 31 -35 50 -19 20 -35 38 -35 40 0 2 11
11 25 20 20 13 29 14 52 4 29 -13 57 -37 60 -53 1 -6 6 -21 12 -35 8 -21 10
-22 10 -5 -1 31 -25 90 -37 88 -16 -4 -23 27 -7 33 22 9 233 9 300 0 33 -4 90
-18 127 -31 36 -13 70 -20 74 -17 4 4 4 2 1 -4 -4 -7 8 -22 27 -35 24 -16 37
-35 45 -64 l10 -40 -5 40 c-3 22 -10 45 -15 51 -5 6 -5 15 -1 19 4 5 2 5 -4 2
-14 -8 -47 31 -38 45 5 8 1 9 -9 5 -10 -4 -30 -2 -45 4 -15 6 -35 13 -44 15
-26 6 -55 13 -80 20 -26 7 -248 12 -293 7z"/>
<path d="M1609 1363 c-30 -3 -53 -11 -64 -24 -21 -22 -11 -26 11 -4 15 15 48
10 38 -6 -3 -5 -2 -9 3 -8 21 4 33 -2 33 -16 0 -8 7 -15 15 -15 9 0 15 -6 14
-12 -1 -7 1 -22 5 -33 5 -11 10 -26 12 -34 3 -8 6 -12 9 -10 10 11 -20 91 -43
114 -14 14 -22 28 -18 32 9 9 171 8 246 -1 73 -8 191 -46 197 -63 3 -7 11 -13
18 -13 11 0 33 -45 51 -109 3 -8 7 -12 9 -9 9 9 -30 106 -52 132 -25 29 -14
45 27 41 36 -4 35 -3 62 -28 29 -27 50 -100 38 -131 -11 -28 -47 -57 -67 -54
-9 2 -18 -2 -20 -8 -2 -7 5 -10 21 -7 31 6 74 48 82 80 8 30 -3 103 -18 121
-9 10 -8 16 2 22 8 5 17 7 20 5 4 -2 42 -6 86 -10 43 -3 90 -7 104 -10 14 -2
45 -7 70 -10 129 -18 213 -54 268 -117 15 -17 33 -37 40 -44 6 -7 12 -18 12
-24 0 -6 5 -21 12 -33 11 -21 20 -72 19 -110 0 -9 4 -15 10 -12 16 10 -8 141
-34 189 -30 53 -119 127 -172 142 -38 11 -81 20 -135 29 -25 4 -54 9 -64 11
-33 6 -107 13 -196 19 -47 3 -99 7 -116 10 -23 3 -37 -2 -53 -19 -21 -22 -45
-27 -67 -13 -12 7 -91 26 -139 33 -44 6 -223 11 -276 7z"/>
<path d="M360 1250 c-8 -5 -10 -10 -5 -10 6 0 17 5 25 10 8 5 11 10 5 10 -5 0
-17 -5 -25 -10z"/>
<path d="M296 1175 c-60 -89 -87 -198 -57 -228 10 -9 10 -7 3 12 -19 51 22
171 81 237 16 19 25 34 19 34 -6 0 -26 -25 -46 -55z"/>
<path d="M1032 1180 c0 -14 2 -19 5 -12 2 6 2 18 0 25 -3 6 -5 1 -5 -13z"/>
<path d="M1657 1155 c-8 -18 -67 -56 -79 -49 -4 3 -8 0 -8 -5 0 -6 6 -11 13
-11 18 0 94 66 86 74 -4 4 -9 0 -12 -9z"/>
<path d="M1571 1134 c0 -11 3 -14 6 -6 3 7 2 16 -1 19 -3 4 -6 -2 -5 -13z"/>
<path d="M2850 937 c0 -1 -4 -18 -10 -36 -6 -24 -6 -31 1 -24 11 11 23 63 14
63 -3 0 -5 -1 -5 -3z"/>
<path d="M270 904 c23 -30 42 -44 87 -65 29 -13 40 -24 36 -34 -3 -9 0 -22 7
-30 6 -8 9 -19 5 -25 -3 -5 1 -10 9 -10 9 0 16 -6 16 -12 1 -13 46 -37 115
-61 39 -13 128 -14 193 -2 17 3 32 3 32 0 0 -6 -67 -38 -81 -39 -4 -1 -21 -15
-38 -32 -31 -30 -71 -37 -71 -12 0 5 -4 6 -10 3 -5 -3 -10 -1 -10 4 0 6 -7 11
-15 11 -8 0 -15 4 -15 9 0 5 -15 13 -32 16 -18 4 -40 13 -48 20 -8 7 -25 16
-37 19 -13 4 -23 11 -23 14 0 4 -11 9 -25 10 -14 1 -33 10 -44 21 -10 10 -27
23 -37 29 -24 13 -13 25 26 26 16 1 30 5 30 10 0 4 7 6 15 3 8 -4 17 -2 20 3
8 14 -11 12 -73 -4 -57 -16 -59 -16 -69 -16 -3 0 2 -9 12 -20 10 -11 24 -20
32 -20 7 0 13 -4 13 -8 0 -5 21 -19 48 -31 26 -12 54 -26 62 -31 13 -9 71 -36
110 -54 8 -3 29 -15 45 -25 41 -27 67 -25 95 4 13 14 45 36 70 48 61 29 120
66 150 94 25 22 26 22 42 4 9 -11 13 -23 10 -27 -4 -4 -1 -4 5 0 12 7 22 1 64
-36 10 -10 19 -15 19 -12 0 4 6 1 14 -5 8 -6 18 -11 22 -10 5 1 18 -1 29 -5
11 -4 29 -11 40 -15 11 -4 54 -8 95 -10 41 -1 77 -4 79 -6 2 -2 10 2 18 10 8
8 23 15 34 15 29 0 90 36 108 64 l16 24 37 -18 c20 -10 39 -15 42 -12 4 3 6 1
6 -4 0 -5 17 -9 38 -9 55 1 73 -8 87 -43 11 -26 11 -33 -1 -43 -8 -6 -14 -7
-14 -2 0 5 -123 8 -290 6 -159 -1 -290 2 -290 7 0 11 -50 28 -78 25 -12 -1
-35 -14 -51 -29 l-30 -28 -11 43 c-15 60 -18 67 -19 46 -1 -10 4 -38 10 -63
l11 -44 33 29 c32 28 36 29 113 22 6 -1 12 -8 12 -17 0 -12 6 -15 21 -11 33 9
46 -1 42 -31 -3 -23 -2 -24 6 -7 8 19 9 18 19 -7 16 -39 53 -61 83 -49 23 8
49 8 95 -3 39 -8 63 -30 86 -76 28 -55 32 -58 66 -51 l27 5 -30 6 c-23 4 -35
16 -55 55 -33 64 -64 80 -157 78 -70 -1 -73 -1 -97 32 -15 19 -26 38 -26 43 0
13 333 19 460 8 69 -5 92 11 80 55 -5 16 -6 30 -2 30 4 1 32 3 62 5 62 4 81 7
95 15 6 3 28 11 50 18 45 14 77 37 93 67 11 22 42 23 197 9 39 -4 85 -8 103
-8 26 -2 32 -6 32 -24 0 -28 21 -30 45 -3 13 14 25 18 44 13 36 -8 37 -11 15
-28 -55 -42 -197 -48 -304 -12 -19 6 -38 11 -42 12 -3 0 -10 3 -14 8 -4 4 -15
7 -25 7 -10 0 -23 8 -28 18 -9 15 -10 14 -11 -7 0 -13 3 -21 7 -18 3 4 12 2
20 -4 7 -6 13 -8 13 -4 0 4 6 3 13 -2 6 -6 33 -16 60 -23 26 -7 47 -15 47 -19
0 -6 177 -6 195 0 12 4 55 -22 55 -34 0 -4 -6 -5 -12 -1 -10 6 -10 5 -1 -7 7
-8 9 -25 6 -38 -5 -20 -10 -22 -42 -17 -20 3 -37 10 -39 16 -2 6 -10 6 -20 1
-9 -5 -30 -7 -47 -5 -16 2 -54 4 -82 5 -54 0 -59 5 -54 48 2 7 -2 10 -8 6 -6
-3 -14 1 -17 9 -3 9 -10 14 -14 11 -5 -3 -13 3 -19 12 -10 17 -10 17 -11 0 0
-10 -4 -16 -8 -13 -10 6 -52 -21 -52 -34 0 -12 30 -1 48 17 11 11 19 9 42 -9
29 -23 35 -48 13 -55 -6 -2 -19 10 -28 27 -9 18 -19 29 -22 26 -3 -3 3 -17 14
-32 19 -25 26 -27 109 -30 49 -2 112 -6 139 -9 55 -7 96 -7 102 -1 2 2 5 17 6
34 2 33 0 32 64 18 21 -4 112 -20 125 -21 3 0 10 -3 14 -8 4 -4 17 -7 30 -7
16 0 23 7 26 29 2 17 1 28 -3 25 -4 -2 -10 2 -13 8 -4 7 -4 -1 -1 -19 4 -33 4
-34 -42 -16 -21 7 -17 6 -100 17 -71 10 -81 21 -25 29 60 8 65 10 102 48 40
41 82 56 99 35 6 -7 7 -17 3 -21 -4 -5 -1 -5 7 0 9 5 12 3 9 -5 -2 -7 -12 -14
-22 -16 -28 -4 -34 -16 -6 -14 14 1 31 2 38 1 17 -1 15 -21 -2 -21 -8 0 -18
-4 -21 -10 -9 -15 28 0 42 17 13 16 53 9 53 -9 0 -6 7 -19 16 -29 13 -15 20
-15 58 -4 38 12 47 11 66 -2 18 -13 21 -22 17 -52 -5 -31 -4 -33 5 -14 7 15 8
34 2 55 -11 36 -18 37 -99 24 -38 -7 -41 -5 -56 26 -9 18 -21 34 -27 34 -7 1
-21 2 -32 3 -11 0 -20 8 -20 16 0 8 -4 15 -10 15 -5 0 -10 7 -10 15 0 8 7 15
15 15 8 0 15 5 15 10 0 6 6 10 13 10 15 0 66 39 52 40 -6 0 -21 -7 -34 -16
-71 -50 -231 -61 -451 -29 -73 11 -177 16 -305 15 -426 -4 -540 -1 -635 15
-110 18 -369 22 -515 9 -110 -10 -327 -10 -378 0 -48 9 -123 42 -162 70 -16
13 -37 26 -45 31 -13 8 -13 7 0 -11z m182 -100 c13 -3 37 -7 53 -10 17 -2 41
-7 55 -11 14 -3 30 -5 35 -3 6 1 40 4 77 6 99 4 221 14 241 20 57 17 -25 -65
-102 -102 -49 -24 -68 -27 -151 -27 -52 0 -105 2 -116 6 -75 20 -153 89 -140
123 3 8 10 12 16 9 5 -3 20 -8 32 -11z m788 -8 c71 -6 90 -15 90 -43 0 -16
-26 -17 -33 -3 -3 6 -4 5 -3 -2 2 -7 11 -13 22 -13 13 0 20 8 22 28 2 15 7 25
11 23 8 -5 150 -17 214 -18 32 0 37 -3 37 -24 0 -17 6 -24 19 -24 11 0 22 4
25 9 3 5 -2 8 -11 7 -10 0 -19 7 -21 17 -2 10 3 17 12 17 9 0 16 -6 16 -12 0
-8 3 -9 8 -3 9 14 318 19 326 6 11 -16 -67 -62 -136 -80 -36 -9 -199 -7 -248
3 -57 12 -70 15 -90 26 -15 8 -19 17 -15 33 4 12 -8 2 -25 -24 -47 -65 -98
-90 -194 -97 -46 -3 -102 0 -135 8 -73 16 -221 92 -221 114 0 4 9 19 21 35 20
27 21 28 127 25 59 -1 141 -5 182 -8z m1118 -58 c-6 -18 -28 -21 -28 -4 0 9 7
16 16 16 9 0 14 -5 12 -12z m242 -10 c0 -4 -16 -19 -35 -34 -27 -20 -49 -27
-93 -29 -57 -3 -103 10 -74 22 7 3 25 15 38 27 21 17 38 21 95 21 38 0 69 -3
69 -7z"/>
<path d="M820 781 c0 -8 -7 -11 -15 -7 -8 3 -15 1 -15 -4 0 -6 6 -10 14 -10
17 0 31 18 22 27 -3 4 -6 1 -6 -6z"/>
<path d="M520 766 c0 -15 37 -32 47 -22 4 3 1 6 -5 6 -6 0 -18 7 -26 16 -14
13 -16 13 -16 0z"/>
<path d="M690 737 c0 -8 -8 -18 -17 -20 -17 -4 -17 -5 0 -6 18 -1 35 25 23 36
-3 4 -6 -1 -6 -10z"/>
<path d="M1080 761 c0 -6 4 -13 10 -16 6 -3 7 1 4 9 -7 18 -14 21 -14 7z"/>
<path d="M1813 738 c8 -24 -9 -32 -22 -11 -9 16 -10 16 -11 1 0 -25 20 -33 38
-14 14 13 14 18 3 28 -11 11 -13 10 -8 -4z"/>
<path d="M1050 732 c0 -15 28 -23 36 -9 4 7 4 9 -1 5 -4 -4 -14 -3 -22 3 -8 7
-13 8 -13 1z"/>
<path d="M1218 713 c6 -2 12 -12 12 -20 0 -11 -7 -14 -27 -9 -21 5 -24 4 -13
-4 21 -14 47 -13 52 3 8 19 -2 37 -20 36 -11 0 -12 -2 -4 -6z"/>
<path d="M2810 845 c-7 -9 -8 -15 -2 -15 5 0 12 7 16 15 3 8 4 15 2 15 -2 0
-9 -7 -16 -15z"/>
<path d="M2168 743 c6 -2 12 -9 12 -15 0 -6 -7 -8 -15 -4 -8 3 -15 1 -15 -4 0
-14 37 -13 46 1 7 11 -13 29 -31 28 -5 0 -4 -3 3 -6z"/>
<path d="M880 696 c0 -8 5 -18 10 -21 6 -3 10 1 10 9 0 8 -4 18 -10 21 -5 3
-10 -1 -10 -9z"/>
<path d="M166 659 c-14 -11 -31 -30 -37 -42 -9 -20 -8 -20 9 2 11 13 30 32 43
42 13 10 21 19 18 19 -4 0 -18 -9 -33 -21z"/>
<path d="M1480 656 c0 -2 7 -7 16 -10 8 -3 12 -2 9 4 -6 10 -25 14 -25 6z"/>
<path d="M277 644 c12 -3 24 -14 26 -25 4 -15 4 -14 3 3 -1 17 -8 23 -26 25
-21 1 -21 0 -3 -3z"/>
<path d="M1826 635 c-3 -9 -6 -22 -5 -28 0 -7 5 -1 10 12 5 13 8 26 5 28 -2 2
-6 -3 -10 -12z"/>
<path d="M214 607 l-29 -32 30 25 c17 14 32 26 34 28 2 1 2 4 -1 7 -2 3 -18
-10 -34 -28z"/>
<path d="M1470 625 c0 -9 6 -12 15 -9 8 4 15 7 15 9 0 2 -7 5 -15 9 -9 3 -15
0 -15 -9z"/>
<path d="M2320 619 c0 -4 9 -9 20 -12 12 -3 20 0 20 7 0 6 -9 12 -20 12 -11 0
-20 -3 -20 -7z"/>
<path d="M1700 616 c0 -2 7 -7 16 -10 8 -3 12 -2 9 4 -6 10 -25 14 -25 6z"/>
<path d="M1982 600 c2 -12 -12 -15 -84 -14 -49 0 -88 -3 -88 -8 0 -4 11 -8 25
-8 16 0 25 -6 25 -15 0 -28 -30 -75 -48 -76 -9 -1 -33 -2 -52 -3 -19 -1 -51
-6 -71 -10 -33 -7 -40 -4 -68 23 -26 25 -37 30 -59 25 -37 -9 -43 -17 -10 -13
18 3 36 -5 58 -25 29 -25 36 -27 79 -21 101 17 238 20 256 6 13 -10 45 -22 45
-16 0 13 -64 35 -101 35 -38 0 -41 2 -34 23 3 12 9 31 12 43 4 18 12 21 59 21
60 0 87 14 65 36 -10 10 -12 9 -9 -3z"/>
<path d="M2720 606 c0 -2 7 -6 15 -10 8 -3 15 -1 15 4 0 6 -7 10 -15 10 -8 0
-15 -2 -15 -4z"/>
<path d="M280 570 c-6 -11 -8 -20 -6 -20 3 0 10 9 16 20 6 11 8 20 6 20 -3 0
-10 -9 -16 -20z"/>
<path d="M110 568 c0 -12 7 -18 23 -17 15 0 17 2 7 6 -8 3 -18 11 -22 17 -5 7
-8 4 -8 -6z"/>
<path d="M2470 576 c0 -2 8 -10 18 -17 15 -13 16 -12 3 4 -13 16 -21 21 -21
13z"/>
<path d="M410 566 c0 -2 7 -7 16 -10 8 -3 12 -2 9 4 -6 10 -25 14 -25 6z"/>
<path d="M838 558 c7 -7 12 -21 12 -32 0 -10 3 -17 6 -13 10 10 -5 57 -18 57
-9 0 -9 -3 0 -12z"/>
<path d="M1731 559 c-1 -19 26 -45 36 -35 3 3 1 6 -6 6 -6 0 -16 10 -21 23 -6
15 -9 17 -9 6z"/>
<path d="M352 553 c-7 -3 -17 -14 -23 -26 -9 -20 -9 -20 4 -4 17 20 43 23 50
5 2 -7 7 -10 11 -7 9 9 -27 37 -42 32z"/>
<path d="M782 546 c7 -8 15 -12 17 -11 5 6 -10 25 -20 25 -5 0 -4 -6 3 -14z"/>
<path d="M488 528 c2 -10 6 -18 7 -18 1 0 5 8 7 18 3 11 0 19 -7 19 -7 0 -10
-8 -7 -19z"/>
<path d="M2055 532 c17 -11 32 -18 34 -15 8 6 -13 20 -39 28 -23 6 -22 5 5
-13z"/>
<path d="M250 515 c0 -15 4 -24 10 -20 6 3 10 12 10 20 0 8 -4 17 -10 20 -6 4
-10 -5 -10 -20z"/>
<path d="M744 525 c-4 -8 -26 -20 -50 -26 -25 -6 -47 -15 -50 -20 -9 -15 -36
-10 -50 9 -12 16 -14 16 -28 0 -9 -10 -11 -13 -4 -8 9 8 17 5 28 -10 14 -18
17 -19 43 -5 16 8 46 19 68 25 21 6 43 20 49 30 6 11 8 20 5 20 -3 0 -8 -7
-11 -15z"/>
<path d="M1400 538 c0 -2 9 -11 20 -21 11 -9 20 -13 20 -7 0 5 -9 14 -20 20
-11 6 -20 9 -20 8z"/>
<path d="M2725 505 l-35 -34 -39 21 c-55 29 -71 20 -69 -39 l2 -48 3 48 c2 26
9 47 15 47 6 0 26 -9 45 -21 31 -20 35 -20 58 -5 14 9 25 21 25 26 0 5 8 14
19 19 14 8 31 4 68 -15 55 -27 85 -23 113 12 14 18 14 18 -5 3 -37 -30 -56
-30 -101 -4 -23 14 -48 25 -54 25 -6 0 -26 -16 -45 -35z"/>
<path d="M423 519 c9 -5 18 -20 18 -32 1 -18 2 -18 6 -4 5 20 -13 47 -31 47
-6 0 -3 -5 7 -11z"/>
<path d="M2120 526 c0 -2 7 -7 16 -10 8 -3 12 -2 9 4 -6 10 -25 14 -25 6z"/>
<path d="M935 506 c-19 -14 -19 -14 6 -9 20 4 28 -1 36 -20 9 -20 17 -24 35
-19 20 5 21 7 4 10 -10 2 -28 15 -40 28 -19 23 -23 24 -41 10z"/>
<path d="M1055 490 c-16 -6 -14 -8 15 -12 25 -4 39 -1 50 10 14 14 13 15 -2 3
-12 -9 -22 -10 -30 -3 -7 5 -22 6 -33 2z"/>
<path d="M264 479 c-11 -19 28 -81 86 -137 24 -23 97 -61 130 -67 8 -2 15 -4
15 -6 0 -1 9 -3 20 -5 23 -3 71 -12 100 -19 106 -23 351 -27 418 -8 31 9 39 9
43 -2 10 -26 98 -50 262 -71 75 -10 382 -11 442 -2 114 17 141 19 360 22 146
2 234 7 250 15 24 11 24 11 -5 5 -16 -3 -117 -8 -222 -10 -167 -4 -193 -2
-193 11 0 19 -5 19 -34 0 -13 -8 -41 -17 -62 -19 -21 -3 -68 -8 -104 -11 -120
-13 -419 -7 -492 10 -13 2 -34 7 -48 9 -14 3 -36 8 -50 11 -14 3 -32 8 -40 10
-8 2 -18 4 -22 4 -4 1 -14 8 -23 17 -14 15 -14 17 2 30 12 9 -11 6 -67 -9 -87
-23 -177 -27 -275 -13 -27 4 -66 9 -85 12 -139 17 -179 27 -246 60 -54 26
-121 87 -144 129 -12 23 -12 28 0 35 9 6 10 10 3 10 -6 0 -15 -5 -19 -11z"/>
<path d="M841 474 c0 -11 3 -14 6 -6 3 7 2 16 -1 19 -3 4 -6 -2 -5 -13z"/>
<path d="M1522 460 c0 -19 2 -27 5 -17 2 9 2 25 0 35 -3 9 -5 1 -5 -18z"/>
<path d="M2362 479 c-11 -4 -23 -12 -26 -18 -4 -6 6 -4 20 4 18 9 33 11 44 5
10 -5 19 -7 22 -5 3 3 27 -17 54 -45 54 -55 61 -57 90 -34 18 14 18 15 -4 4
-25 -12 -43 -4 -70 33 -39 52 -86 72 -130 56z"/>
<path d="M2020 470 c-12 -8 -11 -10 7 -10 12 0 28 -8 35 -18 22 -31 37 -34 64
-13 15 12 23 21 19 21 -5 0 -17 -8 -27 -17 -18 -16 -20 -16 -44 15 -28 35 -32
36 -54 22z"/>
<path d="M2780 454 c-6 -14 -15 -35 -21 -47 -8 -14 -8 -19 -1 -12 13 12 45 85
37 85 -3 0 -10 -12 -15 -26z"/>
<path d="M2176 463 c12 -2 33 -17 48 -34 14 -16 34 -29 44 -28 13 0 14 2 2 6
-8 4 -26 19 -40 35 -16 18 -33 28 -50 27 -22 -2 -22 -2 -4 -6z"/>
<path d="M541 444 c0 -11 3 -14 6 -6 3 7 2 16 -1 19 -3 4 -6 -2 -5 -13z"/>
<path d="M452 420 c0 -14 2 -19 5 -12 2 6 2 18 0 25 -3 6 -5 1 -5 -13z"/>
<path d="M791 427 c-1 -25 27 -84 44 -91 18 -7 52 33 59 69 l6 30 -11 -30 c-6
-16 -19 -38 -27 -48 -15 -16 -16 -16 -33 2 -10 10 -22 34 -28 52 -5 19 -10 26
-10 16z"/>
<path d="M2299 423 c-13 -16 -12 -17 4 -4 16 13 21 21 13 21 -2 0 -10 -8 -17
-17z"/>
<path d="M531 404 c0 -11 3 -14 6 -6 3 7 2 16 -1 19 -3 4 -6 -2 -5 -13z"/>
<path d="M1522 400 c0 -14 2 -19 5 -12 2 6 2 18 0 25 -3 6 -5 1 -5 -13z"/>
<path d="M470 392 c0 -17 34 -32 51 -21 11 7 10 9 -6 9 -12 0 -26 5 -33 12 -9
9 -12 9 -12 0z"/>
<path d="M2724 358 l-19 -23 23 19 c12 11 22 21 22 23 0 8 -8 2 -26 -19z"/>
<path d="M2685 320 c-4 -6 -30 -24 -58 -40 -52 -30 -59 -42 -9 -16 40 22 98
66 85 66 -7 0 -15 -5 -18 -10z"/>
<path d="M2492 227 c-40 -11 -70 -22 -68 -25 7 -6 136 29 142 40 3 4 4 7 2 7
-2 -1 -36 -11 -76 -22z"/>
</g>
</svg>
