<?xml version="1.0" standalone="no"?>
<!DOCTYPE svg PUBLIC "-//W3C//DTD SVG 20010904//EN"
 "http://www.w3.org/TR/2001/REC-SVG-20010904/DTD/svg10.dtd">
<svg version="1.0" xmlns="http://www.w3.org/2000/svg"
 width="253.000000pt" height="146.000000pt" viewBox="0 0 253.000000 146.000000"
 preserveAspectRatio="xMidYMid meet">

<g transform="translate(0.000000,146.000000) scale(0.100000,-0.100000)"
fill="#000000" stroke="none">
<path d="M1581 1436 c2 -2 29 -6 59 -9 36 -4 46 -3 30 3 -25 8 -97 13 -89 6z"/>
<path d="M1755 1398 c39 -16 219 -108 268 -137 20 -13 37 -18 37 -13 0 6 -12
17 -27 25 -150 78 -253 126 -278 131 l-30 6 30 -12z"/>
<path d="M1439 1363 l-24 -28 28 24 c25 23 32 31 24 31 -2 0 -14 -12 -28 -27z"/>
<path d="M1268 1333 c6 -2 18 -2 25 0 6 3 1 5 -13 5 -14 0 -19 -2 -12 -5z"/>
<path d="M1353 1333 c9 -2 25 -2 35 0 9 3 1 5 -18 5 -19 0 -27 -2 -17 -5z"/>
<path d="M1198 1323 c6 -2 18 -2 25 0 6 3 1 5 -13 5 -14 0 -19 -2 -12 -5z"/>
<path d="M1128 1313 c6 -2 18 -2 25 0 6 3 1 5 -13 5 -14 0 -19 -2 -12 -5z"/>
<path d="M1033 1303 c9 -2 25 -2 35 0 9 3 1 5 -18 5 -19 0 -27 -2 -17 -5z"/>
<path d="M943 1293 c9 -2 25 -2 35 0 9 3 1 5 -18 5 -19 0 -27 -2 -17 -5z"/>
<path d="M838 1283 c6 -2 18 -2 25 0 6 3 1 5 -13 5 -14 0 -19 -2 -12 -5z"/>
<path d="M738 1273 c6 -2 18 -2 25 0 6 3 1 5 -13 5 -14 0 -19 -2 -12 -5z"/>
<path d="M663 1263 c9 -2 23 -2 30 0 6 3 -1 5 -18 5 -16 0 -22 -2 -12 -5z"/>
<path d="M568 1253 c6 -2 18 -2 25 0 6 3 1 5 -13 5 -14 0 -19 -2 -12 -5z"/>
<path d="M498 1243 c7 -3 16 -2 19 1 4 3 -2 6 -13 5 -11 0 -14 -3 -6 -6z"/>
<path d="M438 1233 c7 -3 16 -2 19 1 4 3 -2 6 -13 5 -11 0 -14 -3 -6 -6z"/>
<path d="M87 1223 c-4 -3 -6 -25 -6 -47 1 -36 2 -38 8 -12 6 27 9 25 105 -89
54 -64 108 -127 120 -140 23 -25 39 -44 106 -124 45 -53 45 -54 51 -145 l5
-91 2 82 c2 68 5 82 20 86 14 4 14 5 -3 6 -11 1 -30 16 -41 34 -26 39 -319
385 -346 409 -11 9 -17 22 -13 27 7 12 2 15 -8 4z"/>
<path d="M198 1223 c12 -2 30 -2 40 0 9 3 -1 5 -23 4 -22 0 -30 -2 -17 -4z"/>
<path d="M348 1223 c12 -2 30 -2 40 0 9 3 -1 5 -23 4 -22 0 -30 -2 -17 -4z"/>
<path d="M2124 1215 c11 -8 26 -15 33 -15 7 0 13 -3 13 -7 0 -5 19 -17 43 -28
45 -22 97 -63 97 -77 0 -5 -13 0 -29 11 -16 12 -32 21 -37 21 -4 0 12 -14 34
-30 43 -31 54 -64 30 -88 -9 -9 -9 -12 3 -12 12 0 16 -12 17 -42 1 -24 4 -69
8 -101 4 -39 2 -62 -6 -72 -7 -9 -10 -18 -6 -22 3 -3 6 -1 6 5 0 7 9 12 20 12
11 0 20 -4 20 -10 0 -5 4 -10 10 -10 24 0 115 -89 115 -113 0 -10 -9 -25 -19
-33 -11 -8 -15 -14 -9 -14 15 0 43 34 43 54 0 22 -68 88 -121 118 -34 19 -39
27 -40 57 0 20 -2 45 -4 56 -2 11 -6 62 -9 114 -5 105 -17 130 -76 163 -19 11
-48 27 -65 36 -16 9 -43 22 -60 29 -27 12 -28 12 -11 -2z"/>
<path d="M2060 1216 c0 -2 7 -7 16 -10 8 -3 12 -2 9 4 -6 10 -25 14 -25 6z"/>
<path d="M2120 1181 c14 -11 30 -21 35 -21 11 0 -7 14 -40 31 -13 7 -12 3 5
-10z"/>
<path d="M2190 1140 c8 -5 20 -10 25 -10 6 0 3 5 -5 10 -8 5 -19 10 -25 10 -5
0 -3 -5 5 -10z"/>
<path d="M2081 1137 c2 -2 20 -14 39 -26 l35 -23 -30 26 c-16 14 -34 26 -39
26 -5 0 -7 -1 -5 -3z"/>
<path d="M2140 1136 c0 -2 7 -7 16 -10 8 -3 12 -2 9 4 -6 10 -25 14 -25 6z"/>
<path d="M97 1065 c3 -30 16 -66 31 -88 22 -32 23 -40 11 -48 -11 -8 -10 -9 6
-5 15 4 28 -6 53 -40 32 -42 33 -47 17 -64 -45 -50 -19 -145 57 -200 43 -32
70 -40 44 -15 -8 8 -18 15 -22 15 -10 0 -53 51 -71 84 -21 39 -21 92 0 113 9
9 18 15 20 12 1 -2 36 -48 77 -103 41 -54 80 -106 85 -114 22 -34 85 -85 85
-69 0 2 -16 21 -36 42 -20 22 -105 128 -190 237 -112 143 -154 205 -155 225 0
15 -4 37 -9 48 -6 13 -7 2 -3 -30z"/>
<path d="M1820 1076 c0 -2 8 -10 18 -17 15 -13 16 -12 3 4 -13 16 -21 21 -21
13z"/>
<path d="M1680 1057 c0 -2 15 -16 33 -33 l32 -29 -29 33 c-28 30 -36 37 -36
29z"/>
<path d="M1741 1047 c2 -1 15 -11 29 -22 l25 -20 -19 23 c-11 12 -24 22 -29
22 -6 0 -8 -1 -6 -3z"/>
<path d="M334 1000 c53 -61 63 -71 39 -35 -12 17 -34 41 -49 55 -19 17 -15 10
10 -20z"/>
<path d="M2230 1036 c0 -2 8 -10 18 -17 15 -13 16 -12 3 4 -13 16 -21 21 -21
13z"/>
<path d="M1900 1016 c0 -2 8 -10 18 -17 15 -13 16 -12 3 4 -13 16 -21 21 -21
13z"/>
<path d="M1812 994 c10 -10 20 -16 22 -13 3 3 -5 11 -17 18 -21 13 -21 12 -5
-5z"/>
<path d="M1990 1006 c0 -2 8 -10 18 -17 15 -13 16 -12 3 4 -13 16 -21 21 -21
13z"/>
<path d="M1780 965 c13 -14 26 -25 28 -25 3 0 -5 11 -18 25 -13 14 -26 25 -28
25 -3 0 5 -11 18 -25z"/>
<path d="M1950 976 c0 -2 8 -10 18 -17 15 -13 16 -12 3 4 -13 16 -21 21 -21
13z"/>
<path d="M2260 960 c-9 -6 -10 -10 -3 -10 6 0 15 5 18 10 8 12 4 12 -15 0z"/>
<path d="M428 945 c6 -11 41 -49 79 -85 l67 -65 -74 80 c-41 44 -76 82 -79 85
-2 3 1 -4 7 -15z"/>
<path d="M42 911 c-15 -15 -9 -23 38 -52 13 -8 13 -10 0 -19 -13 -8 -13 -10 2
-10 28 0 31 20 7 41 -12 10 -26 19 -31 19 -20 0 5 20 35 29 l32 10 -34 -2
c-19 -1 -41 -8 -49 -16z"/>
<path d="M420 888 c18 -25 46 -59 63 -75 22 -21 20 -15 -11 22 -77 93 -84 100
-52 53z"/>
<path d="M1048 923 c7 -3 16 -2 19 1 4 3 -2 6 -13 5 -11 0 -14 -3 -6 -6z"/>
<path d="M1818 923 c7 -3 16 -2 19 1 4 3 -2 6 -13 5 -11 0 -14 -3 -6 -6z"/>
<path d="M1860 920 c8 -5 20 -10 25 -10 6 0 3 5 -5 10 -8 5 -19 10 -25 10 -5
0 -3 -5 5 -10z"/>
<path d="M1723 913 c9 -2 23 -2 30 0 6 3 -1 5 -18 5 -16 0 -22 -2 -12 -5z"/>
<path d="M1908 913 c7 -3 16 -2 19 1 4 3 -2 6 -13 5 -11 0 -14 -3 -6 -6z"/>
<path d="M1990 909 c-31 -6 -30 -6 18 -8 28 0 52 1 52 3 0 8 -37 11 -70 5z"/>
<path d="M2158 913 c7 -3 16 -2 19 1 4 3 -2 6 -13 5 -11 0 -14 -3 -6 -6z"/>
<path d="M617 889 c12 -12 24 -21 27 -18 2 2 -8 13 -22 23 l-27 19 22 -24z"/>
<path d="M1658 903 c6 -2 18 -2 25 0 6 3 1 5 -13 5 -14 0 -19 -2 -12 -5z"/>
<path d="M2088 903 c12 -2 30 -2 40 0 9 3 -1 5 -23 4 -22 0 -30 -2 -17 -4z"/>
<path d="M1603 893 c9 -2 23 -2 30 0 6 3 -1 5 -18 5 -16 0 -22 -2 -12 -5z"/>
<path d="M1528 883 c6 -2 18 -2 25 0 6 3 1 5 -13 5 -14 0 -19 -2 -12 -5z"/>
<path d="M1468 873 c7 -3 16 -2 19 1 4 3 -2 6 -13 5 -11 0 -14 -3 -6 -6z"/>
<path d="M1393 863 c9 -2 25 -2 35 0 9 3 1 5 -18 5 -19 0 -27 -2 -17 -5z"/>
<path d="M700 822 c35 -32 41 -41 26 -42 -11 0 -17 -3 -13 -6 3 -4 14 -4 23 0
15 6 15 8 -2 27 -11 12 -32 30 -49 41 -17 12 -11 4 15 -20z"/>
<path d="M1323 853 c9 -2 23 -2 30 0 6 3 -1 5 -18 5 -16 0 -22 -2 -12 -5z"/>
<path d="M560 847 c0 -2 15 -16 33 -33 l32 -29 -29 33 c-28 30 -36 37 -36 29z"/>
<path d="M1258 843 c6 -2 18 -2 25 0 6 3 1 5 -13 5 -14 0 -19 -2 -12 -5z"/>
<path d="M1168 833 c12 -2 30 -2 40 0 9 3 -1 5 -23 4 -22 0 -30 -2 -17 -4z"/>
<path d="M50 811 c0 -11 8 -26 18 -33 11 -7 18 -23 17 -36 -1 -16 2 -19 9 -12
13 13 -5 66 -22 63 -6 -2 -9 3 -6 11 3 8 1 17 -5 21 -7 3 -11 -2 -11 -14z"/>
<path d="M1088 823 c6 -2 18 -2 25 0 6 3 1 5 -13 5 -14 0 -19 -2 -12 -5z"/>
<path d="M1018 813 c6 -2 18 -2 25 0 6 3 1 5 -13 5 -14 0 -19 -2 -12 -5z"/>
<path d="M948 803 c6 -2 18 -2 25 0 6 3 1 5 -13 5 -14 0 -19 -2 -12 -5z"/>
<path d="M858 793 c6 -2 18 -2 25 0 6 3 1 5 -13 5 -14 0 -19 -2 -12 -5z"/>
<path d="M788 783 c6 -2 18 -2 25 0 6 3 1 5 -13 5 -14 0 -19 -2 -12 -5z"/>
<path d="M627 768 c2 -5 13 -8 23 -8 10 0 21 3 23 8 3 4 -8 7 -23 7 -15 0 -26
-3 -23 -7z"/>
<path d="M543 753 c9 -2 23 -2 30 0 6 3 -1 5 -18 5 -16 0 -22 -2 -12 -5z"/>
<path d="M1748 753 c12 -2 32 -2 45 0 12 2 2 4 -23 4 -25 0 -35 -2 -22 -4z"/>
<path d="M1830 750 c8 -5 24 -10 35 -10 11 0 49 -9 84 -20 35 -10 60 -15 55
-11 -12 12 -100 38 -149 45 -27 4 -35 2 -25 -4z"/>
<path d="M1678 743 c7 -3 16 -2 19 1 4 3 -2 6 -13 5 -11 0 -14 -3 -6 -6z"/>
<path d="M1628 733 c7 -3 16 -2 19 1 4 3 -2 6 -13 5 -11 0 -14 -3 -6 -6z"/>
<path d="M2330 736 c0 -2 8 -10 18 -17 15 -13 16 -12 3 4 -13 16 -21 21 -21
13z"/>
<path d="M1545 723 c-11 -3 -24 -9 -29 -14 -8 -7 45 3 79 16 15 5 -27 4 -50
-2z"/>
<path d="M33 713 c-7 -2 -13 -15 -13 -28 0 -24 35 -56 93 -85 15 -7 27 -19 27
-27 0 -7 5 -13 10 -13 27 0 4 33 -44 64 -30 19 -60 44 -66 56 -9 17 -7 22 12
30 13 5 16 9 8 9 -8 -1 -21 -3 -27 -6z"/>
<path d="M1646 688 c-9 -17 -16 -34 -16 -37 0 -8 26 32 33 52 10 28 0 19 -17
-15z"/>
<path d="M2198 713 c7 -3 16 -2 19 1 4 3 -2 6 -13 5 -11 0 -14 -3 -6 -6z"/>
<path d="M1440 700 c-23 -7 -23 -8 -3 -9 12 -1 25 4 28 9 3 6 5 10 3 9 -2 -1
-14 -5 -28 -9z"/>
<path d="M2038 703 c7 -3 16 -2 19 1 4 3 -2 6 -13 5 -11 0 -14 -3 -6 -6z"/>
<path d="M2078 703 c7 -3 16 -2 19 1 4 3 -2 6 -13 5 -11 0 -14 -3 -6 -6z"/>
<path d="M2128 703 c12 -2 30 -2 40 0 9 3 -1 5 -23 4 -22 0 -30 -2 -17 -4z"/>
<path d="M2370 684 c0 -8 5 -12 10 -9 6 4 8 11 5 16 -9 14 -15 11 -15 -7z"/>
<path d="M1346 681 c-3 -4 6 -6 19 -3 14 2 25 6 25 8 0 8 -39 4 -44 -5z"/>
<path d="M1400 677 c0 -29 76 -68 129 -66 30 1 21 5 -30 13 -21 4 -50 20 -68
36 -17 17 -31 24 -31 17z"/>
<path d="M1298 673 c6 -2 18 -2 25 0 6 3 1 5 -13 5 -14 0 -19 -2 -12 -5z"/>
<path d="M1228 663 c6 -2 18 -2 25 0 6 3 1 5 -13 5 -14 0 -19 -2 -12 -5z"/>
<path d="M1105 650 l-30 -8 27 -1 c15 0 30 4 33 9 3 6 5 9 3 9 -2 -1 -16 -5
-33 -9z"/>
<path d="M1158 653 c6 -2 18 -2 25 0 6 3 1 5 -13 5 -14 0 -19 -2 -12 -5z"/>
<path d="M1841 633 c0 -25 1 -26 9 -8 12 27 12 35 0 35 -5 0 -10 -12 -9 -27z"/>
<path d="M1249 623 l-24 -28 28 24 c15 14 27 26 27 28 0 8 -8 1 -31 -24z"/>
<path d="M1748 643 c7 -3 16 -2 19 1 4 3 -2 6 -13 5 -11 0 -14 -3 -6 -6z"/>
<path d="M1013 633 c9 -2 25 -2 35 0 9 3 1 5 -18 5 -19 0 -27 -2 -17 -5z"/>
<path d="M1695 620 c-12 -13 -16 -28 -12 -47 17 -80 19 -93 10 -93 -5 0 -14 5
-21 12 -9 9 -16 9 -28 -4 -12 -11 -16 -34 -15 -86 0 -57 -3 -73 -17 -81 -9 -6
-11 -11 -5 -11 21 0 42 43 37 79 -3 26 -1 31 9 23 6 -5 30 -15 52 -22 22 -7
42 -16 45 -20 12 -19 76 -15 84 5 3 8 0 14 -6 12 -7 -1 -13 5 -15 14 -4 15 27
33 50 30 4 -1 7 4 7 10 0 6 -7 8 -16 5 -10 -4 -19 4 -29 27 -8 17 -14 26 -15
19 0 -7 5 -23 11 -34 9 -16 8 -23 -2 -29 -11 -7 -21 6 -42 49 -15 31 -25 46
-21 32 4 -14 13 -37 21 -52 12 -24 12 -28 -1 -28 -21 0 -45 27 -52 58 -3 15
-13 47 -20 71 -13 39 -13 46 2 62 10 11 15 19 12 19 -3 0 -13 -9 -23 -20z
m-39 -149 c-3 -5 5 -11 19 -13 17 -4 25 -1 25 8 0 17 17 18 23 2 2 -7 -3 -19
-12 -26 -14 -11 -14 -11 1 -6 10 3 20 -2 27 -15 15 -27 14 -30 -9 -24 -11 3
-17 9 -14 14 3 5 -1 6 -9 3 -8 -3 -21 1 -28 9 -8 7 -20 12 -27 9 -12 -4 -17
29 -5 41 9 10 15 9 9 -2z m144 -72 c7 -11 9 -23 6 -26 -9 -9 -34 5 -46 26 -9
18 -8 21 9 21 11 0 25 -9 31 -21z"/>
<path d="M1879 606 c11 -22 18 -28 21 -19 5 12 9 11 21 -4 9 -10 21 -27 27
-38 6 -11 12 -15 12 -9 0 11 70 -49 70 -60 0 -2 -6 -6 -12 -9 -7 -2 -3 -2 9 0
12 2 41 -7 64 -19 23 -12 66 -24 96 -26 29 -2 53 -9 53 -14 0 -5 5 -6 11 -3 5
4 25 9 42 12 47 7 46 13 -4 12 -72 -1 -136 3 -146 10 -5 3 -15 15 -22 26 -10
16 -11 16 -7 2 5 -15 3 -16 -15 -7 -11 6 -23 18 -26 26 -3 7 -9 11 -14 8 -14
-8 -39 15 -39 35 1 13 3 13 18 -4 9 -11 22 -20 27 -20 24 -1 91 -29 103 -43 7
-9 12 -11 12 -4 0 7 7 12 15 12 8 0 15 -8 15 -17 0 -11 3 -14 8 -7 10 15 73
16 90 1 12 -9 14 -8 11 8 -3 16 -12 19 -52 18 -34 -1 -50 3 -57 15 -5 10 -10
12 -10 5 0 -28 -27 -11 -38 25 -10 33 -10 34 -6 5 7 -40 -16 -46 -40 -11 -9
12 -16 17 -16 10 0 -9 -6 -9 -25 0 -18 8 -25 18 -23 32 4 24 -38 66 -65 66
-11 0 -21 -9 -24 -20 -3 -11 -9 -17 -14 -14 -5 3 -6 10 -3 16 5 7 2 8 -5 3 -8
-4 -25 1 -42 14 -38 28 -39 27 -20 -13z m129 -8 c-6 -18 -25 -20 -31 -3 -5 10
0 15 14 15 12 0 19 -5 17 -12z m30 -32 c3 -12 -1 -17 -10 -14 -7 3 -15 13 -16
22 -3 12 1 17 10 14 7 -3 15 -13 16 -22z m-28 -28 c0 -6 -7 -5 -15 2 -8 7 -15
17 -15 22 0 6 7 5 15 -2 8 -7 15 -17 15 -22z"/>
<path d="M958 623 c7 -3 16 -2 19 1 4 3 -2 6 -13 5 -11 0 -14 -3 -6 -6z"/>
<path d="M1771 614 c0 -11 3 -14 6 -6 3 7 2 16 -1 19 -3 4 -6 -2 -5 -13z"/>
<path d="M2281 604 c-12 -15 -21 -31 -21 -35 0 -17 -21 -9 -60 22 -23 18 -46
29 -57 26 -14 -4 -13 -5 5 -6 15 -1 26 -9 29 -21 3 -11 9 -18 13 -15 8 5 35
-22 43 -45 4 -12 6 -12 6 1 2 27 31 32 41 6 8 -18 9 -16 4 11 -4 22 0 41 10
57 22 33 13 32 -13 -1z"/>
<path d="M2343 612 c10 -10 17 -27 17 -37 0 -10 3 -15 7 -12 10 11 43 -24 43
-46 0 -11 3 -17 7 -14 7 7 33 -11 33 -22 0 -4 -25 -8 -56 -9 -71 -2 -84 -12
-18 -13 27 -1 61 -2 77 -2 19 -1 27 -6 27 -19 0 -10 4 -18 10 -18 19 0 -11 54
-65 116 -30 34 -55 65 -55 68 0 3 14 0 31 -6 16 -6 32 -8 35 -5 3 3 -8 8 -25
12 -17 4 -33 11 -36 16 -4 5 -16 9 -27 9 -20 0 -20 -1 -5 -18z"/>
<path d="M888 613 c6 -2 18 -2 25 0 6 3 1 5 -13 5 -14 0 -19 -2 -12 -5z"/>
<path d="M828 603 c7 -3 16 -2 19 1 4 3 -2 6 -13 5 -11 0 -14 -3 -6 -6z"/>
<path d="M965 599 c4 -5 12 -9 20 -9 7 0 15 -4 17 -8 2 -5 20 -12 42 -15 21
-3 37 -5 35 -2 -10 9 -119 42 -114 34z"/>
<path d="M2093 592 c-18 -15 -19 -19 -5 -31 13 -12 14 -12 10 0 -3 8 1 22 10
32 20 22 11 22 -15 -1z"/>
<path d="M2317 589 c4 -13 8 -18 11 -10 2 7 -1 18 -6 23 -8 8 -9 4 -5 -13z"/>
<path d="M353 593 c9 -2 25 -2 35 0 9 3 1 5 -18 5 -19 0 -27 -2 -17 -5z"/>
<path d="M758 593 c6 -2 18 -2 25 0 6 3 1 5 -13 5 -14 0 -19 -2 -12 -5z"/>
<path d="M1811 594 c-1 -15 40 -136 45 -131 2 2 -7 35 -20 73 -14 38 -25 64
-25 58z"/>
<path d="M1851 584 c0 -11 3 -14 6 -6 3 7 2 16 -1 19 -3 4 -6 -2 -5 -13z"/>
<path d="M703 583 c9 -2 23 -2 30 0 6 3 -1 5 -18 5 -16 0 -22 -2 -12 -5z"/>
<path d="M1453 577 c4 -10 7 -25 7 -33 0 -8 5 -13 11 -11 6 1 14 -4 16 -10 3
-10 -3 -10 -27 -1 -26 9 -31 15 -27 34 8 46 -26 20 -38 -29 -8 -31 -13 -33
-43 -11 -12 8 -22 11 -22 7 0 -18 25 -33 52 -33 20 0 28 -5 28 -17 0 -15 2
-15 9 -4 8 13 12 13 27 0 9 -8 18 -13 18 -12 1 1 10 0 22 -3 19 -5 20 -10 15
-56 -1 -3 -9 -9 -18 -11 -14 -4 -13 -5 4 -6 12 0 24 -10 28 -21 7 -22 51 -60
69 -60 6 1 1 9 -10 18 -30 25 -50 69 -57 122 -13 90 -22 116 -53 141 -16 12
-17 12 -11 -4z m-6 -70 c11 4 53 -26 53 -38 0 -4 -20 1 -45 10 -33 12 -45 21
-45 36 1 18 2 18 13 4 7 -9 17 -14 24 -12z"/>
<path d="M1781 580 c0 -8 6 -28 14 -45 17 -39 18 -21 0 25 -7 19 -14 28 -14
20z"/>
<path d="M2141 574 c0 -11 3 -14 6 -6 3 7 2 16 -1 19 -3 4 -6 -2 -5 -13z"/>
<path d="M658 573 c7 -3 16 -2 19 1 4 3 -2 6 -13 5 -11 0 -14 -3 -6 -6z"/>
<path d="M1148 573 c7 -3 16 -2 19 1 4 3 -2 6 -13 5 -11 0 -14 -3 -6 -6z"/>
<path d="M576 561 c-3 -4 6 -6 19 -3 14 2 25 6 25 8 0 8 -39 4 -44 -5z"/>
<path d="M108 543 c-20 -23 -29 -55 -20 -69 4 -7 26 -17 49 -23 26 -7 47 -20
54 -34 7 -12 44 -65 83 -117 39 -52 90 -124 114 -160 51 -76 91 -120 108 -120
7 0 -1 15 -17 33 -17 17 -47 57 -66 87 -20 30 -75 107 -122 170 -48 64 -90
123 -93 132 -4 8 -18 16 -32 16 -14 0 -37 7 -51 16 -26 17 -25 36 3 69 8 9 13
17 10 17 -3 0 -12 -8 -20 -17z"/>
<path d="M528 553 c6 -2 18 -2 25 0 6 3 1 5 -13 5 -14 0 -19 -2 -12 -5z"/>
<path d="M1861 550 c0 -8 6 -28 14 -45 17 -39 18 -21 0 25 -7 19 -14 28 -14
20z"/>
<path d="M2181 555 c1 -19 18 -51 18 -35 0 8 -4 22 -9 30 -5 8 -9 11 -9 5z"/>
<path d="M2331 550 c0 -8 4 -24 9 -35 5 -13 9 -14 9 -5 0 8 -4 24 -9 35 -5 13
-9 14 -9 5z"/>
<path d="M2371 534 c0 -11 3 -14 6 -6 3 7 2 16 -1 19 -3 4 -6 -2 -5 -13z"/>
<path d="M763 529 c-24 -9 -41 -31 -21 -27 7 2 19 9 26 15 18 17 52 -1 52 -27
0 -18 -40 -70 -40 -52 0 4 -5 0 -10 -8 -9 -13 -11 -13 -19 -1 -6 10 -9 2 -8
-26 1 -24 7 -40 14 -40 8 0 11 9 7 26 -5 24 -4 25 9 9 8 -10 20 -18 28 -18 8
0 6 5 -6 14 -16 12 -17 16 -6 30 17 20 41 4 41 -26 0 -11 4 -16 11 -12 8 5 8
1 0 -13 -6 -11 -8 -23 -4 -26 3 -3 2 -14 -1 -24 -4 -10 -7 -19 -7 -20 0 -2 -4
-15 -8 -30 -6 -19 -4 -32 4 -40 7 -7 15 -17 16 -22 2 -6 18 -12 34 -14 17 -3
24 -2 16 0 -8 3 -24 15 -35 27 -25 24 -25 58 -1 125 16 46 10 72 -21 89 -13 7
-14 13 -6 29 24 44 -14 81 -65 62z"/>
<path d="M1914 510 c8 -19 19 -35 25 -36 7 -2 7 0 1 3 -5 2 -10 10 -10 17 0 7
-7 21 -15 32 -13 17 -13 15 -1 -16z"/>
<path d="M1095 521 c-3 -6 4 -8 17 -6 26 5 90 -13 99 -28 4 -6 9 -5 13 1 3 6
-15 17 -41 26 -53 18 -79 20 -88 7z"/>
<path d="M1288 515 c-3 -6 1 -23 8 -40 14 -32 17 -17 5 25 -4 14 -9 20 -13 15z"/>
<path d="M1062 472 c-7 -22 -12 -48 -12 -59 0 -30 -38 -134 -58 -158 -9 -12
-3 -6 15 13 18 19 32 37 31 41 -3 24 4 32 20 26 14 -5 15 -4 5 6 -21 21 -16
42 6 29 11 -5 33 -10 50 -10 16 0 33 -4 36 -10 3 -5 0 -10 -8 -10 -8 0 -17 -6
-20 -12 -3 -9 10 -14 45 -15 28 -1 46 2 42 8 -3 5 -9 7 -14 4 -10 -6 -40 22
-40 39 0 6 -12 11 -27 10 -16 -1 -34 4 -42 10 -8 6 -17 10 -20 8 -3 -2 -7 2
-10 9 -2 7 1 9 8 4 9 -5 10 3 5 30 -4 23 -3 40 4 44 6 4 7 12 3 19 -5 8 -12
-1 -19 -26z"/>
<path d="M1254 502 c-8 -5 -8 -18 1 -47 l12 -40 -1 47 c-1 27 -1 48 -1 48 0 0
-5 -4 -11 -8z"/>
<path d="M700 475 c-8 -16 -25 -27 -47 -31 -21 -4 -42 -17 -55 -35 -19 -25
-23 -26 -42 -14 -14 10 -26 11 -36 5 -25 -16 -36 -11 -56 25 -17 33 -44 48
-44 25 0 -5 4 -10 9 -10 5 0 13 -9 16 -20 4 -11 11 -17 17 -14 7 4 8 2 4 -4
-4 -7 -2 -20 3 -29 6 -10 11 -12 11 -5 0 22 18 13 29 -15 l11 -28 -6 29 c-7
41 14 51 43 20 17 -18 23 -21 23 -10 0 9 3 16 8 16 4 0 12 10 17 23 6 12 19
22 30 23 12 1 30 6 42 13 18 9 22 8 26 -7 2 -9 3 -5 1 9 -2 14 2 31 8 37 7 7
9 14 7 17 -3 3 -12 -6 -19 -20z"/>
<path d="M1965 491 c-3 -5 -1 -12 5 -16 5 -3 10 1 10 9 0 18 -6 21 -15 7z"/>
<path d="M1121 474 c0 -11 3 -14 6 -6 3 7 2 16 -1 19 -3 4 -6 -2 -5 -13z"/>
<path d="M1151 485 c1 -19 18 -51 18 -35 0 8 -4 22 -9 30 -5 8 -9 11 -9 5z"/>
<path d="M1191 474 c0 -11 3 -14 6 -6 3 7 2 16 -1 19 -3 4 -6 -2 -5 -13z"/>
<path d="M1576 477 c3 -10 9 -15 12 -12 3 3 0 11 -7 18 -10 9 -11 8 -5 -6z"/>
<path d="M761 464 c0 -11 3 -14 6 -6 3 7 2 16 -1 19 -3 4 -6 -2 -5 -13z"/>
<path d="M1331 464 c0 -11 3 -14 6 -6 3 7 2 16 -1 19 -3 4 -6 -2 -5 -13z"/>
<path d="M1371 456 c-1 -24 1 -27 14 -16 16 14 21 25 6 15 -5 -3 -12 3 -14 12
-3 11 -5 6 -6 -11z"/>
<path d="M1890 460 c0 -5 7 -7 15 -4 8 4 15 8 15 10 0 2 -7 4 -15 4 -8 0 -15
-4 -15 -10z"/>
<path d="M378 453 c6 -2 18 -2 25 0 6 3 1 5 -13 5 -14 0 -19 -2 -12 -5z"/>
<path d="M238 443 c12 -2 30 -2 40 0 9 3 -1 5 -23 4 -22 0 -30 -2 -17 -4z"/>
<path d="M308 441 c6 -3 20 -30 33 -58 12 -29 26 -53 31 -53 4 0 5 -6 2 -13
-5 -14 59 -93 111 -137 16 -14 42 -38 59 -54 28 -27 30 -28 43 -10 7 10 13 23
13 28 0 15 45 66 58 66 6 0 9 7 6 15 -9 21 20 62 57 81 17 8 29 18 26 20 -3 3
-23 -7 -45 -21 -27 -18 -43 -37 -47 -56 -4 -16 -10 -27 -15 -24 -4 3 -18 -14
-29 -38 -13 -27 -28 -43 -40 -44 -24 -2 -141 107 -141 131 0 9 -4 15 -8 12 -8
-5 -44 29 -37 36 2 1 -3 26 -10 53 -8 28 -14 43 -14 36 -1 -11 -4 -12 -13 -3
-8 8 -8 15 1 26 10 12 8 15 -19 14 -17 -1 -27 -4 -22 -7z"/>
<path d="M1591 434 c0 -11 3 -14 6 -6 3 7 2 16 -1 19 -3 4 -6 -2 -5 -13z"/>
<path d="M386 413 c3 -14 9 -34 15 -45 5 -10 7 -18 4 -18 -14 0 24 -56 68 -98
9 -9 17 -22 17 -30 0 -7 4 -11 9 -8 4 3 13 -6 20 -21 6 -14 15 -23 18 -19 3 3
12 1 20 -5 10 -9 13 -8 13 2 0 23 -14 36 -32 34 -10 -2 -17 0 -16 3 1 4 -2 22
-6 41 -6 24 -11 30 -17 20 -6 -10 -12 -4 -23 21 -8 19 -18 34 -23 32 -4 -2
-10 6 -13 18 -3 12 -9 21 -15 20 -5 -1 -14 17 -19 39 -10 45 -28 57 -20 14z"/>
<path d="M1201 434 c-1 -6 6 -33 14 -60 8 -27 14 -53 14 -58 -1 -12 22 -26 44
-26 21 0 47 23 47 42 0 7 -7 2 -16 -10 -20 -30 -30 -28 -37 7 -4 17 -14 31
-23 33 -10 2 -22 20 -30 43 -6 22 -12 35 -13 29z m56 -99 c9 -25 -4 -29 -17
-6 -7 15 -7 21 0 21 6 0 13 -7 17 -15z"/>
<path d="M1314 416 c1 -14 5 -29 9 -32 3 -3 4 6 3 20 -2 15 -6 29 -9 32 -3 4
-5 -6 -3 -20z"/>
<path d="M1345 430 c-3 -5 -3 -21 1 -35 4 -15 2 -25 -5 -25 -6 0 -11 -8 -10
-17 0 -11 3 -13 6 -5 2 6 14 12 26 13 12 0 16 3 9 6 -10 4 -8 12 10 32 22 25
22 25 1 7 -20 -17 -23 -17 -29 -3 -3 9 -3 21 1 27 3 5 4 10 1 10 -3 0 -7 -4
-11 -10z"/>
<path d="M1916 431 c-7 -11 13 -22 64 -35 15 -3 11 1 -10 10 -19 9 -38 21 -41
26 -4 7 -9 6 -13 -1z"/>
<path d="M2430 430 c8 -5 22 -10 30 -10 13 0 13 1 0 10 -8 5 -22 10 -30 10
-13 0 -13 -1 0 -10z"/>
<path d="M1137 409 c4 -13 8 -18 11 -10 2 7 -1 18 -6 23 -8 8 -9 4 -5 -13z"/>
<path d="M671 404 c0 -11 3 -14 6 -6 3 7 2 16 -1 19 -3 4 -6 -2 -5 -13z"/>
<path d="M971 404 c0 -11 3 -14 6 -6 3 7 2 16 -1 19 -3 4 -6 -2 -5 -13z"/>
<path d="M1101 404 c0 -11 3 -14 6 -6 3 7 2 16 -1 19 -3 4 -6 -2 -5 -13z"/>
<path d="M1171 415 c1 -19 18 -51 18 -35 0 8 -4 22 -9 30 -5 8 -9 11 -9 5z"/>
<path d="M1870 410 c0 -5 7 -7 15 -4 8 4 15 8 15 10 0 2 -7 4 -15 4 -8 0 -15
-4 -15 -10z"/>
<path d="M431 393 c7 -12 15 -20 18 -17 3 2 -3 12 -13 22 -17 16 -18 16 -5 -5z"/>
<path d="M1271 393 c-2 -17 10 -43 19 -43 4 0 10 7 13 14 4 10 1 13 -8 10 -7
-3 -15 2 -18 13 -3 10 -5 13 -6 6z"/>
<path d="M2198 393 c7 -3 16 -2 19 1 4 3 -2 6 -13 5 -11 0 -14 -3 -6 -6z"/>
<path d="M2010 386 c0 -2 9 -6 20 -9 11 -3 20 -1 20 4 0 5 -9 9 -20 9 -11 0
-20 -2 -20 -4z"/>
<path d="M2138 383 c6 -2 18 -2 25 0 6 3 1 5 -13 5 -14 0 -19 -2 -12 -5z"/>
<path d="M1418 373 c7 -3 16 -2 19 1 4 3 -2 6 -13 5 -11 0 -14 -3 -6 -6z"/>
<path d="M601 365 c1 -19 18 -51 18 -35 0 8 -4 22 -9 30 -5 8 -9 11 -9 5z"/>
<path d="M698 351 c-16 -9 -28 -22 -28 -28 0 -8 7 -6 19 6 10 10 25 21 32 23
8 3 12 7 9 10 -3 3 -17 -2 -32 -11z"/>
<path d="M790 360 c0 -6 -7 -10 -15 -10 -8 0 -15 -5 -15 -10 0 -7 6 -7 18 -2
9 5 24 11 31 14 12 3 12 6 -2 11 -9 3 -17 2 -17 -3z"/>
<path d="M537 339 c4 -13 8 -18 11 -10 2 7 -1 18 -6 23 -8 8 -9 4 -5 -13z"/>
<path d="M1190 349 c0 -5 5 -7 10 -4 6 3 10 8 10 11 0 2 -4 4 -10 4 -5 0 -10
-5 -10 -11z"/>
<path d="M481 334 c0 -11 3 -14 6 -6 3 7 2 16 -1 19 -3 4 -6 -2 -5 -13z"/>
<path d="M1098 333 c7 -3 16 -2 19 1 4 3 -2 6 -13 5 -11 0 -14 -3 -6 -6z"/>
<path d="M647 316 c-4 -9 -12 -14 -17 -11 -6 4 -9 1 -8 -7 2 -7 -3 -12 -11
-10 -9 2 -12 -4 -8 -17 5 -19 -14 -46 -25 -36 -3 3 -3 -7 0 -22 l5 -28 9 28
c6 15 14 27 19 27 5 0 9 7 9 15 0 8 5 15 10 15 6 0 10 6 10 14 0 8 5 16 12 18
6 2 9 10 6 18 -3 11 -6 10 -11 -4z"/>
<path d="M521 304 c0 -11 3 -14 6 -6 3 7 2 16 -1 19 -3 4 -6 -2 -5 -13z"/>
<path d="M1758 293 c7 -3 16 -2 19 1 4 3 -2 6 -13 5 -11 0 -14 -3 -6 -6z"/>
<path d="M557 269 c4 -13 8 -18 11 -10 2 7 -1 18 -6 23 -8 8 -9 4 -5 -13z"/>
<path d="M1915 280 c11 -5 27 -9 35 -9 9 0 8 4 -5 9 -11 5 -27 9 -35 9 -9 0
-8 -4 5 -9z"/>
<path d="M531 264 c0 -11 3 -14 6 -6 3 7 2 16 -1 19 -3 4 -6 -2 -5 -13z"/>
<path d="M1618 263 c7 -3 16 -2 19 1 4 3 -2 6 -13 5 -11 0 -14 -3 -6 -6z"/>
<path d="M1998 263 c6 -2 18 -2 25 0 6 3 1 5 -13 5 -14 0 -19 -2 -12 -5z"/>
<path d="M1558 253 c7 -3 16 -2 19 1 4 3 -2 6 -13 5 -11 0 -14 -3 -6 -6z"/>
<path d="M2068 253 c7 -3 16 -2 19 1 4 3 -2 6 -13 5 -11 0 -14 -3 -6 -6z"/>
<path d="M733 237 c-23 -7 -45 -15 -48 -19 -10 -9 78 13 90 23 5 5 7 9 5 8 -3
-1 -24 -6 -47 -12z"/>
<path d="M1488 243 c6 -2 18 -2 25 0 6 3 1 5 -13 5 -14 0 -19 -2 -12 -5z"/>
<path d="M1428 233 c7 -3 16 -2 19 1 4 3 -2 6 -13 5 -11 0 -14 -3 -6 -6z"/>
<path d="M934 214 c-18 -14 -18 -15 4 -4 12 6 22 13 22 15 0 8 -5 6 -26 -11z"/>
<path d="M1358 223 c6 -2 18 -2 25 0 6 3 1 5 -13 5 -14 0 -19 -2 -12 -5z"/>
<path d="M1318 213 c7 -3 16 -2 19 1 4 3 -2 6 -13 5 -11 0 -14 -3 -6 -6z"/>
<path d="M1258 203 c7 -3 16 -2 19 1 4 3 -2 6 -13 5 -11 0 -14 -3 -6 -6z"/>
<path d="M1218 193 c7 -3 16 -2 19 1 4 3 -2 6 -13 5 -11 0 -14 -3 -6 -6z"/>
<path d="M1128 173 c7 -3 16 -2 19 1 4 3 -2 6 -13 5 -11 0 -14 -3 -6 -6z"/>
<path d="M1088 163 c7 -3 16 -2 19 1 4 3 -2 6 -13 5 -11 0 -14 -3 -6 -6z"/>
<path d="M988 143 c7 -3 16 -2 19 1 4 3 -2 6 -13 5 -11 0 -14 -3 -6 -6z"/>
<path d="M948 133 c7 -3 16 -2 19 1 4 3 -2 6 -13 5 -11 0 -14 -3 -6 -6z"/>
<path d="M788 103 c7 -3 16 -2 19 1 4 3 -2 6 -13 5 -11 0 -14 -3 -6 -6z"/>
</g>
</svg>
