<?xml version="1.0" standalone="no"?>
<!DOCTYPE svg PUBLIC "-//W3C//DTD SVG 20010904//EN"
 "http://www.w3.org/TR/2001/REC-SVG-20010904/DTD/svg10.dtd">
<svg version="1.0" xmlns="http://www.w3.org/2000/svg"
 width="212.000000pt" height="211.000000pt" viewBox="0 0 212.000000 211.000000"
 preserveAspectRatio="xMidYMid meet">

<g transform="translate(0.000000,211.000000) scale(0.100000,-0.100000)"
fill="#000000" stroke="none">
<path d="M1003 2014 c-43 -21 -66 -70 -53 -114 11 -37 56 -90 78 -90 11 0 13
-25 7 -147 -3 -82 -8 -162 -11 -179 l-4 -31 -83 -7 c-240 -18 -548 -150 -669
-285 -118 -131 -147 -284 -66 -347 28 -22 26 -61 -2 -44 -8 5 -22 10 -30 10
-8 0 -4 -6 10 -13 14 -7 30 -27 35 -44 20 -61 89 -107 110 -73 3 5 0 7 -9 4
-38 -15 -98 61 -88 113 4 20 9 23 26 18 11 -3 74 -10 139 -14 97 -7 122 -12
140 -29 33 -29 59 -34 100 -17 44 18 84 19 90 3 3 -8 6 -6 6 5 1 21 21 23 21
2 0 -20 -42 -37 -52 -21 -5 7 -8 5 -8 -5 0 -38 -83 -39 -139 -2 -23 15 -41 31
-41 37 0 5 -6 3 -12 -6 -7 -9 -21 -18 -31 -20 -10 -2 -40 -24 -67 -50 -41 -39
-57 -48 -86 -48 -42 0 -107 36 -97 53 3 7 3 9 -1 5 -12 -10 -56 35 -65 68 -8
25 -9 26 -10 6 -1 -34 23 -75 66 -110 l38 -31 -32 -1 c-17 0 -34 -3 -36 -7 -3
-5 41 -5 96 -1 56 5 140 10 187 13 47 3 105 10 130 16 25 5 70 9 100 9 61 -2
420 6 663 14 86 3 157 2 157 -2 0 -4 93 -8 207 -10 114 -2 215 -8 225 -13 24
-13 24 -34 1 -23 -10 5 -91 8 -179 7 l-162 -2 -73 -41 c-41 -22 -82 -40 -93
-40 -20 0 -121 22 -231 51 -54 13 -113 18 -250 19 -161 2 -186 0 -240 -19 -33
-12 -60 -21 -60 -21 0 6 -68 -27 -97 -47 -37 -25 -38 -25 -78 -9 -22 9 -56 16
-74 16 -18 0 -64 11 -101 25 -101 38 -107 35 -120 -56 -9 -67 -8 -75 5 -67 11
7 14 25 12 73 l-4 64 29 -8 c15 -5 53 -18 83 -30 30 -11 70 -21 87 -21 18 0
51 -7 73 -16 39 -16 40 -16 87 15 26 17 88 44 137 59 86 27 100 28 261 26 159
-2 179 -4 312 -38 79 -20 151 -36 160 -36 10 0 55 20 100 44 l82 44 143 1 c79
0 150 -2 158 -4 12 -4 14 -17 12 -59 l-4 -53 -401 -7 c-719 -11 -771 -13 -832
-26 -65 -15 -289 -19 -400 -8 -64 7 -66 6 -25 -4 25 -6 134 -12 244 -12 l199
-1 23 -35 c12 -19 23 -45 23 -58 1 -14 5 -20 12 -17 5 4 9 19 7 33 -3 25 0 27
40 30 43 3 43 3 63 -47 12 -27 27 -52 35 -55 7 -3 27 6 43 19 34 29 48 31 73
8 17 -15 19 -15 37 1 12 11 25 15 33 10 7 -5 21 -7 31 -6 11 2 21 -6 27 -22
11 -30 18 -32 48 -10 18 12 36 15 77 9 50 -6 57 -4 80 19 21 21 24 30 15 45
-5 11 -10 22 -10 25 0 3 54 6 120 6 l121 0 -6 -34 c-7 -33 -6 -34 32 -40 21
-4 51 -2 66 3 32 13 37 24 5 13 -13 -5 -39 -6 -58 -3 -34 6 -35 7 -32 46 4 48
-22 80 -54 68 -17 -6 -17 -8 5 -13 54 -12 28 -25 -54 -26 -71 -2 -84 0 -75 12
7 7 9 22 5 34 -6 19 -2 20 92 21 220 2 399 -3 415 -12 10 -5 18 -20 18 -33 0
-19 7 -25 35 -30 21 -4 35 -13 35 -21 0 -21 -27 -19 -56 4 -19 15 -32 17 -64
11 -52 -9 -66 -23 -20 -18 l35 3 0 -132 c0 -88 3 -129 10 -122 6 6 9 62 8 135
-2 68 0 124 3 124 3 0 17 -9 31 -20 20 -15 29 -17 45 -9 29 16 20 53 -14 57
-20 2 -28 9 -28 23 0 10 -9 27 -20 36 -15 13 -20 30 -20 68 0 39 4 53 20 63
24 15 25 30 3 54 -15 17 -15 18 14 12 31 -6 73 9 73 27 0 5 -27 21 -60 36 -49
21 -60 30 -60 49 0 12 -9 29 -20 37 -20 14 -19 14 5 25 35 16 65 70 65 118 0
124 -169 297 -386 395 -122 56 -350 109 -466 109 -83 0 -79 -10 -72 184 l7
171 30 24 c65 53 68 143 4 181 -38 24 -52 24 -94 4z m95 -36 c16 -16 22 -33
22 -65 0 -55 -27 -86 -73 -81 -69 7 -106 135 -47 165 31 16 68 9 98 -19z m-77
-610 c1 -72 17 -53 18 21 l1 44 103 -6 c279 -18 552 -130 712 -294 103 -106
135 -220 78 -275 -16 -15 -48 -31 -73 -37 -60 -14 -1477 -33 -1549 -21 -98 17
-130 50 -130 135 -1 100 60 204 163 282 149 111 434 209 619 212 l57 1 1 -62z
m883 -591 c19 -31 -10 -39 -134 -34 -80 4 -129 11 -160 24 l-45 18 135 6 c183
7 191 7 204 -14z m-437 6 c-3 -5 14 -8 36 -8 23 0 67 -11 97 -24 48 -21 71
-24 192 -25 78 -1 134 -5 130 -10 -3 -5 0 -6 5 -3 6 4 33 -3 59 -15 l49 -23
-60 -6 c-76 -9 -467 0 -478 10 -5 5 -27 5 -50 1 -23 -4 -123 -10 -222 -14 -99
-3 -190 -9 -202 -12 -19 -5 -23 -2 -23 15 0 25 35 36 72 22 18 -7 44 -5 89 6
35 8 102 18 150 21 55 5 94 13 112 25 39 25 33 30 -7 6 -27 -16 -44 -19 -83
-13 -36 4 -67 0 -118 -16 -55 -17 -83 -20 -132 -15 -58 6 -64 5 -86 -19 -30
-32 -57 -34 -57 -3 0 32 -10 42 -57 55 -71 21 -61 32 29 33 105 2 517 15 541
17 10 1 16 -1 14 -5z m-764 -23 c-23 -5 -51 -14 -62 -19 -29 -16 -56 -13 -82
9 l-24 19 105 0 c84 -1 97 -3 63 -9z m121 -18 c23 -11 53 -24 69 -30 37 -16
34 -32 -7 -32 -38 0 -125 47 -126 68 0 17 17 15 64 -6z m-279 -57 c22 -14 54
-25 70 -26 l30 0 -25 -10 c-14 -6 -65 -12 -115 -15 -49 -2 -101 -7 -115 -10
l-25 -6 25 28 c30 32 80 64 100 64 8 -1 33 -12 55 -25z m253 3 c36 -22 36 -22
12 -29 -32 -9 -124 -11 -145 -3 -11 5 -3 13 32 29 60 29 59 29 101 3z m612
-244 c12 -32 6 -44 -24 -44 -34 0 -50 -23 -36 -50 22 -41 6 -53 -58 -46 -44 5
-62 3 -80 -10 -26 -18 -52 -13 -52 11 0 9 -9 15 -22 15 -13 0 -30 5 -38 10
-10 6 -20 4 -32 -7 -17 -15 -20 -15 -37 1 -20 19 -56 11 -80 -18 -22 -27 -41
-18 -61 29 -24 55 -54 72 -101 56 -18 -6 -33 -10 -34 -9 0 2 -8 15 -17 29
l-17 27 37 6 c20 3 123 6 227 7 156 1 338 9 403 17 7 1 17 -10 22 -24z"/>
<path d="M880 426 c0 -2 7 -7 16 -10 8 -3 12 -2 9 4 -6 10 -25 14 -25 6z"/>
<path d="M1240 371 c0 -6 5 -13 10 -16 6 -3 10 1 10 9 0 9 -4 16 -10 16 -5 0
-10 -4 -10 -9z"/>
<path d="M910 350 c0 -5 5 -10 11 -10 5 0 7 5 4 10 -3 6 -8 10 -11 10 -2 0 -4
-4 -4 -10z"/>
<path d="M439 739 l-24 -20 27 16 c20 13 27 13 31 3 4 -8 6 -7 6 5 1 23 -12
22 -40 -4z"/>
<path d="M389 703 c-13 -16 -12 -17 4 -4 9 7 17 15 17 17 0 8 -8 3 -21 -13z"/>
<path d="M349 673 c-13 -16 -12 -17 4 -4 16 13 21 21 13 21 -2 0 -10 -8 -17
-17z"/>
<path d="M145 567 c-9 -22 18 -57 29 -38 4 6 3 11 -3 11 -5 0 -11 10 -14 23
-3 20 -4 20 -12 4z"/>
<path d="M1485 430 c10 -11 25 -20 33 -20 9 0 6 7 -11 20 -14 11 -29 20 -33
20 -4 0 1 -9 11 -20z"/>
<path d="M1793 419 c9 -5 17 -19 17 -29 0 -11 4 -20 10 -20 10 0 3 27 -13 48
-5 6 -15 12 -21 12 -6 0 -3 -5 7 -11z"/>
<path d="M1671 384 c0 -11 3 -14 6 -6 3 7 2 16 -1 19 -3 4 -6 -2 -5 -13z"/>
<path d="M130 351 c-23 -44 -5 -111 30 -111 10 0 22 4 25 10 3 5 0 7 -8 4 -35
-13 -60 53 -37 97 6 10 8 19 6 19 -3 0 -10 -9 -16 -19z"/>
<path d="M362 350 c0 -14 2 -19 5 -12 2 6 2 18 0 25 -3 6 -5 1 -5 -13z"/>
<path d="M453 361 c-21 -10 -26 -19 -38 -78 -12 -58 -27 -53 -69 22 -15 28
-29 41 -46 42 -25 3 -25 3 -2 -7 13 -5 31 -29 42 -55 11 -25 27 -48 36 -52 22
-8 54 30 54 66 0 47 9 52 106 48 l89 -3 5 -50 c6 -63 32 -70 82 -23 l33 31
-34 -26 c-49 -39 -65 -32 -69 32 l-3 52 -37 -1 c-20 0 -57 2 -82 5 -25 3 -55
2 -67 -3z"/>
<path d="M1779 334 c36 -30 75 -29 78 1 1 16 1 16 -3 3 -7 -24 -37 -23 -59 2
-10 11 -24 20 -32 20 -8 0 -1 -11 16 -26z"/>
<path d="M249 323 c-13 -16 -12 -17 4 -4 9 7 17 15 17 17 0 8 -8 3 -21 -13z"/>
<path d="M207 273 c-4 -3 -7 -42 -7 -85 0 -100 12 -113 105 -123 75 -8 1370
13 1510 25 80 7 77 7 -35 4 -317 -10 -1336 -22 -1428 -17 -57 3 -110 12 -120
19 -14 10 -17 28 -17 98 0 47 0 86 -1 86 0 0 -4 -3 -7 -7z"/>
</g>
</svg>
