<?xml version="1.0" standalone="no"?>
<!DOCTYPE svg PUBLIC "-//W3C//DTD SVG 20010904//EN"
 "http://www.w3.org/TR/2001/REC-SVG-20010904/DTD/svg10.dtd">
<svg version="1.0" xmlns="http://www.w3.org/2000/svg"
 width="245.000000pt" height="141.000000pt" viewBox="0 0 245.000000 141.000000"
 preserveAspectRatio="xMidYMid meet">

<g transform="translate(0.000000,141.000000) scale(0.100000,-0.100000)"
fill="#000000" stroke="none">
<path d="M1290 1319 c0 -4 14 -7 30 -7 35 1 33 8 -4 12 -14 2 -26 0 -26 -5z"/>
<path d="M1360 1320 c0 -6 7 -10 15 -10 8 0 15 2 15 4 0 2 -7 6 -15 10 -8 3
-15 1 -15 -4z"/>
<path d="M1183 1313 c9 -2 23 -2 30 0 6 3 -1 5 -18 5 -16 0 -22 -2 -12 -5z"/>
<path d="M1400 1317 c3 -2 47 -8 98 -11 51 -4 101 -9 110 -12 15 -5 15 -4 1 5
-15 10 -219 28 -209 18z"/>
<path d="M1015 1299 c-20 -5 -9 -6 30 -2 33 3 62 7 64 9 8 7 -63 2 -94 -7z"/>
<path d="M1631 1296 c2 -2 18 -6 34 -10 22 -5 26 -4 15 4 -14 9 -59 15 -49 6z"/>
<path d="M910 1280 c-20 -6 -21 -8 -5 -8 11 0 31 4 45 8 20 6 21 8 5 8 -11 0
-31 -4 -45 -8z"/>
<path d="M1702 1285 c2 -3 47 -14 98 -25 51 -11 117 -31 145 -44 29 -13 67
-27 84 -31 17 -4 31 -10 31 -13 0 -4 20 -16 45 -27 25 -11 45 -23 45 -27 0 -5
5 -8 11 -8 6 0 27 -12 47 -27 120 -91 202 -256 204 -410 1 -65 -12 -106 -45
-142 -12 -13 -17 -21 -10 -18 6 4 14 1 17 -5 3 -8 5 -7 3 2 -1 9 3 17 8 18 6
1 11 -9 13 -24 2 -17 0 -24 -7 -19 -6 3 -11 1 -11 -4 0 -6 8 -11 18 -12 9 0
12 -3 5 -5 -7 -3 -9 -13 -6 -21 5 -12 2 -15 -10 -10 -15 6 -16 3 -7 -13 9 -16
8 -22 -5 -26 -8 -3 -15 -10 -15 -15 0 -13 -29 -43 -55 -57 -11 -6 -14 -12 -8
-12 7 0 30 16 52 35 45 41 58 43 64 13 l4 -23 2 23 c0 12 -5 25 -13 28 -12 5
-13 11 -1 43 12 35 13 100 1 119 -3 6 1 29 9 53 24 66 8 224 -25 265 -7 7 -9
14 -6 14 19 0 -63 126 -108 167 -52 48 -148 113 -165 113 -5 0 -22 7 -38 15
-74 39 -171 72 -306 104 -51 12 -73 14 -65 6z"/>
<path d="M835 1265 c-40 -14 -40 -14 -5 -9 19 4 39 10 45 15 11 11 10 11 -40
-6z"/>
<path d="M745 1240 c-13 -5 -14 -9 -5 -9 8 0 24 4 35 9 13 5 14 9 5 9 -8 0
-24 -4 -35 -9z"/>
<path d="M675 1220 c-11 -5 -46 -19 -78 -31 -32 -11 -57 -23 -55 -25 2 -1 33
8 68 21 97 35 117 44 100 44 -8 0 -24 -4 -35 -9z"/>
<path d="M478 1139 c-21 -11 -38 -22 -38 -24 0 -5 79 32 89 41 12 11 -18 1
-51 -17z"/>
<path d="M387 1085 c-20 -14 -37 -28 -37 -31 0 -2 18 8 40 22 35 23 47 34 37
34 -1 0 -19 -11 -40 -25z"/>
<path d="M305 1025 c-16 -13 -27 -27 -24 -29 3 -3 18 8 34 24 35 36 31 38 -10
5z"/>
<path d="M257 983 c-4 -3 -7 -11 -7 -17 0 -6 5 -5 12 2 6 6 9 14 7 17 -3 3 -9
2 -12 -2z"/>
<path d="M210 919 c-12 -16 -21 -32 -18 -34 2 -2 13 12 26 31 28 42 21 45 -8
3z"/>
<path d="M169 844 c-5 -15 -8 -29 -5 -31 2 -2 8 10 14 26 13 38 5 41 -9 5z"/>
<path d="M143 763 c-12 -61 -8 -176 7 -203 8 -14 13 -31 11 -39 -1 -7 2 -10 8
-7 5 4 12 2 16 -4 3 -5 1 -10 -4 -10 -6 0 -11 -10 -11 -23 0 -13 -6 -29 -12
-37 -11 -12 -10 -12 3 -2 13 10 20 6 40 -24 13 -20 38 -44 54 -53 17 -9 32
-19 35 -22 3 -3 17 -9 32 -12 14 -4 34 -10 44 -14 16 -6 17 -5 4 9 -8 8 -21
13 -27 11 -7 -3 -13 0 -13 6 0 6 -7 8 -15 5 -8 -4 -15 -1 -15 5 0 6 -7 11 -15
11 -8 0 -15 5 -15 10 0 6 -6 10 -14 10 -8 0 -18 9 -21 20 -4 11 -11 17 -17 14
-7 -5 -9 -1 -5 9 4 10 2 16 -6 14 -7 -1 -12 8 -11 20 0 12 -3 20 -8 17 -10 -6
-11 10 -1 19 3 4 15 -1 26 -10 10 -10 20 -17 21 -16 3 6 46 -10 46 -17 0 -5 8
-6 19 -3 10 3 22 0 25 -5 3 -6 15 -8 27 -5 15 4 33 -6 67 -38 32 -30 37 -33
14 -9 -17 20 -32 39 -32 43 0 13 46 7 70 -10 22 -15 23 -15 12 -1 -11 14 -10
17 5 20 10 2 -29 7 -88 10 -113 7 -154 21 -200 71 -44 47 -63 146 -45 242 4
19 5 35 2 35 -3 0 -8 -17 -13 -37z"/>
<path d="M1270 640 c-12 -7 -10 -9 8 -7 12 0 22 5 22 9 0 11 -12 10 -30 -2z"/>
<path d="M1315 640 c3 -5 8 -10 11 -10 2 0 4 5 4 10 0 6 -5 10 -11 10 -5 0 -7
-4 -4 -10z"/>
<path d="M1348 643 c7 -3 16 -2 19 1 4 3 -2 6 -13 5 -11 0 -14 -3 -6 -6z"/>
<path d="M1420 640 c8 -5 20 -10 25 -10 6 0 3 5 -5 10 -8 5 -19 10 -25 10 -5
0 -3 -5 5 -10z"/>
<path d="M1200 631 c0 -6 4 -12 8 -15 5 -3 9 1 9 9 0 8 -4 15 -9 15 -4 0 -8
-4 -8 -9z"/>
<path d="M1485 630 c11 -5 34 -9 51 -9 17 -1 34 -4 38 -8 4 -5 11 -8 14 -8 4
-1 30 -7 59 -15 47 -12 53 -17 74 -62 12 -26 24 -46 26 -44 3 2 -5 23 -17 46
l-21 42 23 -7 c53 -17 68 -25 68 -37 0 -10 2 -10 8 0 7 10 15 10 38 1 16 -7
39 -14 51 -16 12 -2 41 -10 64 -18 23 -8 52 -15 65 -15 12 0 25 -4 29 -9 3 -6
14 -9 25 -8 31 2 8 17 -36 23 -21 4 -140 37 -264 74 -197 60 -356 97 -295 70z"/>
<path d="M1103 622 c-8 -5 -7 -12 4 -27 15 -19 15 -19 8 4 -6 21 -5 23 14 18
11 -3 24 -1 27 4 6 11 -36 12 -53 1z"/>
<path d="M1050 581 c0 -22 -4 -43 -10 -46 -5 -3 -10 -10 -10 -16 0 -5 8 -1 18
9 11 11 16 27 13 46 -2 17 2 32 10 37 11 7 10 9 -3 9 -14 0 -18 -8 -18 -39z"/>
<path d="M1300 608 c0 -10 12 -30 28 -46 15 -15 22 -21 16 -13 -6 9 -19 30
-27 46 -11 20 -16 24 -17 13z"/>
<path d="M989 602 c-14 -6 -15 -9 -3 -20 12 -10 14 -10 14 2 0 8 10 17 23 19
18 4 19 4 2 5 -11 0 -27 -2 -36 -6z"/>
<path d="M1196 587 c3 -10 9 -15 12 -12 3 3 0 11 -7 18 -10 9 -11 8 -5 -6z"/>
<path d="M1226 588 c4 -7 19 -29 33 -48 14 -19 27 -38 27 -42 1 -5 2 -13 3
-20 0 -6 4 -8 8 -5 3 4 13 1 22 -6 17 -13 20 -18 -52 81 -36 48 -58 70 -41 40z"/>
<path d="M945 580 c3 -5 8 -10 11 -10 2 0 4 5 4 10 0 6 -5 10 -11 10 -5 0 -7
-4 -4 -10z"/>
<path d="M897 574 c-7 -7 18 -60 33 -69 5 -3 2 8 -8 25 -15 27 -15 32 -2 40
13 8 13 10 -1 10 -9 0 -18 -3 -22 -6z"/>
<path d="M1620 575 c0 -5 5 -17 10 -25 5 -8 10 -10 10 -5 0 6 -5 17 -10 25 -5
8 -10 11 -10 5z"/>
<path d="M820 540 c-12 -7 -10 -9 8 -7 12 0 22 5 22 9 0 11 -12 10 -30 -2z"/>
<path d="M1606 530 c4 -14 15 -43 25 -65 11 -22 16 -29 13 -15 -4 14 -15 43
-25 65 -11 22 -16 29 -13 15z"/>
<path d="M725 504 c-33 -13 -48 -22 -32 -19 15 3 27 2 27 -2 0 -5 10 -19 21
-33 l21 -25 -18 32 c-22 40 -10 57 16 23 10 -14 22 -21 26 -17 4 4 -1 14 -12
21 -19 15 -19 15 1 30 27 21 21 19 -50 -10z"/>
<path d="M1140 526 c0 -11 30 -66 36 -66 2 0 -3 15 -12 33 -19 36 -24 44 -24
33z"/>
<path d="M844 504 c11 -8 24 -14 30 -14 16 0 -12 24 -31 26 -16 2 -16 1 1 -12z"/>
<path d="M2321 501 c-8 -5 -9 -11 -3 -15 5 -3 12 1 16 9 6 17 6 18 -13 6z"/>
<path d="M1005 489 c-4 -6 -5 -12 -2 -15 2 -3 7 2 10 11 7 17 1 20 -8 4z"/>
<path d="M1580 494 c0 -6 7 -19 16 -30 14 -18 14 -18 3 6 -14 31 -19 36 -19
24z"/>
<path d="M1917 453 c19 -23 37 -43 39 -43 2 0 -9 20 -24 43 -15 24 -32 44 -39
44 -6 0 4 -20 24 -44z"/>
<path d="M1086 468 c5 -25 3 -28 -19 -28 -14 0 -29 -5 -33 -12 -4 -7 -3 -8 4
-4 6 3 27 7 47 8 20 1 32 4 28 7 -5 3 -14 17 -21 31 l-11 25 5 -27z"/>
<path d="M1116 477 c3 -10 9 -15 12 -12 3 3 0 11 -7 18 -10 9 -11 8 -5 -6z"/>
<path d="M1690 485 c0 -5 5 -17 10 -25 5 -8 10 -10 10 -5 0 6 -5 17 -10 25 -5
8 -10 11 -10 5z"/>
<path d="M637 473 c-11 -11 -8 -20 7 -20 8 0 12 6 9 14 -6 15 -7 15 -16 6z"/>
<path d="M1660 475 c0 -5 5 -17 10 -25 5 -8 10 -10 10 -5 0 6 -5 17 -10 25 -5
8 -10 11 -10 5z"/>
<path d="M2115 470 c3 -5 14 -10 23 -10 15 0 15 2 2 10 -20 13 -33 13 -25 0z"/>
<path d="M2248 473 c7 -3 16 -2 19 1 4 3 -2 6 -13 5 -11 0 -14 -3 -6 -6z"/>
<path d="M555 461 l-30 -7 28 -6 c15 -3 27 -2 27 3 0 4 8 10 18 12 28 7 -9 6
-43 -2z"/>
<path d="M1250 456 c0 -8 7 -17 16 -20 23 -9 24 -4 2 17 -14 13 -18 14 -18 3z"/>
<path d="M1751 465 c0 -5 6 -21 14 -35 8 -14 14 -20 14 -15 0 6 -6 21 -14 35
-8 14 -14 21 -14 15z"/>
<path d="M1780 465 c0 -5 5 -17 10 -25 5 -8 10 -10 10 -5 0 6 -5 17 -10 25 -5
8 -10 11 -10 5z"/>
<path d="M2173 463 c9 -2 23 -2 30 0 6 3 -1 5 -18 5 -16 0 -22 -2 -12 -5z"/>
<path d="M2330 465 c0 -5 5 -17 10 -25 5 -8 10 -10 10 -5 0 6 -5 17 -10 25 -5
8 -10 11 -10 5z"/>
<path d="M1550 451 c0 -6 4 -13 10 -16 6 -3 7 1 4 9 -7 18 -14 21 -14 7z"/>
<path d="M1155 441 c9 -8 55 -9 50 0 -3 3 -16 7 -30 7 -14 0 -23 -3 -20 -7z"/>
<path d="M1300 438 c0 -5 11 -8 24 -8 31 0 220 -37 266 -52 19 -6 49 -13 65
-15 66 -7 121 -33 132 -61 l12 -27 -6 29 c-6 28 -5 29 23 22 72 -16 193 -32
188 -24 -3 4 -17 8 -32 8 -22 0 -24 2 -12 11 11 7 5 8 -22 3 -65 -11 -91 1
-112 52 -10 25 -20 43 -23 40 -2 -2 3 -18 11 -35 9 -16 16 -33 16 -37 0 -9
-81 2 -89 13 -3 4 -14 8 -23 9 -48 2 -59 5 -54 13 3 4 -7 7 -22 5 -15 -2 -36
0 -47 5 -11 5 -32 12 -47 15 -14 3 -29 14 -31 24 -4 16 -5 16 -6 -1 -1 -14 -7
-16 -28 -11 -16 4 -30 10 -33 13 -3 3 -21 7 -40 9 -19 1 -52 3 -72 5 -21 1
-38 -1 -38 -5z"/>
<path d="M840 430 c8 -5 24 -10 34 -10 26 0 18 6 -19 14 -22 5 -26 4 -15 -4z"/>
<path d="M1863 420 c10 -14 25 -37 35 -52 9 -16 21 -28 25 -28 9 0 -52 88 -68
98 -5 3 -2 -5 8 -18z"/>
<path d="M127 423 c-4 -3 -7 -14 -7 -23 0 -9 -14 -26 -30 -39 l-30 -22 42 -32
c47 -36 59 -63 31 -70 -15 -4 -15 -5 -2 -6 9 0 22 6 30 15 11 13 8 20 -19 45
-17 16 -35 29 -40 29 -21 0 -20 29 2 44 13 8 26 26 28 40 6 28 5 30 -5 19z"/>
<path d="M240 425 c0 -5 5 -17 10 -25 5 -8 10 -10 10 -5 0 6 -5 17 -10 25 -5
8 -10 11 -10 5z"/>
<path d="M802 405 c6 -14 15 -25 20 -25 5 0 1 11 -8 25 -9 14 -18 25 -20 25
-2 0 2 -11 8 -25z"/>
<path d="M988 423 c7 -3 16 -2 19 1 4 3 -2 6 -13 5 -11 0 -14 -3 -6 -6z"/>
<path d="M2167 395 c9 -19 18 -33 20 -32 5 6 -21 67 -29 67 -4 0 0 -16 9 -35z"/>
<path d="M887 408 c-8 -5 -6 -8 6 -8 14 0 17 -5 13 -22 -5 -20 -5 -20 6 2 7
14 17 28 23 32 13 10 -33 6 -48 -4z"/>
<path d="M1721 394 c0 -11 3 -14 6 -6 3 7 2 16 -1 19 -3 4 -6 -2 -5 -13z"/>
<path d="M1840 405 c0 -5 5 -17 10 -25 5 -8 10 -10 10 -5 0 6 -5 17 -10 25 -5
8 -10 11 -10 5z"/>
<path d="M848 393 c7 -3 16 -2 19 1 4 3 -2 6 -13 5 -11 0 -14 -3 -6 -6z"/>
<path d="M1161 379 c-1 -27 26 -59 50 -59 8 0 3 6 -11 13 -15 7 -28 25 -31 42
-6 29 -7 29 -8 4z"/>
<path d="M1780 394 c0 -6 7 -19 16 -30 14 -18 14 -18 3 6 -14 31 -19 36 -19
24z"/>
<path d="M2120 391 c0 -6 4 -13 10 -16 6 -3 7 1 4 9 -7 18 -14 21 -14 7z"/>
<path d="M590 381 c0 -6 4 -13 10 -16 6 -3 7 1 4 9 -7 18 -14 21 -14 7z"/>
<path d="M778 373 c7 -3 16 -2 19 1 4 3 -2 6 -13 5 -11 0 -14 -3 -6 -6z"/>
<path d="M2035 370 c-3 -6 1 -7 9 -4 18 7 21 14 7 14 -6 0 -13 -4 -16 -10z"/>
<path d="M2095 350 c9 -16 18 -30 21 -30 2 0 -2 14 -11 30 -9 17 -18 30 -21
30 -2 0 2 -13 11 -30z"/>
<path d="M151 344 c0 -11 3 -14 6 -6 3 7 2 16 -1 19 -3 4 -6 -2 -5 -13z"/>
<path d="M480 346 c0 -2 7 -7 16 -10 8 -3 12 -2 9 4 -6 10 -25 14 -25 6z"/>
<path d="M2046 337 c3 -10 9 -15 12 -12 3 3 0 11 -7 18 -10 9 -11 8 -5 -6z"/>
<path d="M2190 345 c0 -5 5 -17 10 -25 5 -8 10 -10 10 -5 0 6 -5 17 -10 25 -5
8 -10 11 -10 5z"/>
<path d="M555 329 c-4 -6 -14 -8 -22 -5 -8 3 -12 2 -9 -3 3 -5 18 -8 33 -8 16
0 22 2 15 4 -6 3 -10 9 -6 14 3 5 3 9 0 9 -3 0 -8 -5 -11 -11z"/>
<path d="M1240 323 c5 -2 10 -12 10 -22 0 -14 -10 -16 -66 -15 -36 1 -63 0
-60 -3 3 -4 35 -7 71 -8 65 -2 66 -1 63 23 -2 14 -9 27 -16 28 -7 1 -8 0 -2
-3z"/>
<path d="M2024 310 c1 -9 13 -16 29 -18 18 -2 27 -9 27 -20 0 -10 7 -28 16
-40 15 -22 11 -47 -7 -37 -5 4 -9 1 -9 -5 0 -7 8 -9 19 -5 15 4 24 -1 35 -23
8 -16 25 -32 36 -35 20 -5 19 -4 -4 18 -24 22 -76 114 -76 135 0 6 32 10 82
10 45 0 79 2 76 5 -3 3 -53 6 -111 6 -73 0 -107 4 -110 12 -2 7 -3 5 -3 -3z"/>
<path d="M464 301 c3 -5 15 -7 26 -4 28 7 25 13 -6 13 -14 0 -23 -4 -20 -9z"/>
<path d="M935 280 c-29 -8 -29 -8 7 -7 20 1 34 5 32 9 -3 4 -6 7 -7 7 -1 -1
-15 -5 -32 -9z"/>
<path d="M995 280 c3 -5 8 -10 11 -10 2 0 4 5 4 10 0 6 -5 10 -11 10 -5 0 -7
-4 -4 -10z"/>
<path d="M1061 280 c10 -7 49 -2 49 5 0 2 -14 3 -31 3 -17 -1 -25 -4 -18 -8z"/>
<path d="M226 264 c-5 -14 -4 -15 9 -4 17 14 19 20 6 20 -5 0 -12 -7 -15 -16z"/>
<path d="M471 264 c0 -11 3 -14 6 -6 3 7 2 16 -1 19 -3 4 -6 -2 -5 -13z"/>
<path d="M860 270 c-21 -7 -21 -8 -5 -9 11 0 27 4 35 9 18 11 5 11 -30 0z"/>
<path d="M2368 275 c-6 -11 10 -61 17 -53 2 2 1 17 -3 33 -5 16 -11 25 -14 20z"/>
<path d="M1370 260 c8 -5 22 -9 30 -9 10 0 8 3 -5 9 -27 12 -43 12 -25 0z"/>
<path d="M265 246 c11 -7 31 -16 45 -20 14 -4 8 2 -14 14 -46 23 -59 26 -31 6z"/>
<path d="M802 235 c0 -16 2 -22 5 -12 2 9 2 23 0 30 -3 6 -5 -1 -5 -18z"/>
<path d="M1242 235 c0 -16 2 -22 5 -12 2 9 2 23 0 30 -3 6 -5 -1 -5 -18z"/>
<path d="M196 233 c-6 -14 -5 -15 5 -6 7 7 10 15 7 18 -3 3 -9 -2 -12 -12z"/>
<path d="M1731 237 c-8 -10 -7 -14 2 -14 8 0 14 6 14 14 0 7 -1 13 -2 13 -2 0
-8 -6 -14 -13z"/>
<path d="M1410 236 c0 -5 78 -56 86 -56 4 0 -12 14 -34 30 -40 28 -52 35 -52
26z"/>
<path d="M1578 233 c6 -2 18 -2 25 0 6 3 1 5 -13 5 -14 0 -19 -2 -12 -5z"/>
<path d="M434 219 c-4 -7 -24 -9 -53 -6 l-46 6 42 -11 c34 -9 45 -8 64 6 13 9
18 16 12 16 -7 0 -15 -5 -19 -11z"/>
<path d="M1630 227 c0 -2 15 -14 33 -27 l32 -23 -24 26 c-21 23 -41 35 -41 24z"/>
<path d="M66 204 c-8 -22 -9 -21 19 -26 13 -3 22 -1 19 3 -3 5 -12 9 -19 9 -9
0 -12 6 -9 15 4 8 4 15 1 15 -3 0 -8 -7 -11 -16z"/>
<path d="M159 203 c-13 -16 -12 -17 4 -4 9 7 17 15 17 17 0 8 -8 3 -21 -13z"/>
<path d="M1825 201 c27 -11 114 -22 95 -12 -8 5 -37 11 -65 15 -31 3 -42 2
-30 -3z"/>
<path d="M2359 193 c-13 -16 -12 -17 4 -4 16 13 21 21 13 21 -2 0 -10 -8 -17
-17z"/>
<path d="M1993 183 c9 -2 25 -2 35 0 9 3 1 5 -18 5 -19 0 -27 -2 -17 -5z"/>
<path d="M410 169 c0 -20 45 -69 62 -68 10 0 10 2 0 6 -7 3 -24 21 -37 41 -14
21 -25 30 -25 21z"/>
<path d="M2264 155 c17 -9 37 -14 45 -12 10 3 8 5 -6 6 -12 0 -25 6 -28 11 -3
6 -14 10 -23 10 -11 0 -6 -6 12 -15z"/>
<path d="M693 153 c9 -2 17 -8 17 -11 0 -4 9 -13 20 -20 16 -10 20 -10 20 0 0
13 -46 39 -64 37 -6 -1 -3 -3 7 -6z"/>
<path d="M578 120 c42 -26 56 -26 17 0 -16 11 -34 20 -40 20 -5 0 5 -9 23 -20z"/>
</g>
</svg>
